<?xml version="1.0" encoding="utf-8"?>
<!-- Generator: Adobe Illustrator 16.0.0, SVG Export Plug-In . SVG Version: 6.00 Build 0)  -->
<!DOCTYPE svg PUBLIC "-//W3C//DTD SVG 1.1//EN" "http://www.w3.org/Graphics/SVG/1.1/DTD/svg11.dtd">
<svg version="1.1" id="Layer_1" xmlns="http://www.w3.org/2000/svg" xmlns:xlink="http://www.w3.org/1999/xlink" x="0px" y="0px"
	 width="1200px" height="1400px" viewBox="0 0 1200 1400" enable-background="new 0 0 1200 1400" xml:space="preserve">
<g>
	<g>
		<path fill="#812E52" d="M970.256,1128.795c-36.312,15.625-69.965,56.92-94.764,60.268c-24.798,3.348-38.968-39.062-76.166-24.554
			c-37.196,14.509-144.359,90.401-204.584,93.75s-246.209-145.089-286.949-156.25c-33.917-9.291-132.354,35.761-164.379,51.113
			l-0.006-0.294c-14.842,6.854-29.912,13.018-45.164,18.473c-15.889,5.682-33.182,10.557-48.805,3.924
			c-19.021-8.075-30.869-31.232-49.303-41.021V1400h1200v-141.686C1200.137,1258.314,1006.567,1113.17,970.256,1128.795z"/>
	</g>
	<g>
		<path fill="#75294A" d="M1048.366,1295.714c-5.829-1.199-11.781,0.643-17.396,2.853c-45.079,17.743-85.537,60.603-132.819,55.392
			c-47.491-5.234-89.66-59.018-135.613-43.832c-16.97,5.608-32.538,20.533-50.019,17.961c-5.91-0.87-11.463-3.734-17.214-5.582
			c-28.868-9.274-58.542,7.509-85.851,22.001c-27.307,14.492-59.748,26.895-86.055,9.985c-7.91-5.085-15.242-12.799-24.225-13.292
			c-9.828-0.54-19.943,7.812-28.93,3.055c-4.553-2.409-7.5-7.661-10.1-12.716c-9.573-18.617-18.01-38.45-30.948-53.923
			c-12.94-15.473-31.82-26.115-49.614-20.79c-11.238,3.363-22.025,12.812-33.285,9.551c-7.318-2.12-12.768-9.197-17.744-15.924
			c-13.622-18.41-27.243-36.82-40.864-55.23c-3.569-4.823-7.342-9.82-12.388-12.119c-6.099-2.781-12.941-1.127-19.232,0.969
			c-34.247,11.404-64.72,34.598-96.947,52.486c-32.229,17.889-68.857,30.668-103.159,19.49
			c-23.573-7.682-38.665-27.713-55.658-48.604L0,1296.249c0,36.547,12.346,63.922,33.826,83.193
			c16.069,14.417,38.153,12.977,58.244,11.488c116.173-8.602,232.635,3.266,349.002,6.491c84.852,2.352,169.74,0.104,254.595-2.142
			c95.219-2.521,190.439-5.042,285.658-7.563c18.267-0.483,193.954,5.735,210.831-2.59c16.876-8.325-62.706-36.574-79.418-56.823
			C1103.731,1317.393,1061.034,1298.319,1048.366,1295.714z"/>
	</g>
	<g>
		<path fill="#B34070" d="M792.464,1163.521c-37.129,14.509-144.097,90.401-204.212,93.75
			c-59.855,3.334-244.16-143.809-285.888-156.092c0,0,234.821,198.369,294.677,195.035c60.114-3.349,142.702-82.013,176.3-105.76
			c9.718-6.87,36.047-29.908,36.047-29.908C804.288,1160.259,798.702,1161.084,792.464,1163.521z"/>
	</g>
</g>
</svg>
