<?xml version="1.0" encoding="utf-8"?>
<!-- Generator: Adobe Illustrator 16.0.0, SVG Export Plug-In . SVG Version: 6.00 Build 0)  -->
<!DOCTYPE svg PUBLIC "-//W3C//DTD SVG 1.1//EN" "http://www.w3.org/Graphics/SVG/1.1/DTD/svg11.dtd">
<svg version="1.1" id="Layer_1" xmlns="http://www.w3.org/2000/svg" xmlns:xlink="http://www.w3.org/1999/xlink" x="0px" y="0px"
	 width="1200px" height="1400px" viewBox="0 0 1200 1400" enable-background="new 0 0 1200 1400" xml:space="preserve">
<g>
	<path fill="#FFFFFF" stroke="#000000" stroke-width="27.7169" stroke-miterlimit="10" d="M874.846,682.928
		c0,159.086-120.336,288.047-268.754,288.047c-148.414,0-268.73-128.961-268.73-288.047c0-159.082,120.316-288.047,268.73-288.047
		C754.51,394.881,874.846,523.846,874.846,682.928z"/>
	<g>
		<path fill="#FFFFFF" d="M332.98,818.748L218.756,692.615l68.102-19.879l101.07,72.691l347.758-101.484
			c36.084-10.539,75.367-1.197,107.324,25.945l0,0l103.32-3.309c10.84-0.449,21.094,8.617,24.34,21.82l0,0
			c3.736,15.199-3.197,30.479-15.453,34.062L545.51,842.023L332.98,818.748z"/>
		<path d="M545.006,854.842l-212.357-23.633c-2.256-0.266-4.473-1.406-6.162-3.34L212.244,701.736
			c-2.945-3.053-4.121-7.824-3.492-12.238c0.918-4.174,3.461-7.641,7.09-8.705l68.109-19.873c2.486-0.727,5.266-0.322,7.637,1.387
			l97.457,69.84l343.662-100.293c37.891-11.07,78.834-1.906,112.842,25.551l99.926-3.238c15.625-0.664,30.396,12.824,34.938,31.383
			c5.42,21.943-4.516,43.848-22.217,49.023L548.488,854.127C547.35,854.471,546.373,854.445,545.006,854.842z M738.518,655.486
			L390.764,756.959c-2.48,0.734-5.264,0.338-7.637-1.391l-97.461-69.84l-46.078,13.457l97.191,107.291l207.105,23.053
			l408.354-119.16c7.006-2.051,10.963-10.742,8.814-19.465c-1.758-7.305-7.473-12.598-13.697-12.266l-103.295,3.316
			c-2.441,0.102-4.59-0.781-6.445-2.348c-29.445-24.863-65.676-33.586-99.023-23.844L738.518,655.486z"/>
	</g>
	<path d="M748.332,675.533l-19.604-23.236c-4.176-5.107-4.371-12.885-0.684-17.584c3.953-4.766,10.326-4.52,14.453,0.312
		l19.555,23.215c9.254,10.879,22.314,15.496,34.105,12.07l44.068-12.857c5.42-1.596,11.035,2.494,12.695,9.232
		c1.686,6.754-1.318,13.359-6.764,14.957l-44.018,12.855C783.268,699.986,762.76,692.713,748.332,675.533z"/>
	<path d="M655.119,712.062c-2.588-10.561,2.197-21.143,10.719-23.633l0,0c8.543-2.475,17.553,4.076,20.141,14.623l0,0
		c2.613,10.578-2.197,21.148-10.719,23.633l0,0C666.74,729.166,657.707,722.629,655.119,712.062L655.119,712.062z"/>
	<path d="M613.352,724.25c-2.623-10.553,2.227-21.143,10.762-23.627l0,0c8.496-2.492,17.506,4.062,20.092,14.613l0,0
		c2.613,10.57-2.195,21.156-10.717,23.637l0,0C624.967,741.359,615.939,734.83,613.352,724.25L613.352,724.25z"/>
	<path d="M571.359,736.506c-2.607-10.557,2.197-21.143,10.732-23.637l0,0c8.52-2.48,17.52,4.062,20.141,14.623l0,0
		c2.59,10.576-2.195,21.158-10.727,23.646l0,0C582.971,753.619,573.963,747.072,571.359,736.506L571.359,736.506z"/>
	<path fill="#B6B7B9" d="M251.018,713.033l31.168,33.717l9.473-45.572L251.018,713.033z"/>
	<path d="M171.223,749.439c-1.387-5.619,1.074-11.469,5.859-12.865l111.67-32.592c4.531-1.32,9.57,2.338,10.941,7.963
		c1.387,5.631-1.068,11.471-5.834,12.857l-111.666,32.592C177.424,758.787,172.609,755.064,171.223,749.439z"/>
	<path fill="#B6B7B9" d="M352.893,808.709l86.289,8.578l11.996-37.262L352.893,808.709z"/>
	<path d="M323.566,809.127c-1.387-5.625,1.055-11.469,5.834-12.852l111.68-32.598c4.543-1.322,9.576,2.34,10.953,7.955
		c1.377,5.631-1.07,11.459-5.84,12.857l-111.664,32.586C329.986,818.41,324.953,814.752,323.566,809.127z"/>
	<path fill="#18C1FF" d="M952.287,710.646c7.055-2.047,11.012-10.738,8.863-19.469c-0.148-0.555-0.221-0.844-0.344-1.395
		L498.889,824.582l45.289,5.17L952.287,710.646z"/>
	<path d="M525.643,803.826c-2.428-9.855,2.148-19.922,10.102-22.252l157.998-46.104c7.91-2.32,16.529,3.93,18.92,13.773
		c2.441,9.84-2.123,19.914-10.059,22.223l-158.012,46.109C536.643,819.895,528.131,813.943,525.643,803.826z"/>
	<path d="M282.316,775.949c-1.66-6.752,1.338-13.346,6.787-14.932l96.025-28.027c5.439-1.578,11.049,2.49,12.715,9.242
		c1.66,6.744-1.322,13.359-6.771,14.953l-96.031,28.021C289.602,786.789,283.977,782.693,282.316,775.949z"/>
	<path d="M211.174,902.277c-1.387-5.619,1.055-11.471,5.83-12.846l111.68-32.594c4.541-1.332,9.57,2.34,10.951,7.945
		c1.387,5.629-1.059,11.465-5.834,12.855l-111.666,32.594C217.596,911.561,212.561,907.908,211.174,902.277z"/>
	<path d="M86.633,862.404c-1.342-5.629,2.826-11.949,9.844-13.949l164.107-47.012c6.664-1.91,13.48,1.27,14.809,6.889
		c1.357,5.639-2.832,11.947-9.828,13.959l-164.094,47.004C94.797,871.209,87.99,868.045,86.633,862.404z"/>
	<path stroke="#000000" stroke-width="9.9078" stroke-miterlimit="10" d="M504.674,675.768c-7.227,1.945-14.062,2.818-20.457,2.629
		c-6.398-0.188-12.369-1.438-17.936-3.75c-5.846-2.5-10.889-6.172-15.098-11.016c-4.209-4.84-7.154-10.402-8.838-16.68
		c-1.816-6.758-2.344-13.398-1.602-19.902c0.762-6.504,2.797-12.766,6.117-18.789c3.873-7.141,9.277-13.262,16.236-18.391
		c6.959-5.102,14.967-8.875,24.049-11.309c15.209-4.076,28.562-3.445,40.039,1.875c11.488,5.328,18.895,14.27,22.266,26.816
		c1.805,6.73,2.318,13.355,1.512,19.922c-0.781,6.555-2.816,12.818-6.102,18.789c-4.02,7.311-9.426,13.496-16.227,18.541
		C521.838,669.557,513.854,673.318,504.674,675.768z M491.359,601.174c-8.252,2.211-14.453,6.723-18.604,13.551
		c-4.15,6.824-5.176,14.164-3.066,22.051c1.879,6.977,5.59,11.941,11.156,14.922c5.566,2.977,12.062,3.465,19.484,1.479
		c8.105-2.174,14.258-6.771,18.457-13.795c4.199-7.031,5.223-14.5,3.1-22.436c-1.748-6.518-5.479-11.256-11.221-14.209
		C504.943,599.783,498.498,599.256,491.359,601.174z"/>
	<path stroke="#000000" stroke-width="9.9078" stroke-miterlimit="10" d="M583.264,652.127l-6.338-72.877l-22.676,6.074
		l-1.758-22.09l71.498-19.154l1.758,22.084l-21.645,5.795l6.332,72.883L583.264,652.127z"/>
	<path stroke="#000000" stroke-width="9.9078" stroke-miterlimit="10" d="M646.525,635.174l-8.324-94.902l58.496-15.676
		l1.902,21.777l-31.445,8.438l1.295,15.631l29.467-7.891l1.711,20.508l-29.322,7.846l3.248,37.027L646.525,635.174z"/>
</g>
</svg>
