<?xml version="1.0" encoding="utf-8"?>
<!-- Generator: Adobe Illustrator 16.0.0, SVG Export Plug-In . SVG Version: 6.00 Build 0)  -->
<!DOCTYPE svg PUBLIC "-//W3C//DTD SVG 1.1//EN" "http://www.w3.org/Graphics/SVG/1.1/DTD/svg11.dtd">
<svg version="1.1" id="Layer_1" xmlns="http://www.w3.org/2000/svg" xmlns:xlink="http://www.w3.org/1999/xlink" x="0px" y="0px"
	 width="1200px" height="1400px" viewBox="0 0 1200 1400" enable-background="new 0 0 1200 1400" xml:space="preserve">
<linearGradient id="SVGID_1_" gradientUnits="userSpaceOnUse" x1="-2474.5273" y1="-1939.8091" x2="-1342.2598" y2="-1939.8091" gradientTransform="matrix(2.244832e-11 -1 -1 -2.244832e-11 -1340.3789 -1340.3789)">
	<stop  offset="0" style="stop-color:#003366"/>
	<stop  offset="1" style="stop-color:#000027"/>
</linearGradient>
<rect x="0.852" y="1.881" fill="url(#SVGID_1_)" stroke="#3399CC" stroke-width="1.0561" stroke-miterlimit="10" width="1197.157" height="1132.268"/>
<circle opacity="0.08" fill="#E5EDD4" cx="603.819" cy="896.834" r="298.526"/>
<circle opacity="0.08" fill="#E5FFEB" cx="601.876" cy="905.364" r="214.835"/>
<circle fill="#FFFFFF" cx="600.819" cy="911.839" r="158.403"/>
<linearGradient id="SVGID_2_" gradientUnits="userSpaceOnUse" x1="-1" y1="1252.0107" x2="1197.0977" y2="1252.0107">
	<stop  offset="0" style="stop-color:#003366"/>
	<stop  offset="1" style="stop-color:#000027"/>
</linearGradient>
<rect x="-1" y="1105.973" fill="url(#SVGID_2_)" width="1198.098" height="292.076"/>
<g opacity="0.75">
	<g opacity="0.75">
		<path fill="#FFFFFF" d="M550.479,1270.392c-24.229,15.441-49.277,27.084-74.732,34.743c-5.516,1.659-7.043,13.936-2.414,19.355
			c4.451,5.21,9.828,8.601,15.113,10.614c9.539,3.634,19.515,4.01,28.743,9.523c4.089,2.442,8.513,7.163,8.818,14.583
			c-31.065,20.569-64.958,24.08-97.015,39.456l341.288-0.75c-1.365-5.201-4.59-9.889-7.706-12.637
			c-30.237-26.674-69.406-7.41-98.86-36.556c17.2-7.935,34.401-15.868,51.601-23.803c3.833-1.769,8.48-5.23,8.521-12.048
			c0.044-7.222-5.062-10.676-9.183-12.102c-28.123-9.722-56.535-16.979-85.089-21.735c18.442-6.055,36.887-12.11,55.33-18.168
			c3.756-1.232,8.592-5.122,7.671-11.502c-0.708-4.904-4.323-6.239-7.251-6.733c-19.693-3.311-39.13-11.104-57.644-23.113
			c7.107-11.629,19.562-11.174,28.057-17.854c3.863-3.037,2.624-13.001-1.623-13.16c-14.643-0.546-29.285-1.091-43.927-1.639
			c-2.985-0.11-7.037-2.03-6.445-7.517c0.247-2.281,1.251-4.106,2.525-4.878c10.091-6.117,20.182-12.233,30.272-18.348
			c1.583-0.96,2.677-3.602,2.524-6.472c-0.18-3.33-1.838-4.23-3.32-4.916c-6.466-2.994-12.931-5.988-19.396-8.983
			c0.091-4.698,2.479-8.117,4.258-11.69c2.187-4.395,3.437-12.376-1.126-14.14c-0.575-0.223-1.17-0.288-1.76-0.254
			c-10.395,0.622-10.516-0.275-7.35-2.198h-26.839c-1.147,1.946-9.661,1.562-9.901,3.595c-0.474,3.963,5.697,10.673,3.309,11.724
			c-5.165,2.271-11.572,4.612-14.18,6.74c-1.037,0.846-2.131,1.78-2.72,3.468c-2.547,7.307,6.636,12.647,6.414,21.155
			c-0.149,5.768-4.335,8.083-7.662,8.881c-4.543,1.093-9.086,2.183-13.628,3.273c-4.997,1.2-11.533,5.338-9.729,15.138
			c1.097,5.958,4.655,9.348,8.257,8.484c4.725-1.129,14.028,5.241,11.268,14.809c-0.547,1.896-1.477,3.397-2.58,4.335
			c-8.857,7.531-18.533,12.205-28.375,13.719c-4.753,0.729-11.256,4.002-10.525,12.104c0.657,7.303,6.459,8.177,10.76,8.131
			c10.247-0.112,20.492,5.43,28.839,15.649c0.741,0.906,1.296,2.229,1.497,3.753C555.129,1266.704,552.6,1269.04,550.479,1270.392z"
			/>
	</g>
	<g>
		<g opacity="0.75">
			<path fill="#FFFFFF" d="M650.202,1170.362c-5.661-0.931-11.366-0.245-17.04,0.44c-0.016,0.001-0.031,0.001-0.047,0.004
				c-1.593,0.144-1.58,4.234,0.01,4.422c0.754,0.089,1.511,0.126,2.264,0.147c5.024,0.161,10.144-0.187,14.96-2.505
				c0.795-0.38,0.703-2.37-0.118-2.506C650.221,1170.364,650.211,1170.363,650.202,1170.362z"/>
		</g>
		<g opacity="0.75">
			<path fill="#FFFFFF" d="M635.677,1127.113c-0.05-0.237-0.214-0.33-0.356-0.387c-3.341-1.351-5.81-1.392-9.111-0.143
				c-1.319,0.437-2.725,1.154-3.051,2.163c-0.065,0.202-0.113,0.461-0.041,0.657c0.068,0.175,0.204,0.218,0.324,0.243
				c3.508,0.769,7.157,1.514,10.506-0.436c0.55-0.319,1.097-0.721,1.535-1.377C635.607,1127.65,635.731,1127.379,635.677,1127.113z"
				/>
		</g>
		<g opacity="0.75">
			<path fill="#FFFFFF" d="M712.533,1192.517c-1.19-1.128-2.854-2.736-4.213-2.796c-6.478-0.592-13.036,1.573-18.925,6.248
				c-0.287,0.229-0.617,0.581-0.609,1.121c0.009,0.6,0.411,0.91,0.747,1.067c5.293,2.517,10.822,3.55,16.305,3.042
				c2.516-0.232,5.177-0.896,7.105-3.68c0.422-0.608,0.824-1.408,0.823-2.356C713.765,1193.976,713.139,1193.09,712.533,1192.517z"
				/>
		</g>
		<g opacity="0.75">
			<path fill="#FFFFFF" d="M744.042,1286.927c-0.106-0.91-0.562-1.563-1.012-2.079c-2.517-2.866-5.619-3.697-8.621-4.267
				c-9.424-1.788-24.065-1.87-33.477,0.1l0.103-0.003c-0.422,0.071-0.845,0.145-1.265,0.246c-0.443,0.106-0.912,0.247-1.248,0.757
				c-0.663,1.007-0.446,2.999,0.205,4.025c0.653,1.027,1.573,1.339,2.445,1.599c13.237,3.936,26.767,4.965,40.155,3.058
				C742.603,1290.179,744.296,1289.078,744.042,1286.927z"/>
		</g>
		<g opacity="0.75">
			<path fill="#FFFFFF" d="M550.357,1136.267c-0.84-1.437-1.139-1.688-1.854-2.14c-4.036-1.503-8.243-1.628-12.306-0.364
				c-0.782,0.242-1.649,0.646-2.043,1.832c-0.425,1.28-0.075,2.999,0.576,3.958s1.525,1.328,2.37,1.587
				c4.219,1.295,8.637,0.612,12.654-1.956c0.455-0.292,0.98-0.782,0.993-1.616C550.757,1137.065,550.564,1136.621,550.357,1136.267z
				"/>
		</g>
		<g opacity="0.75">
			<path fill="#FFFFFF" d="M502.031,1233.336h0.002C502.031,1233.336,502.03,1233.336,502.031,1233.336
				c-0.049-0.013-0.096-0.023-0.143-0.021c-9.531-1.401-18.707-2.541-28.065,0.889c-0.698,0.258-1.459,0.596-1.874,1.595
				c-0.582,1.406-0.148,3.503,0.656,4.533c0.805,1.031,1.854,1.267,2.853,1.438c8.228,1.415,16.575,0.729,24.687-2.027
				c1.166-0.397,2.488-1.045,2.986-2.902C503.512,1235.42,502.785,1233.527,502.031,1233.336z"/>
		</g>
		<g opacity="0.75">
			<path fill="#FFFFFF" d="M502.754,1276.616c-0.195-0.511-0.572-0.705-0.921-0.836c-1.908-0.722-3.062-0.292-5.146-0.377
				l0.31,0.022c-2.351-0.195-4.715,0.133-7.016,0.974c-0.936,0.343-2.009,1.001-2.276,2.579c-0.397,2.352,1.292,4.099,2.691,4.56
				c3.925,1.299,8.129-0.111,11.481-3.847C502.502,1278.997,503.165,1277.682,502.754,1276.616z"/>
		</g>
		<g opacity="0.75">
			<path fill="#FFFFFF" d="M433.619,1362.166c-2.934,0.587-6.156,1.45-7.984,5.532c-0.229,0.514-0.396,1.127-0.396,1.773
				c0.001,1.842,1.156,2.498,2.112,2.747c4.993,1.306,10.089,0.345,15.086-0.927c11.751-2.989,23.353-7.695,34.642-14.052
				c0.24-0.136,0.425-0.471,0.488-0.892l0,0c0.13-0.853-0.268-1.671-0.778-1.594C464.84,1356.489,445.051,1359.874,433.619,1362.166
				z"/>
		</g>
	</g>
</g>
<g>
	
		<line opacity="0.42" fill="none" stroke="#FFFFFF" stroke-width="1.8339" stroke-linecap="round" stroke-miterlimit="10" x1="309.861" y1="1173.486" x2="345.482" y2="1173.486"/>
	
		<line opacity="0.42" fill="none" stroke="#FFFFFF" stroke-width="1.8339" stroke-linecap="round" stroke-miterlimit="10" x1="393.17" y1="1173.486" x2="528.068" y2="1173.486"/>
	
		<line opacity="0.42" fill="none" stroke="#FFFFFF" stroke-width="1.8339" stroke-linecap="round" stroke-miterlimit="10" x1="589.328" y1="1173.486" x2="636.865" y2="1173.486"/>
	
		<line opacity="0.42" fill="none" stroke="#FFFFFF" stroke-width="1.8339" stroke-linecap="round" stroke-miterlimit="10" x1="708.053" y1="1173.486" x2="790.541" y2="1173.486"/>
	
		<line opacity="0.42" fill="none" stroke="#FFFFFF" stroke-width="1.8339" stroke-linecap="round" stroke-miterlimit="10" x1="879.321" y1="1173.486" x2="931.208" y2="1173.486"/>
	
		<line opacity="0.42" fill="none" stroke="#FFFFFF" stroke-width="1.8339" stroke-linecap="round" stroke-miterlimit="10" x1="964.907" y1="1173.486" x2="981.129" y2="1173.486"/>
	
		<line opacity="0.42" fill="none" stroke="#FFFFFF" stroke-width="1.8339" stroke-linecap="round" stroke-miterlimit="10" x1="156.203" y1="1173.486" x2="172.424" y2="1173.486"/>
	
		<line opacity="0.42" fill="none" stroke="#FFFFFF" stroke-width="1.8339" stroke-linecap="round" stroke-miterlimit="10" x1="209.265" y1="1173.486" x2="267.539" y2="1173.486"/>
	
		<line opacity="0.42" fill="none" stroke="#FFFFFF" stroke-width="1.8339" stroke-linecap="round" stroke-miterlimit="10" x1="249.168" y1="1192.422" x2="302.617" y2="1192.422"/>
	
		<line opacity="0.42" fill="none" stroke="#FFFFFF" stroke-width="1.8339" stroke-linecap="round" stroke-miterlimit="10" x1="410.98" y1="1192.422" x2="423.447" y2="1192.422"/>
	
		<line opacity="0.42" fill="none" stroke="#FFFFFF" stroke-width="1.8339" stroke-linecap="round" stroke-miterlimit="10" x1="523.481" y1="1192.422" x2="558.785" y2="1192.422"/>
	
		<line opacity="0.42" fill="none" stroke="#FFFFFF" stroke-width="1.8339" stroke-linecap="round" stroke-miterlimit="10" x1="449.579" y1="1318.714" x2="462.045" y2="1318.714"/>
	
		<line opacity="0.42" fill="none" stroke="#FFFFFF" stroke-width="1.8339" stroke-linecap="round" stroke-miterlimit="10" x1="562.078" y1="1318.714" x2="597.384" y2="1318.714"/>
	
		<line opacity="0.42" fill="none" stroke="#FFFFFF" stroke-width="1.8339" stroke-linecap="round" stroke-miterlimit="10" x1="629.386" y1="1192.422" x2="644.347" y2="1192.422"/>
	
		<line opacity="0.42" fill="none" stroke="#FFFFFF" stroke-width="1.8339" stroke-linecap="round" stroke-miterlimit="10" x1="771.352" y1="1192.422" x2="830.485" y2="1192.422"/>
	
		<line opacity="0.42" fill="none" stroke="#FFFFFF" stroke-width="1.8339" stroke-linecap="round" stroke-miterlimit="10" x1="905.252" y1="1192.422" x2="919.824" y2="1192.422"/>
	
		<line opacity="0.42" fill="none" stroke="#FFFFFF" stroke-width="1.8339" stroke-linecap="round" stroke-miterlimit="10" x1="297.768" y1="1211.355" x2="309.861" y2="1211.355"/>
	
		<line opacity="0.42" fill="none" stroke="#FFFFFF" stroke-width="1.8339" stroke-linecap="round" stroke-miterlimit="10" x1="333.815" y1="1211.355" x2="373.25" y2="1211.355"/>
	
		<line opacity="0.42" fill="none" stroke="#FFFFFF" stroke-width="1.8339" stroke-linecap="round" stroke-miterlimit="10" x1="462.797" y1="1211.355" x2="479.341" y2="1211.355"/>
	
		<line opacity="0.42" fill="none" stroke="#FFFFFF" stroke-width="1.8339" stroke-linecap="round" stroke-miterlimit="10" x1="611.949" y1="1211.355" x2="667.787" y2="1211.355"/>
	
		<line opacity="0.42" fill="none" stroke="#FFFFFF" stroke-width="1.8339" stroke-linecap="round" stroke-miterlimit="10" x1="721.378" y1="1211.355" x2="732.965" y2="1211.355"/>
	
		<line opacity="0.42" fill="none" stroke="#FFFFFF" stroke-width="1.8339" stroke-linecap="round" stroke-miterlimit="10" x1="816.115" y1="1211.355" x2="844.857" y2="1211.355"/>
	
		<line opacity="0.42" fill="none" stroke="#FFFFFF" stroke-width="1.8339" stroke-linecap="round" stroke-miterlimit="10" x1="309.861" y1="1230.29" x2="335.891" y2="1230.29"/>
	
		<line opacity="0.42" fill="none" stroke="#FFFFFF" stroke-width="1.8339" stroke-linecap="round" stroke-miterlimit="10" x1="661.675" y1="1230.29" x2="697.785" y2="1230.29"/>
	
		<line opacity="0.42" fill="none" stroke="#FFFFFF" stroke-width="1.8339" stroke-linecap="round" stroke-miterlimit="10" x1="771.313" y1="1230.29" x2="786.353" y2="1230.29"/>
	
		<line opacity="0.42" fill="none" stroke="#FFFFFF" stroke-width="1.8339" stroke-linecap="round" stroke-miterlimit="10" x1="600.273" y1="1230.29" x2="615.313" y2="1230.29"/>
	
		<line opacity="0.42" fill="none" stroke="#FFFFFF" stroke-width="1.8339" stroke-linecap="round" stroke-miterlimit="10" x1="442.305" y1="1230.29" x2="560.668" y2="1230.29"/>
	
		<line opacity="0.42" fill="none" stroke="#FFFFFF" stroke-width="1.8339" stroke-linecap="round" stroke-miterlimit="10" x1="436.438" y1="1291.601" x2="400.326" y2="1291.601"/>
	
		<line opacity="0.42" fill="none" stroke="#FFFFFF" stroke-width="1.8339" stroke-linecap="round" stroke-miterlimit="10" x1="497.84" y1="1291.601" x2="482.799" y2="1291.601"/>
	
		<line opacity="0.42" fill="none" stroke="#FFFFFF" stroke-width="1.8339" stroke-linecap="round" stroke-miterlimit="10" x1="655.809" y1="1291.601" x2="537.444" y2="1291.601"/>
	
		<line opacity="0.42" fill="none" stroke="#FFFFFF" stroke-width="1.8339" stroke-linecap="round" stroke-miterlimit="10" x1="364.488" y1="1249.225" x2="448.873" y2="1249.225"/>
	
		<line opacity="0.42" fill="none" stroke="#FFFFFF" stroke-width="1.8339" stroke-linecap="round" stroke-miterlimit="10" x1="474.127" y1="1249.225" x2="502.232" y2="1249.225"/>
	
		<line opacity="0.42" fill="none" stroke="#FFFFFF" stroke-width="1.8339" stroke-linecap="round" stroke-miterlimit="10" x1="723.265" y1="1249.225" x2="730.108" y2="1249.225"/>
	
		<line opacity="0.42" fill="none" stroke="#FFFFFF" stroke-width="1.8339" stroke-linecap="round" stroke-miterlimit="10" x1="542.953" y1="1249.225" x2="672.633" y2="1249.225"/>
	
		<line opacity="0.42" fill="none" stroke="#FFFFFF" stroke-width="1.8339" stroke-linecap="round" stroke-miterlimit="10" x1="424.117" y1="1268.159" x2="560.668" y2="1268.159"/>
	
		<line opacity="0.42" fill="none" stroke="#FFFFFF" stroke-width="1.8339" stroke-linecap="round" stroke-miterlimit="10" x1="583.436" y1="1268.159" x2="611.949" y2="1268.159"/>
	
		<line opacity="0.42" fill="none" stroke="#FFFFFF" stroke-width="1.8339" stroke-linecap="round" stroke-miterlimit="10" x1="662.94" y1="1268.159" x2="672.633" y2="1268.159"/>
</g>
<g>
	<g>
		<path fill="#FFFF33" d="M739.229,233.685c0.118-0.359-0.386-0.348-0.263,0.006"/>
		<g>
			<path fill="#FFFFFF" d="M741.041,234.185c0.108-0.582,0.115-1.158-0.217-1.673c-0.385-0.594-1.013-0.972-1.729-0.972
				c-1.443,0-2.205,1.354-1.942,2.65c0.203,1.005,1.377,1.57,2.312,1.312c1.038-0.285,1.516-1.309,1.312-2.312
				c-0.007-0.031-0.013-0.063-0.02-0.096c0,0.333,0,0.666,0,1c-0.048,0.106-0.097,0.213-0.146,0.319
				c-0.225,0.225-0.449,0.449-0.674,0.675c-0.115,0.048-0.229,0.096-0.345,0.144c-0.333,0-0.666,0-0.999,0
				c-0.115-0.05-0.229-0.1-0.344-0.148c-0.225-0.226-0.449-0.45-0.674-0.675c-0.049-0.107-0.096-0.215-0.145-0.321
				c0-0.333,0-0.667,0-1c-0.006,0.032-0.012,0.064-0.018,0.097c-0.188,1.007,0.264,2.023,1.312,2.312
				C739.652,235.751,740.854,235.192,741.041,234.185L741.041,234.185z"/>
		</g>
	</g>
	<g>
		<path fill="#FFFF33" d="M745.879,164.708c-0.121,0.232-0.244,0.466-0.366,0.697"/>
		<g>
			<path fill="#FFFFFF" d="M744.256,163.76c-0.121,0.232-0.244,0.465-0.366,0.697c-0.478,0.906-0.237,2.037,0.675,2.571
				c0.854,0.501,2.094,0.231,2.571-0.675c0.122-0.231,0.245-0.464,0.366-0.697c0.475-0.908,0.24-2.035-0.674-2.571
				C745.976,162.586,744.729,162.852,744.256,163.76L744.256,163.76z"/>
		</g>
	</g>
	<g>
		<path fill="#FFFF33" d="M761.636,129.141c-0.122-0.232-0.245-0.465-0.366-0.697"/>
		<g>
			<path fill="#FFFFFF" d="M763.259,128.192c-0.122-0.232-0.245-0.465-0.366-0.697c-0.475-0.907-1.72-1.174-2.572-0.675
				c-0.914,0.535-1.148,1.664-0.674,2.571c0.121,0.233,0.244,0.466,0.366,0.697c0.477,0.906,1.718,1.175,2.571,0.675
				C763.497,130.229,763.736,129.099,763.259,128.192L763.259,128.192z"/>
		</g>
	</g>
	<g>
		<path fill="#FFFF33" d="M785.088,152.854c0-0.232,0-0.465,0-0.697"/>
		<g>
			<path fill="#FFFFFF" d="M786.968,152.854c0-0.232,0-0.465,0-0.697c0-1.024-0.855-1.88-1.88-1.88s-1.88,0.855-1.88,1.88
				c0,0.232,0,0.465,0,0.697c0,1.024,0.855,1.88,1.88,1.88S786.968,153.878,786.968,152.854L786.968,152.854z"/>
		</g>
	</g>
	<g>
		<path fill="#FFFF33" d="M762.715,293.728c-0.012-0.696-0.023-1.393-0.037-2.089"/>
		<g>
			<path fill="#FFFFFF" d="M764.595,293.728c-0.012-0.696-0.024-1.393-0.037-2.089c-0.021-1.024-0.84-1.88-1.88-1.88
				c-1.01,0-1.899,0.855-1.88,1.88c0.014,0.696,0.025,1.393,0.037,2.089c0.018,1.024,0.843,1.88,1.88,1.88
				C763.727,295.607,764.611,294.752,764.595,293.728L764.595,293.728z"/>
		</g>
	</g>
	<g>
		<path fill="#FFFF33" d="M748.077,335.571c-0.121-0.233-0.244-0.466-0.366-0.698"/>
		<g>
			<path fill="#FFFFFF" d="M749.7,334.623c-0.121-0.233-0.244-0.466-0.366-0.698c-0.477-0.906-1.718-1.175-2.572-0.675
				c-0.912,0.534-1.15,1.665-0.674,2.571c0.122,0.233,0.244,0.466,0.366,0.698c0.474,0.908,1.721,1.174,2.571,0.675
				C749.941,336.658,750.174,335.531,749.7,334.623L749.7,334.623z"/>
		</g>
	</g>
	<g>
		<path fill="#FFFF33" d="M713.634,251.186C713.33,251.186,713.33,251.186,713.634,251.186"/>
		<g>
			<path fill="#FFFFFF" d="M713.634,253.065c2.425,0,2.425-3.76,0-3.76S711.209,253.065,713.634,253.065L713.634,253.065z"/>
		</g>
	</g>
	<g>
		<path fill="#FFFF33" d="M682.12,251.186c-0.122,0-0.243,0-0.367,0"/>
		<g>
			<path fill="#FFFFFF" d="M682.12,249.306c-0.122,0-0.245,0-0.367,0c-1.024,0-1.88,0.855-1.88,1.88s0.855,1.88,1.88,1.88
				c0.122,0,0.245,0,0.367,0c1.024,0,1.88-0.855,1.88-1.88S683.145,249.306,682.12,249.306L682.12,249.306z"/>
		</g>
	</g>
	<g>
		<path fill="#FFFF33" d="M680.654,311.859C680.654,311.283,680.654,311.283,680.654,311.859"/>
		<g>
			<path fill="#FFFFFF" d="M682.534,311.859c0-0.145,0-0.288,0-0.432c0-2.425-3.76-2.425-3.76,0c0,0.144,0,0.287,0,0.432
				C678.774,314.283,682.534,314.283,682.534,311.859c0-0.145,0-0.288,0-0.432c0-2.425-3.76-2.425-3.76,0c0,0.144,0,0.287,0,0.432
				C678.774,314.283,682.534,314.283,682.534,311.859L682.534,311.859z"/>
		</g>
	</g>
	<g>
		<path fill="#FFFF33" d="M636.684,274.2c0.121-0.231,0.244-0.466,0.365-0.697"/>
		<g>
			<path fill="#FFFFFF" d="M638.307,275.148c0.122-0.232,0.244-0.464,0.365-0.697c0.476-0.907,0.239-2.036-0.674-2.571
				c-0.854-0.499-2.098-0.232-2.572,0.675c-0.122,0.232-0.244,0.464-0.365,0.697c-0.476,0.907-0.239,2.036,0.674,2.571
				C636.588,276.322,637.832,276.056,638.307,275.148L638.307,275.148z"/>
		</g>
	</g>
	<g>
		<path fill="#FFFF33" d="M613.598,224.685"/>
		<g>
			<path fill="#FFFFFF" d="M613.598,226.564c2.424,0,2.424-3.76,0-3.76S611.174,226.564,613.598,226.564L613.598,226.564z"/>
		</g>
	</g>
	<g>
		<path fill="#FFFF33" d="M668.929,170.984c-0.122-0.232-0.244-0.463-0.365-0.697"/>
		<g>
			<path fill="#FFFFFF" d="M670.552,170.036c-0.122-0.232-0.244-0.465-0.365-0.697c-0.472-0.909-1.722-1.173-2.571-0.675
				c-0.916,0.536-1.147,1.662-0.675,2.571c0.121,0.233,0.243,0.466,0.365,0.697c0.477,0.906,1.718,1.175,2.571,0.675
				C670.79,172.073,671.029,170.942,670.552,170.036L670.552,170.036z"/>
		</g>
	</g>
	<g>
		<path fill="#FFFF33" d="M602.605,333.479c-0.124,0-0.245,0-0.367,0"/>
		<g>
			<path fill="#FFFFFF" d="M602.605,331.599c-0.122,0-0.245,0-0.367,0c-1.024,0-1.88,0.855-1.88,1.88s0.855,1.88,1.88,1.88
				c0.122,0,0.245,0,0.367,0c1.024,0,1.88-0.855,1.88-1.88S603.63,331.599,602.605,331.599L602.605,331.599z"/>
		</g>
	</g>
	<g>
		<path fill="#FFFF33" d="M660.5,406.008c-0.121,0-0.244,0-0.365,0"/>
		<g>
			<path fill="#FFFFFF" d="M660.5,404.128c-0.122,0-0.243,0-0.365,0c-1.024,0-1.88,0.855-1.88,1.88s0.855,1.88,1.88,1.88
				c0.122,0,0.243,0,0.365,0c1.024,0,1.88-0.855,1.88-1.88S661.524,404.128,660.5,404.128L660.5,404.128z"/>
		</g>
	</g>
	<g>
		<path fill="#FFFF33" d="M838.96,456.156c-0.24,0-0.479,0-0.719,0"/>
		<g>
			<path fill="#FFFFFF" d="M838.96,454.276c-0.239,0-0.479,0-0.719,0c-1.024,0-1.88,0.855-1.88,1.88s0.855,1.88,1.88,1.88
				c0.239,0,0.479,0,0.719,0c1.024,0,1.88-0.855,1.88-1.88S839.984,454.276,838.96,454.276L838.96,454.276z"/>
		</g>
	</g>
	<g>
		<path fill="#FFFF33" d="M912.891,365.994"/>
		<g>
			<path fill="#FFFFFF" d="M912.891,367.874c2.424,0,2.424-3.76,0-3.76S910.467,367.874,912.891,367.874L912.891,367.874z"/>
		</g>
	</g>
	<g>
		<path fill="#FFFF33" d="M991.135,375.445c-0.238-0.05-0.475-0.1-0.71-0.148"/>
		<g>
			<path fill="#FFFFFF" d="M991.635,373.633c-0.237-0.05-0.474-0.1-0.71-0.148c-1.003-0.209-2.028,0.279-2.312,1.312
				c-0.259,0.94,0.31,2.104,1.312,2.312c0.237,0.05,0.474,0.099,0.71,0.148c1.002,0.21,2.028-0.279,2.312-1.312
				C993.206,375.005,992.638,373.843,991.635,373.633L991.635,373.633z"/>
		</g>
	</g>
	<g>
		<path fill="#FFFF33" d="M832.5,228.02C831.906,228.02,831.906,228.02,832.5,228.02"/>
		<g>
			<path fill="#FFFFFF" d="M832.5,226.14c-0.148,0-0.297,0-0.445,0c-2.424,0-2.424,3.76,0,3.76c0.148,0,0.297,0,0.445,0
				C834.924,229.899,834.924,226.14,832.5,226.14c-0.148,0-0.297,0-0.445,0c-2.424,0-2.424,3.76,0,3.76c0.148,0,0.297,0,0.445,0
				C834.924,229.899,834.924,226.14,832.5,226.14L832.5,226.14z"/>
		</g>
	</g>
	<g>
		<path fill="#FFFF33" d="M887.769,206.162C887.175,206.162,887.175,206.162,887.769,206.162"/>
		<g>
			<path fill="#FFFFFF" d="M887.769,204.282c-0.148,0-0.297,0-0.445,0c-2.425,0-2.425,3.76,0,3.76c0.148,0,0.297,0,0.445,0
				C890.193,208.042,890.193,204.282,887.769,204.282c-0.148,0-0.297,0-0.445,0c-2.425,0-2.425,3.76,0,3.76c0.148,0,0.297,0,0.445,0
				C890.193,208.042,890.193,204.282,887.769,204.282L887.769,204.282z"/>
		</g>
	</g>
	<g>
		<path fill="#FFFF33" d="M815.99,80.482c-0.239-0.455-0.479-0.91-0.718-1.365"/>
		<g>
			<path fill="#FFFFFF" d="M817.613,79.534c-0.239-0.455-0.479-0.91-0.718-1.365c-0.477-0.906-1.718-1.175-2.571-0.675
				c-0.913,0.535-1.151,1.665-0.675,2.571c0.239,0.455,0.479,0.91,0.718,1.365c0.477,0.906,1.718,1.175,2.572,0.675
				C817.852,81.57,818.09,80.44,817.613,79.534L817.613,79.534z"/>
		</g>
	</g>
	<g>
		<path fill="#FFFF33" d="M843.267,69.555"/>
		<g>
			<path fill="#FFFFFF" d="M843.267,71.435c2.425,0,2.425-3.76,0-3.76S840.842,71.435,843.267,71.435L843.267,71.435z"/>
		</g>
	</g>
	<g>
		<path fill="#FFFF33" d="M788.715,87.312"/>
		<g>
			<path fill="#FFFFFF" d="M788.715,89.192c2.424,0,2.424-3.76,0-3.76S786.291,89.192,788.715,89.192L788.715,89.192z"/>
		</g>
	</g>
	<g>
		<path fill="#FFFF33" d="M805.224,14.911"/>
		<g>
			<path fill="#FFFFFF" d="M805.224,16.791c2.425,0,2.425-3.76,0-3.76S802.799,16.791,805.224,16.791L805.224,16.791z"/>
		</g>
	</g>
	<g>
		<path fill="#FFFF33" d="M838.96,40.866c-0.24,0-0.479,0-0.719,0"/>
		<g>
			<path fill="#FFFFFF" d="M838.96,38.986c-0.239,0-0.479,0-0.719,0c-1.024,0-1.88,0.855-1.88,1.88s0.855,1.88,1.88,1.88
				c0.239,0,0.479,0,0.719,0c1.024,0,1.88-0.855,1.88-1.88S839.984,38.986,838.96,38.986L838.96,38.986z"/>
		</g>
	</g>
	<g>
		<path fill="#FFFF33" d="M881.308,44.965c-0.238,0.455-0.478,0.91-0.718,1.365"/>
		<g>
			<path fill="#FFFFFF" d="M879.685,44.017c-0.238,0.455-0.478,0.91-0.718,1.365c-0.479,0.906-0.237,2.037,0.674,2.571
				c0.855,0.501,2.095,0.23,2.572-0.675c0.24-0.454,0.479-0.909,0.718-1.365c0.476-0.907,0.239-2.036-0.675-2.571
				C881.403,42.842,880.16,43.109,879.685,44.017L879.685,44.017z"/>
		</g>
	</g>
	<g>
		<path fill="#FFFF33" d="M895.663,91.412c0-0.455,0-0.912,0-1.367"/>
		<g>
			<path fill="#FFFFFF" d="M897.543,91.412c0-0.456,0-0.911,0-1.367c0-1.024-0.855-1.88-1.88-1.88s-1.88,0.855-1.88,1.88
				c0,0.456,0,0.911,0,1.367c0,1.024,0.855,1.88,1.88,1.88S897.543,92.437,897.543,91.412L897.543,91.412z"/>
		</g>
	</g>
	<g>
		<path fill="#FFFF33" d="M910.02,132.395C910.02,131.266,910.02,131.266,910.02,132.395"/>
		<g>
			<path fill="#FFFFFF" d="M911.899,132.395c0-0.282,0-0.564,0-0.847c0-2.424-3.76-2.424-3.76,0c0,0.282,0,0.564,0,0.847
				C908.14,134.818,911.899,134.818,911.899,132.395c0-0.282,0-0.564,0-0.847c0-2.424-3.76-2.424-3.76,0c0,0.282,0,0.564,0,0.847
				C908.14,134.818,911.899,134.818,911.899,132.395L911.899,132.395z"/>
		</g>
	</g>
	<g>
		<path fill="#FFFF33" d="M954.521,21.74c-0.239,0-0.479,0-0.718,0"/>
		<g>
			<path fill="#FFFFFF" d="M954.521,19.86c-0.239,0-0.479,0-0.718,0c-1.024,0-1.88,0.855-1.88,1.88s0.855,1.88,1.88,1.88
				c0.239,0,0.479,0,0.718,0c1.024,0,1.88-0.855,1.88-1.88S955.546,19.86,954.521,19.86L954.521,19.86z"/>
		</g>
	</g>
	<g>
		<path fill="#FFFF33" d="M988.256,13.545"/>
		<g>
			<path fill="#FFFFFF" d="M988.256,15.425c2.424,0,2.424-3.76,0-3.76S985.832,15.425,988.256,15.425L988.256,15.425z"/>
		</g>
	</g>
	<g>
		<path fill="#FFFF33" d="M988.256,116c-0.238,0-0.478,0-0.717,0"/>
		<g>
			<path fill="#FFFFFF" d="M988.256,114.12c-0.239,0-0.478,0-0.717,0c-1.024,0-1.88,0.855-1.88,1.88s0.855,1.88,1.88,1.88
				c0.239,0,0.478,0,0.717,0c1.024,0,1.88-0.855,1.88-1.88S989.28,114.12,988.256,114.12L988.256,114.12z"/>
		</g>
	</g>
	<g>
		<path fill="#FFFF33" d="M1088.026,28.572C1087.435,28.572,1087.435,28.572,1088.026,28.572"/>
		<g>
			<path fill="#FFFFFF" d="M1088.026,26.692c-0.147,0-0.296,0-0.444,0c-2.424,0-2.424,3.76,0,3.76c0.148,0,0.297,0,0.444,0
				C1090.451,30.452,1090.451,26.692,1088.026,26.692c-0.147,0-0.296,0-0.444,0c-2.424,0-2.424,3.76,0,3.76c0.148,0,0.297,0,0.444,0
				C1090.451,30.452,1090.451,26.692,1088.026,26.692L1088.026,26.692z"/>
		</g>
	</g>
	<g>
		<path fill="#FFFF33" d="M1121.764,61.356c0-0.456,0-0.909,0-1.366"/>
		<g>
			<path fill="#FFFFFF" d="M1123.644,61.356c0-0.455,0-0.911,0-1.366c0-1.024-0.855-1.88-1.88-1.88s-1.88,0.855-1.88,1.88
				c0,0.455,0,0.911,0,1.366c0,1.024,0.855,1.88,1.88,1.88S1123.644,62.381,1123.644,61.356L1123.644,61.356z"/>
		</g>
	</g>
	<g>
		<path fill="#FFFF33" d="M1155.477,311.109c-0.351,0.118-0.325-1.279,0.02-1.115"/>
		<g>
			<path fill="#FFFFFF" d="M1154.977,309.297c-0.015,0.002-0.03,0.005-0.045,0.007c0.333,0,0.666,0,0.999,0
				c0.923,1.288,1.302,1.641,1.136,1.058c0.138,0.522,0.04,0.38,0.039,0.173c0.011-0.198-0.004-0.114-0.043,0.252
				c0.005-0.024,0.011-0.049,0.016-0.074c-0.121,0.381-0.361,0.68-0.72,0.896c-0.315,0.086-0.632,0.172-0.948,0.257
				c-0.138-0.02-0.275-0.039-0.414-0.059c0.984,0.284,2.043-0.335,2.312-1.312c0.274-0.997-0.329-2.029-1.312-2.312
				c-1.596-0.46-2.59,0.956-2.65,2.353c-0.021,0.507,0.117,1.014,0.354,1.457c0.459,0.858,1.395,1.066,2.277,0.931
				c1.014-0.156,1.561-1.412,1.312-2.312C1156.994,309.537,1155.988,309.141,1154.977,309.297L1154.977,309.297z"/>
		</g>
	</g>
	<g>
		<path fill="#FFFF33" d="M1082.298,416.531c-0.195-1.048,0.155-2.338,0.718-2.641"/>
		<g>
			<path fill="#FFFFFF" d="M1084.11,416.031c0.072,0.452,0.014-0.072,0.013-0.147c0.001-0.109,0.007-0.219,0.018-0.328
				c-0.035,0.231-0.032,0.24,0.008,0.025c0.024-0.123,0.268-0.69,0.051-0.236c0.108-0.179,0.078-0.154-0.092,0.074
				c0.143-0.144,0.096-0.112-0.143,0.095c0.862-0.549,1.207-1.662,0.674-2.571c-0.503-0.858-1.707-1.226-2.572-0.675
				c-1.588,1.011-1.854,3.052-1.581,4.764c0.161,1.013,1.408,1.562,2.312,1.312C1083.866,418.05,1084.271,417.043,1084.11,416.031
				L1084.11,416.031z"/>
		</g>
	</g>
	<g>
		<path fill="#FFFF33" d="M1133.896,497.204c-0.24-0.911-0.48-1.819-0.722-2.73"/>
		<g>
			<path fill="#FFFFFF" d="M1135.709,496.704c-0.24-0.91-0.48-1.82-0.722-2.73c-0.262-0.989-1.332-1.582-2.312-1.312
				c-0.994,0.273-1.574,1.322-1.312,2.312c0.241,0.91,0.481,1.82,0.722,2.73c0.262,0.99,1.333,1.582,2.312,1.312
				C1135.392,498.743,1135.971,497.694,1135.709,496.704L1135.709,496.704z"/>
		</g>
	</g>
	<g>
		<path fill="#FFFF33" d="M1199.282,441.129c0-0.455,0-0.91,0-1.365"/>
		<g>
			<path fill="#FFFFFF" d="M1201.162,441.129c0-0.455,0-0.91,0-1.365c0-1.024-0.855-1.88-1.88-1.88s-1.88,0.855-1.88,1.88
				c0,0.455,0,0.91,0,1.365c0,1.024,0.855,1.88,1.88,1.88S1201.162,442.153,1201.162,441.129L1201.162,441.129z"/>
		</g>
	</g>
	<g>
		<path fill="#FFFF33" d="M1200,568.174c0-0.455,0-0.91,0-1.366"/>
		<g>
			<path fill="#FFFFFF" d="M1201.88,568.174c0-0.455,0-0.911,0-1.366c0-1.024-0.855-1.88-1.88-1.88s-1.88,0.855-1.88,1.88
				c0,0.455,0,0.911,0,1.366c0,1.024,0.855,1.88,1.88,1.88S1201.88,569.198,1201.88,568.174L1201.88,568.174z"/>
		</g>
	</g>
	<g>
		<path fill="#FFFF33" d="M1043.524,610.523c0-0.455,0-0.91,0-1.366"/>
		<g>
			<path fill="#FFFFFF" d="M1045.404,610.523c0-0.455,0-0.911,0-1.366c0-1.024-0.855-1.88-1.88-1.88s-1.88,0.855-1.88,1.88
				c0,0.455,0,0.911,0,1.366c0,1.024,0.855,1.88,1.88,1.88S1045.404,611.548,1045.404,610.523L1045.404,610.523z"/>
		</g>
	</g>
	<g>
		<path fill="#FFFF33" d="M826.757,628.283c0-0.457,0-0.912,0-1.367"/>
		<g>
			<path fill="#FFFFFF" d="M828.637,628.283c0-0.456,0-0.911,0-1.367c0-1.024-0.855-1.88-1.88-1.88s-1.88,0.855-1.88,1.88
				c0,0.456,0,0.911,0,1.367c0,1.024,0.855,1.88,1.88,1.88S828.637,629.308,828.637,628.283L828.637,628.283z"/>
		</g>
	</g>
	<g>
		<path fill="#FFFF33" d="M688.944,543.584"/>
		<g>
			<path fill="#FFFFFF" d="M688.944,545.464c2.425,0,2.425-3.76,0-3.76S686.52,545.464,688.944,545.464L688.944,545.464z"/>
		</g>
	</g>
	<g>
		<path fill="#FFFF33" d="M599.222,508.067c0-0.456,0-0.911,0-1.366"/>
		<g>
			<path fill="#FFFFFF" d="M601.102,508.067c0-0.455,0-0.911,0-1.366c0-1.024-0.855-1.88-1.88-1.88s-1.88,0.855-1.88,1.88
				c0,0.455,0,0.911,0,1.366c0,1.024,0.855,1.88,1.88,1.88S601.102,509.092,601.102,508.067L601.102,508.067z"/>
		</g>
	</g>
	<g>
		<path fill="#FFFF33" d="M453.514,551.781"/>
		<g>
			<path fill="#FFFFFF" d="M453.514,553.661c2.424,0,2.424-3.76,0-3.76S451.09,553.661,453.514,553.661L453.514,553.661z"/>
		</g>
	</g>
	<g>
		<path fill="#FFFF33" d="M407.576,408.343c-0.239,0.455-0.479,0.91-0.718,1.366"/>
		<g>
			<path fill="#FFFFFF" d="M405.953,407.395c-0.239,0.455-0.479,0.91-0.718,1.366c-0.476,0.907-0.239,2.036,0.675,2.571
				c0.853,0.5,2.096,0.232,2.571-0.675c0.239-0.455,0.479-0.91,0.718-1.366c0.477-0.906,0.238-2.037-0.674-2.571
				C407.671,406.22,406.43,406.488,405.953,407.395L405.953,407.395z"/>
		</g>
	</g>
	<g>
		<path fill="#FFFF33" d="M415.471,327.742c-0.239,0-0.479,0-0.717,0"/>
		<g>
			<path fill="#FFFFFF" d="M415.471,325.862c-0.239,0-0.478,0-0.717,0c-1.024,0-1.88,0.855-1.88,1.88s0.855,1.88,1.88,1.88
				c0.239,0,0.478,0,0.717,0c1.024,0,1.88-0.855,1.88-1.88S416.495,325.862,415.471,325.862L415.471,325.862z"/>
		</g>
	</g>
	<g>
		<path fill="#FFFF33" d="M515.241,266.27"/>
		<g>
			<path fill="#FFFFFF" d="M515.241,268.149c2.425,0,2.425-3.76,0-3.76S512.816,268.149,515.241,268.149L515.241,268.149z"/>
		</g>
	</g>
	<g>
		<path fill="#FFFF33" d="M409.012,166.545c-0.239,0.456-0.479,0.912-0.718,1.367"/>
		<g>
			<path fill="#FFFFFF" d="M407.389,165.597c-0.239,0.455-0.479,0.911-0.718,1.367c-0.477,0.906-0.238,2.036,0.675,2.571
				c0.854,0.5,2.095,0.231,2.571-0.675c0.239-0.455,0.479-0.911,0.718-1.367c0.477-0.907,0.239-2.036-0.674-2.571
				C409.107,164.422,407.864,164.689,407.389,165.597L407.389,165.597z"/>
		</g>
	</g>
	<g>
		<path fill="#FFFF33" d="M404.705,92.777C404.112,92.777,404.112,92.777,404.705,92.777"/>
		<g>
			<path fill="#FFFFFF" d="M404.705,90.897c-0.148,0-0.297,0-0.444,0c-2.425,0-2.425,3.76,0,3.76c0.147,0,0.296,0,0.444,0
				C407.129,94.657,407.129,90.897,404.705,90.897c-0.148,0-0.297,0-0.444,0c-2.425,0-2.425,3.76,0,3.76c0.147,0,0.296,0,0.444,0
				C407.129,94.657,407.129,90.897,404.705,90.897L404.705,90.897z"/>
		</g>
	</g>
	<g>
		<path fill="#FFFF33" d="M286.271,116c-0.239,0-0.479,0-0.718,0"/>
		<g>
			<path fill="#FFFFFF" d="M286.271,114.12c-0.239,0-0.479,0-0.718,0c-1.024,0-1.88,0.855-1.88,1.88s0.855,1.88,1.88,1.88
				c0.239,0,0.479,0,0.718,0c1.024,0,1.88-0.855,1.88-1.88S287.296,114.12,286.271,114.12L286.271,114.12z"/>
		</g>
	</g>
	<g>
		<path fill="#FFFF33" d="M304.934,49.062C304.934,50.191,304.934,50.191,304.934,49.062"/>
		<g>
			<path fill="#FFFFFF" d="M303.054,49.062c0,0.282,0,0.564,0,0.847c0,2.425,3.76,2.425,3.76,0c0-0.282,0-0.564,0-0.847
				C306.813,46.639,303.054,46.639,303.054,49.062c0,0.282,0,0.564,0,0.847c0,2.425,3.76,2.425,3.76,0c0-0.282,0-0.564,0-0.847
				C306.813,46.639,303.054,46.639,303.054,49.062L303.054,49.062z"/>
		</g>
	</g>
	<g>
		<path fill="#FFFF33" d="M284.06,341.417c-0.026-0.45-0.052-0.9-0.078-1.351"/>
		<g>
			<path fill="#FFFFFF" d="M285.939,341.417c-0.026-0.45-0.052-0.9-0.078-1.351c-0.06-1.022-0.811-1.88-1.88-1.88
				c-0.979,0-1.939,0.856-1.88,1.88c0.026,0.45,0.052,0.9,0.078,1.351c0.06,1.022,0.811,1.88,1.88,1.88
				C285.039,343.297,285.999,342.44,285.939,341.417L285.939,341.417z"/>
		</g>
	</g>
	<g>
		<path fill="#FFFF33" d="M195.115,40.866c0.479,0,0.957,0,1.436,0"/>
		<g>
			<path fill="#FFFFFF" d="M195.115,42.746c0.479,0,0.957,0,1.436,0c1.024,0,1.88-0.855,1.88-1.88s-0.855-1.88-1.88-1.88
				c-0.479,0-0.957,0-1.436,0c-1.024,0-1.88,0.855-1.88,1.88S194.091,42.746,195.115,42.746L195.115,42.746z"/>
		</g>
	</g>
	<g>
		<path fill="#FFFF33" d="M83.141,85.947c0.239,0,0.479,0,0.719,0"/>
		<g>
			<path fill="#FFFFFF" d="M83.141,87.827c0.239,0,0.479,0,0.719,0c1.024,0,1.88-0.855,1.88-1.88s-0.855-1.88-1.88-1.88
				c-0.239,0-0.479,0-0.719,0c-1.024,0-1.88,0.855-1.88,1.88S82.116,87.827,83.141,87.827L83.141,87.827z"/>
		</g>
	</g>
	<g>
		<path fill="#FFFF33" d="M103.235,245.703c-0.727,0.113-0.729-2.623-0.002-2.515"/>
		<g>
			<path fill="#FFFFFF" d="M103.235,243.823c-0.017,0.001-0.033,0.002-0.05,0.004c0.441,0.007,0.813,0.154,1.117,0.443
				c0.223,0.315,0.287,0.393,0.194,0.232c0.138,0.349,0.175,0.434,0.112,0.253c-0.035-0.103-0.054-0.21-0.071-0.316
				c0.11,0.655,0.035,0.222,0.031,0.054c-0.003-0.121,0.004-0.242,0.014-0.363c-0.05,0.64-0.037,0.25,0.003,0.083
				c0.102-0.422-0.185,0.349-0.06,0.122c-0.254,0.459-0.954,0.754-1.293,0.733c1.023,0.062,1.88-0.902,1.88-1.88
				c0-1.071-0.857-1.817-1.88-1.88c-3.278-0.199-3.264,6.495,0.002,6.274c1.022-0.069,1.88-0.803,1.88-1.88
				C105.115,244.73,104.259,243.754,103.235,243.823L103.235,243.823z"/>
		</g>
	</g>
	<g>
		<path fill="#FFFF33" d="M5.621,378.289c0-0.455,0-0.911,0-1.365"/>
		<g>
			<path fill="#FFFFFF" d="M7.501,378.289c0-0.455,0-0.91,0-1.365c0-1.024-0.855-1.88-1.88-1.88s-1.88,0.855-1.88,1.88
				c0,0.455,0,0.91,0,1.365c0,1.024,0.855,1.88,1.88,1.88S7.501,379.313,7.501,378.289L7.501,378.289z"/>
		</g>
	</g>
	<g>
		<path fill="#FFFF33" d="M53.713,491.672c-0.24-0.454-0.479-0.909-0.719-1.365"/>
		<g>
			<path fill="#FFFFFF" d="M55.336,490.724c-0.24-0.455-0.479-0.91-0.719-1.365c-0.477-0.906-1.718-1.175-2.572-0.675
				c-0.912,0.534-1.151,1.665-0.674,2.571c0.239,0.456,0.479,0.911,0.719,1.365c0.479,0.905,1.717,1.176,2.572,0.675
				C55.573,492.761,55.814,491.629,55.336,490.724L55.336,490.724z"/>
		</g>
	</g>
	<g>
		<path fill="#FFFF33" d="M22.77,628.205c0.242-0.906,0.484-1.813,0.729-2.721"/>
		<g>
			<path fill="#FFFFFF" d="M24.582,628.705c0.242-0.907,0.484-1.814,0.729-2.721c0.266-0.989-0.321-2.04-1.312-2.312
				c-0.983-0.271-2.047,0.324-2.312,1.312c-0.244,0.907-0.486,1.814-0.729,2.721c-0.265,0.989,0.32,2.039,1.312,2.312
				C23.252,630.288,24.317,629.694,24.582,628.705L24.582,628.705z"/>
		</g>
	</g>
	<g>
		<path fill="#FFFF33" d="M112.57,747.133c-0.239-0.457-0.479-0.912-0.719-1.367"/>
		<g>
			<path fill="#FFFFFF" d="M114.193,746.185c-0.238-0.457-0.479-0.912-0.719-1.367c-0.478-0.905-1.717-1.176-2.572-0.675
				c-0.911,0.534-1.152,1.665-0.674,2.571c0.24,0.456,0.479,0.911,0.719,1.367c0.475,0.907,1.719,1.174,2.572,0.675
				C114.433,748.221,114.669,747.092,114.193,746.185L114.193,746.185z"/>
		</g>
	</g>
	<g>
		<path fill="#FFFF33" d="M210.906,529.925c0-0.455,0-0.911,0-1.366"/>
		<g>
			<path fill="#FFFFFF" d="M212.786,529.925c0-0.455,0-0.911,0-1.366c0-1.024-0.855-1.88-1.88-1.88s-1.88,0.855-1.88,1.88
				c0,0.455,0,0.911,0,1.366c0,1.024,0.855,1.88,1.88,1.88S212.786,530.949,212.786,529.925L212.786,529.925z"/>
		</g>
	</g>
	<g>
		<path fill="#FFFF33" d="M276.939,546.318"/>
		<g>
			<path fill="#FFFFFF" d="M276.939,548.198c2.424,0,2.424-3.76,0-3.76S274.516,548.198,276.939,548.198L276.939,548.198z"/>
		</g>
	</g>
	<g>
		<path fill="#FFFF33" d="M528.621,99.303C526.291,99.303,526.291,99.303,528.621,99.303"/>
		<g>
			<path fill="#FFFFFF" d="M528.621,97.423c-0.582,0-1.165,0-1.748,0c-2.424,0-2.424,3.76,0,3.76c0.583,0,1.166,0,1.748,0
				C531.045,101.183,531.045,97.423,528.621,97.423c-0.582,0-1.165,0-1.748,0c-2.424,0-2.424,3.76,0,3.76c0.583,0,1.166,0,1.748,0
				C531.045,101.183,531.045,97.423,528.621,97.423L528.621,97.423z"/>
		</g>
	</g>
	<g>
		<path fill="#FFFF33" d="M638.672,67.078c0-1.789,0-3.58,0-5.369"/>
		<g>
			<path fill="#FFFFFF" d="M640.552,67.078c0-1.79,0-3.579,0-5.369c0-2.424-3.76-2.424-3.76,0c0,1.79,0,3.579,0,5.369
				C636.792,69.502,640.552,69.502,640.552,67.078L640.552,67.078z"/>
		</g>
	</g>
	<g>
		<path fill="#FFFF33" d="M576.626,174.031c-0.923-0.248-1.845-0.496-2.767-0.744"/>
		<g>
			<path fill="#FFFFFF" d="M577.126,172.219c-0.923-0.248-1.845-0.496-2.767-0.744c-0.989-0.266-2.04,0.321-2.312,1.312
				c-0.271,0.983,0.324,2.047,1.312,2.312c0.922,0.248,1.845,0.496,2.767,0.744c0.989,0.266,2.04-0.321,2.312-1.312
				C578.709,173.548,578.115,172.484,577.126,172.219L577.126,172.219z"/>
		</g>
	</g>
	<g>
		<path fill="#FFFF33" d="M686.643,72.449c0.941-1.789,1.881-3.58,2.822-5.371"/>
		<g>
			<path fill="#FFFFFF" d="M688.266,73.397c0.941-1.789,1.881-3.58,2.822-5.371c1.127-2.144-2.118-4.044-3.246-1.896
				c-0.941,1.79-1.881,3.581-2.822,5.371C683.892,73.644,687.137,75.544,688.266,73.397L688.266,73.397z"/>
		</g>
	</g>
</g>
<g opacity="0.11">
	<g>
		<path fill="#FFFFFF" d="M907.321,427.759c-9.357-5.549-22.208-3.24-29.33,5.269c1.774-28.924-23.021-55.414-50.232-57.16
			c-27.21-1.747-53.358,18.489-63.633,45.337c-15.909-13.262-43.013-5.512-50.521,14.445c-5.16-9.084-17.899-10.4-26.621-5.241
			s-14.107,14.905-18.108,24.626l249.636,2.027C921.582,446.147,916.677,433.308,907.321,427.759z"/>
	</g>
	<g>
		<path fill="#FFFFFF" d="M820.549,265.04c-8.009-5.01-18.889-4.191-26.155,1.968c-1.745-24.791-24.393-45.724-47.726-44.112
			c-22.875,1.58-40.708,20.831-56.179,38.818c-6.532-11.377-20.621-16.064-32.954-13.672c-12.333,2.395-23.013,10.676-31.663,20.324
			c-3.834-6.07-12.721-6.178-18.483-2.186c-5.762,3.992-9.146,10.791-12.287,17.296l236.531,6.83
			C833.169,280.562,828.558,270.052,820.549,265.04z"/>
	</g>
	<g>
		<path fill="#FFFFFF" d="M1126.845,323.328c-6.152-1.624-12.735,0.964-17.71,5.142c3.663-11.911-3.407-25.597-14.025-31.036
			c-10.617-5.44-23.557-3.716-34.078,1.928c-10.523,5.645-19.007,14.776-26.68,24.288c-1.837-8.474-12.154-12.092-19.927-9.384
			c-7.771,2.709-13.45,9.659-18.722,16.308l140.939,7.737C1138.046,331.738,1132.996,324.952,1126.845,323.328z"/>
	</g>
	<g>
		<path fill="#FFFFFF" d="M1199.502,509.435c-1.018-3.684-4.414-6.932-7.959-6.206c-2.669,0.547-5.221,3.155-7.713,1.997
			c-0.018-9.908-0.95-21.629-8.963-26.688c-7.781-4.914-17.969-0.43-24.683,6.025c-5.854,5.631-10.446,12.737-13.288,20.568
			c-5.105-4.821-14.77-0.945-15.608,6.259l77.755,9.429C1199.783,517.061,1200.518,513.118,1199.502,509.435z"/>
	</g>
	<g>
		<path fill="#FFFFFF" d="M276.366,262.508c-8.604-3.438-19.397,2.5-21.728,11.952c-2.29-19.705-6.554-42.529-23.264-51.393
			c-13.765-7.3-30.988-1.444-42.649,9.221c-11.661,10.666-19.257,25.339-27.78,38.953c-0.648,1.036-1.392,2.139-2.516,2.485
			c-2.58,0.797-4.311-2.616-6.183-4.665c-4.061-4.443-11.609-2.578-15.386,2.139c-3.777,4.717-4.793,11.188-5.664,17.314
			l154.113-1.798C289.412,277.973,284.969,265.946,276.366,262.508z"/>
	</g>
	<g>
		<path fill="#FFFFFF" d="M234.192,422.93c-9.855-9.446-26.103-10.189-36.686-1.677c5.61-16.211-1.628-35.34-14.468-45.925
			c-12.838-10.584-30.041-13.647-46.217-12.06c-35.005,3.434-67.402,28.44-81.314,62.765c-9.785-9.628-25.156-12.207-37.255-6.25
			s-20.19,20.089-19.614,34.251l240.918,7.52C246.424,449.481,244.049,432.377,234.192,422.93z"/>
	</g>
</g>
</svg>
