<?xml version="1.0" encoding="utf-8"?>
<!-- Generator: Adobe Illustrator 16.0.0, SVG Export Plug-In . SVG Version: 6.00 Build 0)  -->
<!DOCTYPE svg PUBLIC "-//W3C//DTD SVG 1.1//EN" "http://www.w3.org/Graphics/SVG/1.1/DTD/svg11.dtd">
<svg version="1.1" id="Layer_1" xmlns="http://www.w3.org/2000/svg" xmlns:xlink="http://www.w3.org/1999/xlink" x="0px" y="0px"
	 width="1200px" height="1400px" viewBox="0 0 1200 1400" enable-background="new 0 0 1200 1400" xml:space="preserve">
<linearGradient id="SVGID_1_" gradientUnits="userSpaceOnUse" x1="0" y1="499.1909" x2="1103.7402" y2="499.1909" gradientTransform="matrix(2.244832e-11 -1 -1 -2.244832e-11 1099.6211 1099.6211)">
	<stop  offset="0" style="stop-color:#003366"/>
	<stop  offset="1" style="stop-color:#000027"/>
</linearGradient>
<rect x="1.852" y="-4.119" fill="url(#SVGID_1_)" stroke="#3399CC" stroke-width="1.0427" stroke-miterlimit="10" width="1197.157" height="1103.74"/>
<polygon opacity="0.08" fill="#E5EDD4" stroke="#000000" stroke-miterlimit="10" points="2.19,511.806 0,871.131 464.093,684.816 
	"/>
<linearGradient id="SVGID_2_" gradientUnits="userSpaceOnUse" x1="0" y1="581.3076" x2="700.8301" y2="581.3076">
	<stop  offset="0" style="stop-color:#7C4A74"/>
	<stop  offset="1" style="stop-color:#FA798D"/>
</linearGradient>
<rect y="505.8" fill="url(#SVGID_2_)" width="700.83" height="151.015"/>
<circle opacity="0.08" fill="#E5EDD4" cx="589.82" cy="890.834" r="298.526"/>
<g>
	<polygon fill="#CC9933" points="145.202,675.691 193.085,675.691 193.085,749.664 154.514,749.664 	"/>
	<polygon fill="#CC9933" points="246.291,676.155 198.409,676.155 198.409,750.132 236.981,750.132 	"/>
	<ellipse fill="#00D1CF" cx="195.309" cy="520.826" rx="102.118" ry="98.579"/>
	<g>
		<path d="M170.827,694.353c-10.22,0-18.48,8.304-18.48,18.424c0,10.118,8.331,18.426,18.48,18.426
			c10.15,0,18.48-8.308,18.48-18.426C189.308,702.656,181.049,694.353,170.827,694.353z M170.827,725.686
			c-7.14,0-12.88-5.792-12.88-12.843c0-7.045,5.81-12.836,12.88-12.836s12.88,5.791,12.88,12.836
			C183.707,719.894,177.897,725.686,170.827,725.686z"/>
		<path d="M219.898,731.27c10.22,0,18.48-8.306,18.48-18.427c0-10.114-8.33-18.423-18.48-18.423c-10.22,0-18.48,8.309-18.48,18.423
			C201.417,722.964,209.678,731.27,219.898,731.27z M219.898,699.937c7.14,0,12.881,5.79,12.881,12.84
			c0,7.045-5.811,12.84-12.881,12.84c-7.14,0-12.88-5.795-12.88-12.84C207.018,705.727,212.828,699.937,219.898,699.937z"/>
		<path d="M299.979,525.4c4.621-0.979,8.051-5.095,8.051-9.98c0-5.581-4.55-10.187-10.222-10.187h-0.629
			c-7.35-50.178-50.681-87.654-101.783-87.654c-51.171,0-94.501,37.544-101.783,87.723c-5.319,0.349-9.52,4.745-9.52,10.118
			c0,4.886,3.431,8.932,8.051,9.98l0.63,2.232c1.049,14.935,5.39,29.309,12.531,42.153l27.579,92.955v10.327
			c0,1.537,1.261,2.793,2.801,2.793h3.429l9.312,73.971h-3.362c-1.538,0-2.799,1.257-2.799,2.795v10.675
			c0,1.537,1.261,2.791,2.799,2.791h100.732c1.542,0,2.8-1.254,2.8-2.791v-10.675c0-1.538-1.258-2.795-2.8-2.795h-3.359
			l9.312-73.971h3.428c1.541,0,2.8-1.256,2.8-2.793v-8.305c0.561-0.349,1.051-0.907,1.26-1.606l29.542-99.583
			c4.27-9.073,7.14-18.774,8.541-28.823L299.979,525.4z M278.209,571.039h-23.17c-1.54,0-2.8,1.257-2.8,2.794
			c0,1.533,1.26,2.791,2.8,2.791h19.39c-3.29,4.605-7.07,8.934-11.199,12.98c-3.711,3.558-7.63,6.838-11.691,9.769h-12.391
			l10.36-73.694h42.98c-0.139,2.654-0.419,5.235-0.769,7.885l-2.801,9.422h-33.88c-1.54,0-2.8,1.258-2.8,2.791
			c0,1.538,1.26,2.794,2.8,2.794h32.2l-3.85,12.909C281.919,564.759,280.17,567.97,278.209,571.039z M198.829,659.526v-36.844
			c11.13-0.35,22.049-2.514,32.27-6.28l-6.02,43.125H198.829z M167.047,659.526l-5.95-42.566c10.221,3.626,21.07,5.582,32.2,5.791
			v36.775H167.047z M98.236,525.609h44.311l2.452,17.308h-41.862l-4.83-16.332C98.236,526.307,98.236,525.958,98.236,525.609z
			 M141.566,571.039h-29.051c-0.699-1.116-1.399-2.302-2.029-3.49l-5.671-19.051h41.023l7.14,50.806h-11.341
			c-0.629,0-1.19,0.208-1.61,0.558c-4.41-3.072-8.54-6.488-12.459-10.258c-4.131-4.046-7.911-8.375-11.2-12.98h25.27
			c1.541,0,2.8-1.257,2.8-2.791C144.436,572.295,143.106,571.039,141.566,571.039z M153.676,604.957l0.421,3.138
			c-2.101-0.976-4.13-2.023-6.16-3.138H153.676z M159.347,604.957h21.07c1.541,0,2.8-1.257,2.8-2.791c0-1.537-1.259-2.793-2.8-2.793
			h-21.84l-7.141-50.802h19.391c1.54,0,2.8-1.256,2.8-2.794c0-1.533-1.26-2.791-2.8-2.791h-20.161l-2.449-17.307h45.011v45.433
			h-28.631c-1.54,0-2.799,1.255-2.799,2.791c0,1.537,1.259,2.789,2.799,2.789h28.631v40.479
			c-11.481-0.282-22.611-2.446-33.112-6.493L159.347,604.957z M198.829,617.098v-40.475h16.87c1.539,0,2.799-1.257,2.799-2.791
			c0-1.537-1.26-2.794-2.799-2.794h-16.87v-45.429h45.009l-10.359,73.694h-10.08c-1.541,0-2.801,1.257-2.801,2.791
			c0,1.537,1.26,2.793,2.801,2.793h9.31l-0.699,5.162C221.579,614.307,210.378,616.679,198.829,617.098z M238.378,604.957h4.34
			c-1.54,0.837-3.149,1.673-4.69,2.441L238.378,604.957z M128.547,449.682h48.791c1.54,0,2.801-1.257,2.801-2.794
			c0-1.534-1.261-2.79-2.801-2.79h-42.352c16.66-13.122,37.662-20.866,60.341-20.866c22.61,0,43.682,7.745,60.342,20.866h-40.6
			c-1.542,0-2.801,1.256-2.801,2.79c0,1.538,1.259,2.794,2.801,2.794h46.06c0.28,0,0.561-0.072,0.839-0.141
			c5.462,5.095,10.292,10.816,14.421,17.028h-20.021c-1.54,0-2.799,1.257-2.799,2.79c0,1.538,1.259,2.791,2.799,2.791h23.521
			c2.871,4.958,5.25,10.262,7.21,15.702h-55.792c-1.54,0-2.8,1.257-2.8,2.794c0,1.535,1.261,2.792,2.8,2.792h57.611
			c1.12,3.837,1.961,7.817,2.59,11.794H99.215c0.631-4.051,1.47-7.957,2.59-11.794h68.882c1.539,0,2.8-1.257,2.8-2.792
			c0-1.537-1.261-2.794-2.8-2.794h-67.132c1.961-5.512,4.341-10.744,7.211-15.702h24.851c1.54,0,2.8-1.253,2.8-2.791
			c0-1.533-1.26-2.79-2.8-2.79h-21.351C118.395,460.358,123.155,454.706,128.547,449.682z M89.625,515.419
			c0-2.511,2.101-4.605,4.619-4.605h1.751H294.73h3.079c2.522,0,4.622,2.094,4.622,4.605c0,2.513-2.1,4.606-4.622,4.606h-2.379
			H95.294h-1.05C91.726,520.025,89.625,518,89.625,515.419z M123.505,593.583c9.241,9,19.952,16.051,31.502,21.004l6.299,44.939
			h-23.589l-22.121-74.528C118.047,587.997,120.706,590.86,123.505,593.583z M144.716,675.787h47.882v73.977h-38.571
			L144.716,675.787z M242.93,760.512h-95.132v-5.097h3.709h87.642h3.71v5.097H242.93z M236.699,749.764h-38.572v-73.977h47.881
			L236.699,749.764z M252.309,670.206h-3.081H141.566h-3.078v-5.095h113.821V670.206L252.309,670.206z M254.339,659.526H230.75
			l6.369-45.568c11.062-4.883,21.21-11.723,30.101-20.375c3.641-3.561,7.001-7.328,10.08-11.307L254.339,659.526z"/>
		<path d="M200.367,487.852h-12.808c-1.542,0-2.801,1.257-2.801,2.794c0,1.535,1.26,2.792,2.801,2.792h12.808
			c1.541,0,2.801-1.257,2.801-2.792C203.167,489.109,201.907,487.852,200.367,487.852z"/>
		<path d="M161.027,472.15h62.372c1.539,0,2.8-1.253,2.8-2.791c0-1.533-1.261-2.79-2.8-2.79h-62.372c-1.539,0-2.8,1.257-2.8,2.79
			C158.227,470.897,159.417,472.15,161.027,472.15z"/>
		<path d="M226.199,545.707c0-1.534-1.261-2.79-2.8-2.79h-15.332c-1.539,0-2.799,1.256-2.799,2.79c0,1.535,1.26,2.791,2.799,2.791
			h15.332C224.938,548.498,226.199,547.242,226.199,545.707z"/>
	</g>
	<line fill="#0001B9" x1="94.244" y1="510.814" x2="94.244" y2="520.025"/>
	<polygon fill="#FFFFFF" points="296.886,510.848 296.886,520.127 93.265,520.078 93.315,510.898 	"/>
	<path fill="#FFFFFF" d="M296.886,510.848c0,0,5.286-0.684,5.545,4.572c0.26,5.256-5.545,4.708-5.545,4.708"/>
	<path fill="#FFFFFF" d="M94.416,510.865c0,0-5.286-0.684-5.545,4.573c-0.259,5.255,5.545,4.707,5.545,4.707"/>
	<path fill="#00C4E7" d="M183.941,712.796c0,7.165-5.825,12.972-13.011,12.972c-7.187,0-13.011-5.807-13.011-12.972
		c0-7.16,5.824-12.972,13.011-12.972C178.116,699.824,183.941,705.636,183.941,712.796z"/>
	<path fill="#00C4E7" d="M232.782,712.796c0,7.165-5.826,12.972-13.011,12.972c-7.187,0-13.011-5.807-13.011-12.972
		c0-7.16,5.824-12.972,13.011-12.972C226.956,699.824,232.782,705.636,232.782,712.796z"/>
	<rect x="138.488" y="665.111" fill="#CC9933" width="113.821" height="5.095"/>
	<rect x="147.797" y="755.415" fill="#CC9933" width="95.062" height="5.097"/>
</g>
<linearGradient id="SVGID_3_" gradientUnits="userSpaceOnUse" x1="4.882812e-04" y1="1368.751" x2="1197.4404" y2="1368.751">
	<stop  offset="0" style="stop-color:#003366"/>
	<stop  offset="1" style="stop-color:#000027"/>
</linearGradient>
<rect x="0" y="1337.502" fill="url(#SVGID_3_)" stroke="#3399CC" stroke-width="1.0046" stroke-miterlimit="10" width="1197.44" height="62.498"/>
<circle opacity="0.08" fill="#E5FFEB" cx="587.876" cy="899.364" r="214.835"/>
<circle fill="#FFFFFF" cx="586.819" cy="905.839" r="158.403"/>
<g>
	<path fill="#812E52" d="M970.119,869.242c-36.312,15.625-69.965,56.92-94.764,60.268c-24.798,3.348-38.968-39.062-76.166-24.554
		c-37.196,14.509-144.359,90.401-204.584,93.75c-60.224,3.349-246.209-145.089-286.95-156.25
		c-33.917-9.291-132.354,35.761-164.378,51.113l-0.006-0.294c-14.842,6.854-29.913,13.018-45.164,18.473
		c-15.889,5.682-33.182,10.557-48.805,3.924C30.282,907.597,18.434,884.439,0,874.65v265.797h1200V998.762
		C1200,998.762,1006.431,853.617,970.119,869.242z"/>
</g>
<linearGradient id="SVGID_4_" gradientUnits="userSpaceOnUse" x1="0" y1="1234.0107" x2="1198.0977" y2="1234.0107">
	<stop  offset="0" style="stop-color:#003366"/>
	<stop  offset="1" style="stop-color:#000027"/>
</linearGradient>
<rect y="1127.973" fill="url(#SVGID_4_)" stroke="#3399CC" stroke-width="1.0695" stroke-miterlimit="10" width="1198.098" height="212.076"/>
<g opacity="0.75">
	<g opacity="0.75">
		<path fill="#FFFFFF" d="M523.478,1281.404c-24.228,14.115-49.277,24.759-74.732,31.761c-5.516,1.517-7.043,12.739-2.415,17.693
			c4.451,4.763,9.829,7.862,15.113,9.703c9.539,3.322,19.515,3.665,28.744,8.706c4.089,2.232,8.513,6.548,8.818,13.33
			c-31.066,18.804-64.958,22.014-97.015,36.069l341.289-0.686c-1.365-4.755-4.59-9.039-7.706-11.552
			c-30.237-24.384-69.406-6.774-98.86-33.418c17.2-7.253,34.401-14.506,51.601-21.759c3.833-1.616,8.48-4.781,8.521-11.013
			c0.044-6.603-5.062-9.76-9.183-11.062c-28.123-8.888-56.535-15.522-85.089-19.87c18.442-5.535,36.887-11.071,55.33-16.607
			c3.756-1.127,8.592-4.684,7.671-10.515c-0.708-4.484-4.323-5.704-7.251-6.155c-19.693-3.026-39.13-10.151-57.644-21.13
			c7.107-10.63,19.562-10.215,28.057-16.32c3.863-2.776,2.624-11.885-1.623-12.03c-14.643-0.499-29.285-0.997-43.927-1.498
			c-2.985-0.101-7.037-1.856-6.445-6.871c0.247-2.086,1.25-3.754,2.525-4.459c10.091-5.592,20.182-11.183,30.272-16.772
			c1.583-0.878,2.677-3.292,2.524-5.916c-0.18-3.044-1.838-3.867-3.32-4.494c-6.466-2.737-12.931-5.475-19.396-8.212
			c0.09-4.295,2.479-7.421,4.258-10.688c2.187-4.018,3.437-11.313-1.126-12.925c-0.575-0.204-1.17-0.264-1.76-0.233
			c-10.395,0.57-10.516-0.251-7.35-2.009h-26.838c-1.148,1.779-9.661,1.429-9.902,3.286c-0.473,3.622,5.698,9.757,3.309,10.717
			c-5.165,2.076-11.572,4.217-14.18,6.161c-1.036,0.773-2.13,1.628-2.719,3.171c-2.547,6.68,6.636,11.562,6.414,19.339
			c-0.149,5.272-4.335,7.389-7.662,8.118c-4.543,0.999-9.086,1.995-13.628,2.992c-4.997,1.098-11.533,4.88-9.729,13.839
			c1.097,5.446,4.655,8.545,8.256,7.756c4.725-1.032,14.029,4.791,11.268,13.537c-0.547,1.733-1.476,3.105-2.579,3.963
			c-8.857,6.885-18.533,11.157-28.376,12.541c-4.752,0.667-11.255,3.658-10.524,11.064c0.657,6.676,6.458,7.475,10.759,7.433
			c10.247-0.103,20.492,4.964,28.839,14.306c0.741,0.828,1.296,2.038,1.497,3.431C528.129,1278.034,525.6,1280.169,523.478,1281.404
			z"/>
	</g>
	<g>
		<g opacity="0.75">
			<path fill="#FFFFFF" d="M623.202,1189.963c-5.661-0.851-11.366-0.224-17.04,0.402c-0.016,0.001-0.031,0.001-0.047,0.004
				c-1.593,0.131-1.58,3.871,0.01,4.043c0.754,0.08,1.511,0.114,2.264,0.135c5.024,0.146,10.144-0.171,14.96-2.29
				c0.795-0.348,0.703-2.167-0.118-2.291C623.221,1189.965,623.211,1189.964,623.202,1189.963z"/>
		</g>
		<g opacity="0.75">
			<path fill="#FFFFFF" d="M608.677,1150.427c-0.05-0.217-0.214-0.302-0.356-0.354c-3.341-1.234-5.81-1.271-9.111-0.13
				c-1.319,0.398-2.725,1.056-3.051,1.978c-0.065,0.185-0.113,0.422-0.041,0.601c0.068,0.159,0.204,0.198,0.324,0.223
				c3.508,0.702,7.157,1.384,10.506-0.398c0.55-0.292,1.097-0.659,1.535-1.259C608.607,1150.918,608.731,1150.67,608.677,1150.427z"
				/>
		</g>
		<g opacity="0.75">
			<path fill="#FFFFFF" d="M685.533,1210.215c-1.19-1.03-2.854-2.501-4.213-2.556c-6.478-0.541-13.036,1.438-18.925,5.712
				c-0.287,0.209-0.617,0.53-0.609,1.025c0.009,0.547,0.411,0.831,0.747,0.975c5.293,2.301,10.822,3.245,16.305,2.782
				c2.516-0.213,5.177-0.82,7.105-3.364c0.422-0.557,0.824-1.288,0.823-2.154C686.765,1211.549,686.139,1210.739,685.533,1210.215z"
				/>
		</g>
		<g opacity="0.75">
			<path fill="#FFFFFF" d="M717.042,1296.52c-0.106-0.832-0.562-1.429-1.012-1.899c-2.517-2.621-5.619-3.381-8.621-3.901
				c-9.424-1.634-24.065-1.709-33.477,0.092l0.103-0.004c-0.422,0.066-0.845,0.134-1.265,0.227
				c-0.443,0.097-0.912,0.226-1.248,0.691c-0.663,0.92-0.446,2.741,0.205,3.68c0.653,0.938,1.573,1.224,2.445,1.461
				c13.237,3.598,26.767,4.539,40.155,2.796C715.603,1299.493,717.296,1298.487,717.042,1296.52z"/>
		</g>
		<g opacity="0.75">
			<path fill="#FFFFFF" d="M523.358,1158.795c-0.841-1.313-1.14-1.544-1.854-1.957c-4.036-1.373-8.243-1.487-12.306-0.332
				c-0.782,0.222-1.649,0.591-2.043,1.674c-0.425,1.171-0.076,2.742,0.576,3.619c0.652,0.876,1.525,1.214,2.37,1.45
				c4.219,1.185,8.638,0.56,12.654-1.788c0.455-0.267,0.98-0.715,0.994-1.478C523.757,1159.524,523.565,1159.118,523.358,1158.795z"
				/>
		</g>
		<g opacity="0.75">
			<path fill="#FFFFFF" d="M475.032,1247.53L475.032,1247.53c0,0-0.001,0-0.001,0c-0.048-0.012-0.095-0.021-0.141-0.02
				c-9.531-1.281-18.708-2.322-28.066,0.812c-0.698,0.235-1.459,0.544-1.874,1.458c-0.583,1.285-0.149,3.201,0.655,4.144
				s1.854,1.158,2.853,1.315c8.227,1.293,16.575,0.666,24.686-1.854c1.167-0.364,2.489-0.955,2.986-2.653
				C476.511,1249.436,475.786,1247.705,475.032,1247.53z"/>
		</g>
		<g opacity="0.75">
			<path fill="#FFFFFF" d="M475.754,1287.095c-0.196-0.467-0.572-0.645-0.921-0.765c-1.908-0.659-3.062-0.267-5.146-0.345
				l0.309,0.021c-2.35-0.179-4.715,0.121-7.015,0.89c-0.936,0.312-2.009,0.915-2.276,2.358c-0.397,2.148,1.292,3.746,2.691,4.168
				c3.925,1.187,8.129-0.102,11.482-3.517C475.501,1289.271,476.165,1288.068,475.754,1287.095z"/>
		</g>
		<g opacity="0.75">
			<path fill="#FFFFFF" d="M406.619,1365.3c-2.933,0.536-6.156,1.325-7.984,5.058c-0.229,0.469-0.396,1.029-0.396,1.621
				c0.001,1.684,1.156,2.283,2.112,2.511c4.994,1.193,10.089,0.315,15.086-0.848c11.751-2.732,23.353-7.034,34.642-12.845
				c0.24-0.124,0.424-0.431,0.488-0.815l0,0c0.13-0.779-0.268-1.527-0.778-1.457C437.839,1360.11,418.051,1363.205,406.619,1365.3z"
				/>
		</g>
	</g>
</g>
<g>
	
		<line opacity="0.42" fill="none" stroke="#FFFFFF" stroke-width="1.8339" stroke-linecap="round" stroke-miterlimit="10" x1="310.862" y1="1167.486" x2="346.483" y2="1167.486"/>
	
		<line opacity="0.42" fill="none" stroke="#FFFFFF" stroke-width="1.8339" stroke-linecap="round" stroke-miterlimit="10" x1="394.17" y1="1167.486" x2="529.068" y2="1167.486"/>
	
		<line opacity="0.42" fill="none" stroke="#FFFFFF" stroke-width="1.8339" stroke-linecap="round" stroke-miterlimit="10" x1="590.328" y1="1167.486" x2="637.865" y2="1167.486"/>
	
		<line opacity="0.42" fill="none" stroke="#FFFFFF" stroke-width="1.8339" stroke-linecap="round" stroke-miterlimit="10" x1="709.053" y1="1167.486" x2="791.541" y2="1167.486"/>
	
		<line opacity="0.42" fill="none" stroke="#FFFFFF" stroke-width="1.8339" stroke-linecap="round" stroke-miterlimit="10" x1="880.321" y1="1167.486" x2="932.208" y2="1167.486"/>
	
		<line opacity="0.42" fill="none" stroke="#FFFFFF" stroke-width="1.8339" stroke-linecap="round" stroke-miterlimit="10" x1="965.907" y1="1167.486" x2="982.129" y2="1167.486"/>
	
		<line opacity="0.42" fill="none" stroke="#FFFFFF" stroke-width="1.8339" stroke-linecap="round" stroke-miterlimit="10" x1="157.203" y1="1167.486" x2="173.424" y2="1167.486"/>
	
		<line opacity="0.42" fill="none" stroke="#FFFFFF" stroke-width="1.8339" stroke-linecap="round" stroke-miterlimit="10" x1="210.265" y1="1167.486" x2="268.539" y2="1167.486"/>
	
		<line opacity="0.42" fill="none" stroke="#FFFFFF" stroke-width="1.8339" stroke-linecap="round" stroke-miterlimit="10" x1="250.168" y1="1186.422" x2="303.617" y2="1186.422"/>
	
		<line opacity="0.42" fill="none" stroke="#FFFFFF" stroke-width="1.8339" stroke-linecap="round" stroke-miterlimit="10" x1="411.981" y1="1186.422" x2="424.448" y2="1186.422"/>
	
		<line opacity="0.42" fill="none" stroke="#FFFFFF" stroke-width="1.8339" stroke-linecap="round" stroke-miterlimit="10" x1="524.481" y1="1186.422" x2="559.786" y2="1186.422"/>
	
		<line opacity="0.42" fill="none" stroke="#FFFFFF" stroke-width="1.8339" stroke-linecap="round" stroke-miterlimit="10" x1="450.579" y1="1312.714" x2="463.044" y2="1312.714"/>
	
		<line opacity="0.42" fill="none" stroke="#FFFFFF" stroke-width="1.8339" stroke-linecap="round" stroke-miterlimit="10" x1="563.078" y1="1312.714" x2="598.384" y2="1312.714"/>
	
		<line opacity="0.42" fill="none" stroke="#FFFFFF" stroke-width="1.8339" stroke-linecap="round" stroke-miterlimit="10" x1="630.386" y1="1186.422" x2="645.347" y2="1186.422"/>
	
		<line opacity="0.42" fill="none" stroke="#FFFFFF" stroke-width="1.8339" stroke-linecap="round" stroke-miterlimit="10" x1="772.352" y1="1186.422" x2="831.485" y2="1186.422"/>
	
		<line opacity="0.42" fill="none" stroke="#FFFFFF" stroke-width="1.8339" stroke-linecap="round" stroke-miterlimit="10" x1="906.252" y1="1186.422" x2="920.824" y2="1186.422"/>
	
		<line opacity="0.42" fill="none" stroke="#FFFFFF" stroke-width="1.8339" stroke-linecap="round" stroke-miterlimit="10" x1="298.768" y1="1205.355" x2="310.862" y2="1205.355"/>
	
		<line opacity="0.42" fill="none" stroke="#FFFFFF" stroke-width="1.8339" stroke-linecap="round" stroke-miterlimit="10" x1="334.815" y1="1205.355" x2="374.25" y2="1205.355"/>
	
		<line opacity="0.42" fill="none" stroke="#FFFFFF" stroke-width="1.8339" stroke-linecap="round" stroke-miterlimit="10" x1="463.797" y1="1205.355" x2="480.341" y2="1205.355"/>
	
		<line opacity="0.42" fill="none" stroke="#FFFFFF" stroke-width="1.8339" stroke-linecap="round" stroke-miterlimit="10" x1="612.949" y1="1205.355" x2="668.787" y2="1205.355"/>
	
		<line opacity="0.42" fill="none" stroke="#FFFFFF" stroke-width="1.8339" stroke-linecap="round" stroke-miterlimit="10" x1="722.378" y1="1205.355" x2="733.965" y2="1205.355"/>
	
		<line opacity="0.42" fill="none" stroke="#FFFFFF" stroke-width="1.8339" stroke-linecap="round" stroke-miterlimit="10" x1="817.115" y1="1205.355" x2="845.857" y2="1205.355"/>
	
		<line opacity="0.42" fill="none" stroke="#FFFFFF" stroke-width="1.8339" stroke-linecap="round" stroke-miterlimit="10" x1="310.862" y1="1224.29" x2="336.891" y2="1224.29"/>
	
		<line opacity="0.42" fill="none" stroke="#FFFFFF" stroke-width="1.8339" stroke-linecap="round" stroke-miterlimit="10" x1="662.675" y1="1224.29" x2="698.785" y2="1224.29"/>
	
		<line opacity="0.42" fill="none" stroke="#FFFFFF" stroke-width="1.8339" stroke-linecap="round" stroke-miterlimit="10" x1="772.313" y1="1224.29" x2="787.353" y2="1224.29"/>
	
		<line opacity="0.42" fill="none" stroke="#FFFFFF" stroke-width="1.8339" stroke-linecap="round" stroke-miterlimit="10" x1="601.273" y1="1224.29" x2="616.313" y2="1224.29"/>
	
		<line opacity="0.42" fill="none" stroke="#FFFFFF" stroke-width="1.8339" stroke-linecap="round" stroke-miterlimit="10" x1="443.304" y1="1224.29" x2="561.668" y2="1224.29"/>
	
		<line opacity="0.42" fill="none" stroke="#FFFFFF" stroke-width="1.8339" stroke-linecap="round" stroke-miterlimit="10" x1="437.438" y1="1285.601" x2="401.327" y2="1285.601"/>
	
		<line opacity="0.42" fill="none" stroke="#FFFFFF" stroke-width="1.8339" stroke-linecap="round" stroke-miterlimit="10" x1="498.839" y1="1285.601" x2="483.799" y2="1285.601"/>
	
		<line opacity="0.42" fill="none" stroke="#FFFFFF" stroke-width="1.8339" stroke-linecap="round" stroke-miterlimit="10" x1="656.809" y1="1285.601" x2="538.444" y2="1285.601"/>
	
		<line opacity="0.42" fill="none" stroke="#FFFFFF" stroke-width="1.8339" stroke-linecap="round" stroke-miterlimit="10" x1="365.489" y1="1243.225" x2="449.874" y2="1243.225"/>
	
		<line opacity="0.42" fill="none" stroke="#FFFFFF" stroke-width="1.8339" stroke-linecap="round" stroke-miterlimit="10" x1="475.127" y1="1243.225" x2="503.232" y2="1243.225"/>
	
		<line opacity="0.42" fill="none" stroke="#FFFFFF" stroke-width="1.8339" stroke-linecap="round" stroke-miterlimit="10" x1="724.265" y1="1243.225" x2="731.108" y2="1243.225"/>
	
		<line opacity="0.42" fill="none" stroke="#FFFFFF" stroke-width="1.8339" stroke-linecap="round" stroke-miterlimit="10" x1="543.954" y1="1243.225" x2="673.633" y2="1243.225"/>
	
		<line opacity="0.42" fill="none" stroke="#FFFFFF" stroke-width="1.8339" stroke-linecap="round" stroke-miterlimit="10" x1="425.118" y1="1262.159" x2="561.668" y2="1262.159"/>
	
		<line opacity="0.42" fill="none" stroke="#FFFFFF" stroke-width="1.8339" stroke-linecap="round" stroke-miterlimit="10" x1="584.436" y1="1262.159" x2="612.949" y2="1262.159"/>
	
		<line opacity="0.42" fill="none" stroke="#FFFFFF" stroke-width="1.8339" stroke-linecap="round" stroke-miterlimit="10" x1="663.94" y1="1262.159" x2="673.633" y2="1262.159"/>
</g>
<polygon opacity="0.08" fill="#E5EDD4" stroke="#000000" stroke-width="0.9728" stroke-miterlimit="10" points="1197.929,0 
	1200,359.324 760.833,173.011 "/>
<g>
	<path fill="#75294A" d="M1048.229,1036.161c-5.829-1.199-11.781,0.643-17.396,2.853c-45.079,17.743-85.537,60.603-132.819,55.392
		c-47.491-5.234-89.66-59.018-135.613-43.832c-16.97,5.608-32.538,20.533-50.019,17.961c-5.91-0.87-11.463-3.734-17.214-5.582
		c-28.868-9.274-58.542,7.509-85.851,22.001c-27.307,14.492-59.748,26.895-86.055,9.985c-7.91-5.085-15.243-12.799-24.225-13.292
		c-9.827-0.54-19.943,7.812-28.929,3.055c-4.553-2.409-7.5-7.661-10.1-12.716c-9.573-18.617-18.009-38.45-30.948-53.923
		c-12.94-15.473-31.82-26.115-49.615-20.79c-11.237,3.363-22.024,12.812-33.284,9.551c-7.319-2.12-12.768-9.197-17.744-15.924
		c-13.623-18.41-27.244-36.82-40.865-55.23c-3.569-4.823-7.342-9.82-12.388-12.119c-6.099-2.781-12.941-1.127-19.232,0.969
		c-34.248,11.404-64.72,34.598-96.948,52.486c-32.229,17.889-68.857,30.668-103.159,19.49
		c-23.573-7.682-38.665-27.713-55.658-48.604l-0.305,88.805c0,36.547,12.345,63.922,33.826,83.193
		c16.069,14.417,38.153,12.977,58.245,11.488c116.172-8.602,232.635,3.266,349.001,6.491c84.852,2.352,169.741,0.104,254.595-2.142
		c95.219-2.521,190.439-5.042,285.658-7.563c18.267-0.483,193.954,5.735,210.831-2.59c16.876-8.325-62.706-36.574-79.418-56.823
		C1103.595,1057.84,1060.897,1038.767,1048.229,1036.161z"/>
</g>
<g>
	<g>
		<path fill="#531331" d="M403.626,1334.021c-29.601-27.045-59.202-68.997-88.803-96.043c-3.11-2.841-6.29-5.727-9.99-7.267
			c-3.63-1.511-7.549-1.636-11.393-1.768c-28.356-0.976-56.682-3.2-84.9-6.669c-13.464-1.654-45.562-7.776-45.562-7.776
			c-33.378-64.316-72.55-140.854-105.925-205.169c-8.527-16.432-17.473-33.387-31.018-44.029c-7.82-6.145-16.812-9.846-26.034-12.02
			v380.74H403.626z"/>
	</g>
	<path fill="#531331" d="M1171.935,965.301c-13.545,10.643-22.489,27.598-31.016,44.029
		c-6.572,12.662-61.988,138.954-61.988,138.954s-182.164,80.917-185.796,82.428c-3.7,1.54-6.879,4.426-9.987,7.267
		c-12.65,11.557-17.718,16.275-29.962,30.486l1.693,65.557h17.771h325.317v-380.74
		C1188.746,955.455,1179.755,959.156,1171.935,965.301z"/>
	<g>
		<path fill="#531331" d="M863.956,1258.727c-1.705-1.812-4.076-2.535-6.363-2.529s-4.534,0.672-6.752,1.335
			c3.673-2.151,7.61-3.664,11.648-4.476c-2.509-5.307-7.545-8.035-12.251-10.425c5.508-0.091,11.032,1.814,15.645,5.399
			c-0.856-3.674-2.172-7.195-3.892-10.414c4.718,3.559,8.684,8.511,11.443,14.285"/>
	</g>
	<g>
		<path fill="#531331" d="M886.399,1238.261c-2.919-0.257-5.389-3.621-5.208-7.097c0.179-3.476,2.975-6.455,5.899-6.285
			c-1.498-4.13-1.568-9.25,0.694-12.854c2.262-3.604,7.171-4.806,9.955-1.764c0.602-5.994,3.128-11.688,6.951-15.659
			c1.25-1.299,2.666-2.437,4.27-2.95c1.903-0.609,3.946-0.294,5.819,0.438c4.058,1.584,7.535,5.159,9.44,9.704
			c1.906,4.546,2.213,10.002,0.835,14.809c-0.43,1.501-1.03,2.96-1.94,4.12c-0.831,1.058-1.886,1.824-2.938,2.555
			c-10.373,7.209-21.791,12.285-33.598,14.936"/>
	</g>
	<g>
		<path fill="#531331" d="M331.346,1262.337c-0.105-7.812,10.123-32.664,9.016-38.899c-0.945-5.336-2.621-10.449-3.776-15.727
			c-2.235-10.199-2.502-20.84-2.757-31.375c1.249-0.264,2.498-0.527,3.746-0.791c-1.781,14.717,2.104,30.27,10.353,41.441
			c0.904-5.844,3.589-11.273,7.444-15.052c2.01-1.972,4.308-3.491,6.351-5.415c4.429-4.168,7.556-10.248,8.66-16.834
			c1.069,0.639,2.139,1.277,3.208,1.918c-4.184,7.002-6.363,15.67-11.397,21.828c-2.035,2.488-4.492,4.506-6.221,7.302
			c-2.636,4.263-14.784,40.972-16.168,54.443"/>
	</g>
	<g>
		<path fill="#812E52" d="M339.769,1182.002c-4.412,1.979-9.28,2.494-13.917,1.477c-2.575-0.565-5.139-1.639-7.118-3.678
			c-1.979-2.038-3.289-5.166-2.941-8.252c0.572-5.074,5.271-8.166,9.573-8.345c-4.053-0.707-7.284-4.573-9.143-8.915
			c-3.589-8.386-2.421-19.949,3.956-25.52c3.9-3.406,8.998-4.17,13.836-4.114c4.839,0.056,9.708,0.812,14.496-0.021
			c-0.751-3.133,0.058-6.723,2.025-8.989c1.967-2.267,5.007-3.113,7.617-2.12c-0.028-3.735,0.803-7.475,2.379-10.705
			c0.496-1.014,1.097-2.015,1.971-2.557c0.837-0.52,1.824-0.554,2.769-0.547c6.392,0.047,12.774,1.449,18.757,4.121
			c1.98,0.884,3.977,1.955,5.416,3.799c2.423,3.105,2.783,7.889,1.815,11.965c-0.968,4.076-3.064,7.621-5.123,11.077
			c3.097-0.418,6.313,1.849,7.494,5.279c1.18,3.431,0.222,7.729-2.233,10.014c5.89,4.116,11.643,9.978,12.886,17.966
			c1.469,9.446-4.4,19.105-12.035,22.24s-16.307,0.656-23.081-4.576c-7.01,7.109-17.579,8.802-25.918,4.148
			c-1.453-0.81-3.012-2.122-3.053-4.029"/>
	</g>
	<path fill="#3F0021" d="M0,989.57c0,0,18.057,10.113,23.016,32.029c4.96,21.914,27.104,112.788,27.104,112.788l-19.352,54.782
		l85.518,35.961l16.4,54.339l107.838,1.989l60.972,52.562H0V989.57z"/>
	<g>
		<g>
			<path fill="#3F0021" d="M218.675,1014.983c12.706,2.05,24.882,8.527,34.636,18.425c2.973,3.017,5.972,7.36,4.855,11.815
				c-0.753,3.005-3.14,4.913-5.082,7.036c-1.941,2.122-3.641,5.407-2.518,8.245c0.531,1.343,1.593,2.263,2.631,3.087
				c10.42,8.271,22.999,13.004,31.662,23.771c3.109,3.865,5.648,9.926,3.084,14.321c-0.979,1.677-2.685,3.171-2.419,5.188
				c0.119,0.899,0.633,1.649,1.171,2.295c2.966,3.552,7.108,5.255,10.681,7.898c3.573,2.644,6.866,7.112,6.241,12.062
				c-0.312,2.471-1.558,4.612-2.789,6.635c-4.052,6.647-8.406,13.147-13.83,18.227c-5.424,5.079-12.047,8.681-18.948,8.798
				c-10.681,0.181-20.075-7.683-29.82-12.883c-1.022-0.546-2.105-1.075-3.225-0.995c-1.455,0.103-2.703,1.201-3.913,2.168
				c-4.082,3.256-9.05,5.465-13.891,4.443c-4.949-1.044-8.943-5.209-13.285-8.219c-1.062-0.738-2.196-1.426-3.423-1.54
				c-1.974-0.185-3.797,1.117-5.55,2.213c-15.559,9.726-34.927,5.281-50.615-4.149c-5.029-3.023-10.137-6.89-12.458-12.999
				c-2.929-7.712,0.005-17.851,6.304-21.784c2.021-1.262,4.313-1.953,6.111-3.625c1.797-1.672,2.934-4.885,1.639-7.121
				c-0.964-1.662-3.1-2.607-3.044-4.625c0.023-0.822,0.441-1.545,0.858-2.199c11.249-17.629,31.493-22.338,47.48-33.658
				c0.659-0.467,1.368-1.035,1.547-1.922c0.323-1.588-1.158-2.75-2.261-3.722c-4.751-4.188-4.817-13.146-1.619-19.062
				c3.198-5.918,8.704-9.424,14.103-12.297c5.247-2.792,10.747-5.264,16.491-5.55"/>
		</g>
		<g>
			<path fill="#3F0021" d="M177.773,1141.814c-0.735,8.497,6.015,38.424,7.258,39.375c7.029,5.379,14.059,10.757,21.088,16.136l0,0
				c6.363-2.712,11.229-2.997,17.895-4.329c3.909-0.781,8.163-1.498,10.941-4.861c1.752-2.121,2.653-5.01,3.466-7.822
				c3.357-11.615,6.034-23.508,8.004-35.565l4.796,11.299c-2.174,9.347-4.35,18.694-6.525,28.04
				c-0.775,3.336-1.584,6.752-3.304,9.542c-3.927,6.366-11.258,7.727-17.665,9.794c-1.868,0.604-3.79,1.359-5.164,2.981
				c-1.062,1.253-1.703,2.914-2.311,4.54c-6.601,17.65-15.422,67.426-19.775,86.036l-25.801-3.195
				c6.876-19.542,21.667-67.051,26.16-87.551c0.045-0.207,0.093-0.415,0.142-0.623c-5.073-4.108-10.147-8.218-15.22-12.327
				c-1.01-0.818-2.05-1.673-2.692-2.91c-0.61-1.174-0.801-2.58-0.977-3.944c-1.955-15.169-3.588-30.396-4.899-45.663
				C175.483,1141.29,175.482,1141.29,177.773,1141.814z"/>
		</g>
		<g>
			<path fill="#3F0021" d="M296.72,1279.596c-7.691-4.428-17.462-3.172-24.181,3.108c-0.445-6.798-5.363-12.513-10.975-13.897
				c-5.613-1.384-11.588,1.097-15.936,5.539c1.161-7.532-2.885-15.322-8.596-18.859c-5.709-3.536-12.653-3.348-18.801-1.076
				c-6.147,2.271-11.658,6.448-17.001,10.719c-1.916,1.53-4.039,4.445-2.595,6.586l-2.092-0.831
				c-0.896,15.394,7.469,30.05,18.534,38.103c11.065,8.055,24.396,10.477,37.364,10.877c12.566,0.387,25.284-0.996,37.208-5.727
				c3.967-1.572,7.906-3.566,11.048-6.846c3.143-3.281,5.412-8.037,5.261-13.007C305.764,1287.861,301.584,1282.396,296.72,1279.596
				z"/>
		</g>
		<g>
			<path fill="#3F0021" d="M132.175,1254.873c4.262-6.113,11.427-9.646,17.856-7.507c5.027,1.673,8.89,6.346,12.443,10.894
				c-0.835-3.897,1.617-8.096,4.842-9.303s6.845,0.138,9.476,2.663c2.632,2.524,4.416,6.084,5.858,9.722l0,0
				c4.855,6.592,3.524,13.628,1.247,21.962c-2.276,8.335-8.056,15.086-14.965,18.129c-4.705,2.073-9.839,2.519-14.827,2.224
				c-3.698-0.219-7.371-0.91-10.951-2.033c-4.314-1.354-8.698-3.413-11.75-7.318c-3.536-4.524-4.826-10.963-4.961-17.139
				C126.27,1269.228,127.913,1260.986,132.175,1254.873z"/>
		</g>
		<g>
			<path fill="#531331" d="M312.051,1231.242c3.953-8.887,5.169-19.449,3.373-29.273c3.708,3.117,5.99,8.193,7.097,13.433
				c1.106,5.239,1.156,10.7,1.2,16.102c3.934-4.06,7.213-9.017,9.605-14.519c0.231,8.9-2.708,17.855-7.945,24.218
				c3.482-0.853,7.027-1.343,10.581-1.464c-3.069,2.852-6.137,5.703-9.207,8.555l-21.402-1.356c3.024-2.808,4.39-7.628,4.198-12.185
				c-0.192-4.557-1.762-8.887-3.724-12.807C308.851,1223.859,311.16,1227.309,312.051,1231.242z"/>
		</g>
		<g>
			<path fill="#531331" d="M352.272,1270.685c3.988-5.097,9.522-8.448,15.332-9.286c-2.558-2.176-5.869-2.797-9.002-2.466
				c-3.133,0.331-6.147,1.536-9.128,2.73c1.337-3.985,3.317-7.665,5.799-10.78c-4.947,1.848-9.204,6.172-11.512,11.695
				c-0.324-2.903-0.86-5.773-1.603-8.566c-0.87,3.037-1.739,6.074-2.609,9.111l5.617,16.347c0.856-2.992,3.196-5.153,5.746-6.04
				c2.55-0.887,5.289-0.65,7.891-0.017C357.062,1271.496,354.64,1270.483,352.272,1270.685z"/>
		</g>
	</g>
	<g>
		<g>
			<path fill="#531331" d="M86.341,917.441c-0.651-1.027-1.516-1.877-2-3.028c-0.486-1.151-0.425-2.802,0.512-3.448
				c0.696-0.48,1.773-0.369,2.093-1.248c0.13-0.357,0.074-0.769,0.006-1.15c-0.774-4.383-2.654-8.152-4.935-11.713
				c0.79-1.225,1.351-2.643,1.537-4.166c0.534-4.359-2.562-8.853-6.261-9.085c1.795-1.843,2.521-4.852,2.341-7.663
				c-0.18-2.812-1.16-5.465-2.309-7.932c-1.125-2.414-2.441-4.731-4.139-6.613c-3.042-3.375-7.166-5.152-11.307-5.63
				c-3.684-0.425-7.398,0.117-11.021,1.052c-2.154,0.405-4.285,1.004-6.371,1.762c-2.239,0.813-4.484,1.842-6.257,3.662
				c-1.772,1.821-3.012,4.575-2.729,7.341c-3.522-1.933-7.856-0.3-10.714,2.818c-1.838,2.005-3.265,4.739-3.319,7.706
				c-0.011,0.635,0.042,1.262,0.151,1.876c-1.587,0.387-3.268,0.255-4.894,0.477c-1.982,0.271-4.157,1.392-4.732,3.665
				c-0.288,1.133-0.119,2.352,0.064,3.517c0.604,3.827,1.361,7.665,2.819,11.151c1.459,3.486,3.684,6.629,6.622,8.345
				c4.548,2.655,9.916,1.552,14.981,1.675c0.532,0.013,1.086,0.047,1.552,0.352c0.605,0.395,0.953,1.167,1.308,1.873
				c1.194,2.382,2.947,4.527,5.196,5.258c2.299,0.746,4.723-0.074,7.097-0.317c0.582-0.06,1.186-0.081,1.73,0.167
				c0.878,0.396,1.437,1.395,2.002,2.287c5.011,7.926,14.071,10.694,22.405,10.438c2.672-0.082,5.521-0.506,7.558-2.565
				C87.899,925.703,88.371,920.648,86.341,917.441z"/>
		</g>
		<g>
			<path fill="#531331" d="M41.53,950.078c0.031-0.095,12.646-30.382,12.646-30.382c0.17-2.919,0.217-6.631,0.115-10.492
				c-3.44,6.782-6.774,13.71-11.126,19.656c0.405-13.569,2.315-26.851,4.434-40.091c-3.327,4.576-8.073,20.446-14.641,56.727
				c-1.621,8.957-7.512,27.53-10.167,36.129l11.312-2.755C36.003,969.08,38.488,959.451,41.53,950.078z"/>
		</g>
		<g>
			<path fill="#531331" d="M40.635,981.435c1.954-4.687,5.334-8.507,9.367-10.591c-2.234-0.916-4.729-0.52-6.925,0.518
				s-4.15,2.672-6.08,4.292c0.245-3.21,1.007-6.364,2.233-9.238c-3.229,2.59-5.515,6.788-6.181,11.353
				c-0.756-2.008-1.66-3.938-2.697-5.76c-0.08,2.408-0.159,4.816-0.238,7.225l6.987,10.338c0.078-2.373,1.374-4.524,3.049-5.812
				c1.677-1.289,3.69-1.816,5.678-2.022C44.229,980.799,42.303,980.688,40.635,981.435z"/>
		</g>
	</g>
	<g>
		<g>
			<path fill="#812E52" d="M901.829,1144.502c-3.059-4.511-8.002-7.117-12.866-6.784c1.924-1.628,3.701-3.5,5.293-5.573
				c0.543-0.706,1.087-1.502,1.159-2.453c0.106-1.416-0.851-2.603-1.764-3.518c-7.902-7.897-18.562-11.757-28.821-10.435
				c0.706-2.315-0.095-5.114-1.766-6.536c-0.845-2.726-2.588-5.187-4.685-6.736c-3.686-2.727-8.174-3.318-12.492-3.844
				c-1.574-0.191-3.188-0.38-4.719,0.094c-1.714,0.529-3.176,1.843-4.533,3.196c-3.127,3.118-5.985,6.62-8.514,10.431
				c-1.122,1.689-2.202,3.498-2.631,5.59c-0.429,2.09-0.074,4.536,1.302,5.932c1.222,1.237,3.361,2.274,2.849,4.084
				c-0.146,0.517-0.503,0.902-0.847,1.264c-4.438,4.664-8.877,9.329-13.316,13.994c-2.217,2.328-4.547,4.873-5.256,8.287
				c-0.711,3.414,1.114,7.771,4.07,7.771c-2.804,0.646-5.498,1.958-7.879,3.833c-0.736,0.579-1.464,1.239-1.891,2.156
				c-0.426,0.915-0.512,1.999-0.51,3.046c0.015,7.678,4.487,14.779,10.336,18.025c5.85,3.244,12.79,2.973,18.878,0.422
				c6.088-2.552,11.409-7.213,16.102-12.484c0.398-0.447,0.838-0.925,1.384-0.983c0.744-0.08,1.357,0.63,1.931,1.202
				c2.477,2.475,6.213,2.991,9.101,1.26s4.762-5.611,4.562-9.451c5.352,3.457,11.787,4.212,17.741,2.703
				c5.954-1.508,11.436-5.179,16.008-9.961c1.84-1.924,3.638-4.248,3.951-7.139C904.296,1149.232,903.246,1146.592,901.829,1144.502
				z"/>
		</g>
		<g>
			<path fill="#3F0021" d="M871.438,1213.087c-0.762-1.694-1.619-3.359-2.023-5.219c-0.442-2.03-0.318-4.167-0.19-6.259
				c0.765-12.415,1.631-24.821,2.6-37.217l-5.442-2.807c-1.417,11.244-2.835,22.488-4.252,33.732
				c-0.221-0.095-0.469-0.119-0.707-0.134c-5.173-0.335-10.342-0.818-15.497-1.451c-0.574-0.071-1.18-0.155-1.648-0.558
				c-0.509-0.436-0.769-1.164-1.003-1.854c-1.949-5.724-3.897-11.447-5.848-17.171l-1.874,0.101
				c1.553,8.232,3.353,16.399,5.398,24.478c0.097,0.378,0.197,0.768,0.409,1.07c0.516,0.738,1.453,0.717,2.257,0.65
				c5.916-0.489,11.888,0.012,17.691,1.467c-0.102,0.936-0.163,1.875-0.081,2.811c0.108,1.215,0.455,2.379,0.797,3.529
				c3.972,13.336,7.943,26.671,11.914,40.006c3.057-0.401,6.028-1.668,8.604-3.665c-2.559-7.476-5.12-14.95-7.681-22.427
				C873.81,1219.096,872.753,1216.015,871.438,1213.087z"/>
		</g>
	</g>
	<g>
		<g>
			<path fill="#3F0021" d="M1038.955,996.65c-9.073-9.408-21.256-13.869-33.293-13.99c2.177-4.316,2.075-10.112-0.246-14.32
				c-2.323-4.209-6.754-6.621-10.95-5.963c6.552-5.606,7.065-17.787,2.806-25.941c-4.259-8.154-11.974-12.857-19.702-15.625
				c-9.565-3.426-20.577-4.246-28.959,2.215c-11.308,8.717-13.755,26.823-15.138,42.767c-7.967-2.483-17.135-1.231-23.314,5.245
				c-6.179,6.476-8.139,18.73-2.998,26.383c-20.35-1.297-42.029,12.761-48.058,35.917c-2.346,9.008-2.077,19.511,2.675,27.06
				c3.825,6.076,10.076,9.484,16.384,10.631c6.31,1.146,24.273-0.464,30.589-1.555c0,0,10.158,22.412,47.386,17.983
				c30.247-3.599,35.289-16.185,35.289-16.185s29.049,10.039,43.858-4.797C1042.082,1059.662,1067.547,1026.299,1038.955,996.65z"/>
		</g>
		<g>
			<path fill="#3F0021" d="M1004.982,1059.49c-2.151,18.711-4.305,37.422-6.458,56.134c-0.645,5.603-1.33,11.354-3.645,16.296
				c-2.212,4.721-5.74,8.336-9.196,11.845c-7.261,7.371-14.521,14.742-21.779,22.112c-4.053-34.593-3.521-69.948,1.791-104.302
				l-7.393,9.89c-1.726,15.676-3.455,31.352-5.181,47.027c-0.354,3.219-0.706,6.441-1.022,9.669
				c-0.531-0.774-1.506-1.079-2.37-1.302c-6.117-1.568-11.984-4.513-17.198-8.632c-0.899-0.712-1.815-1.505-2.301-2.653
				c-0.451-1.072-0.471-2.32-0.481-3.521c-0.154-18.346-0.31-36.69-0.464-55.036l-11.426-10.593
				c2.325,24.433,3.338,49.04,3.031,73.626c-0.021,1.649-0.033,3.376,0.601,4.844c0.684,1.584,2.01,2.61,3.295,3.523
				c8.06,5.717,16.901,9.871,26.069,12.248c0.15-0.969,0.297-1.938,0.446-2.907c-0.273,4.262-0.424,8.53-0.352,12.806
				c0.208,12.611,2.276,25.057,4.007,37.5c3.188,22.917,5.245,46.057,6.157,69.26c8.299-0.264,16.598-0.528,24.896-0.792
				c-9.066-23.601-15.677-48.507-19.784-73.987c9.581-11.072,19.163-22.145,28.744-33.216c2.318-2.681,4.688-5.441,6.057-8.926
				c1.213-3.087,1.562-6.538,1.894-9.923c2.602-26.516,5.202-53.031,7.804-79.546L1004.982,1059.49z"/>
		</g>
	</g>
	<path fill="#3F0021" d="M1129.048,1101.96l-0.669,42.075l-94.145,73.154v32.95l-295.454,33.948c0,0-5.137,1.073-13.562,8.854
		l-50.834,46.942h69.891h68.496h57.906h328.193v-320.032L1129.048,1101.96z"/>
	<g>
		<path fill="#531331" d="M728.312,1285.155c-0.816-4.36-2.177-8.575-4.026-12.463c3.803,2.419,7.165,5.807,9.798,9.868
			c-0.205-10.487-4.501-20.222-6.062-30.546c3.751,3.887,6.25,9.25,7.846,14.854s2.352,11.487,3.099,17.336
			c0.406-6.502,0.86-13.199,3.337-19.016c0.17,5.602,0.607,11.192,1.308,16.736c0.485-4.359,2.174-8.516,4.745-11.675
			c-0.744,6.315-1.06,12.701-0.947,19.076"/>
	</g>
	<g>
		<g>
			<path fill="#531331" d="M767.598,1264.643c-1.621-0.584-3.242-1.168-4.863-1.752c-0.382-0.138-0.78-0.288-1.055-0.631
				c-0.217-0.273-0.334-0.637-0.441-0.989c-0.602-1.96-1.207-3.919-1.81-5.878c1.339-0.26,2.637-0.816,3.808-1.631
				c-1.506-0.643-3.625-0.908-5.131-1.551c0,0-10.215-15.251-15.229-21.163c3.812,0.595,7.573,1.646,11.211,3.135
				c1.138,0.466,5.376,2.106,5.376,2.106s-0.951,2.578-1.516,3.844c0.915-0.551,1.83-1.102,2.747-1.652
				c0.294-0.177,1.01-0.656,1.01-0.656s0.685,0.723,0.983,1.073c3.541,4.158,6.088,9.337,8.595,14.449
				c0.672,1.372,1.364,3.002,0.867,4.476c0.735,0.255,1.539,0.236,2.267-0.052c1.29,4.822,1.938,9.886,1.916,14.946
				c-2.229-3.6-5.289-6.462-8.755-8.19"/>
		</g>
		<g>
			<path fill="#531331" d="M773.466,1265.502c2.829,6.24,4.777,13.046,5.735,20.045"/>
		</g>
		<g>
			<path fill="#531331" d="M775.018,1221.326c-1.108,1.9-2.188,7.012-2.611,9.27c0.656,0.6,1.27,1.266,1.831,1.988
				c-0.837,0.297-1.724,0.398-2.594,0.296c-0.103,2.315-0.202,4.63-0.304,6.945c-0.049,1.15-0.005,4.474-0.005,4.474
				s1.368,0.996,2.336,1.031c-0.636,0.377-1.271,0.754-1.907,1.131c1.077,5.489,2.848,10.785,5.232,15.656
				c1.839-3.434,3.561-11.359,3.561-11.359l0.705-3.519l-2.061-2.093h2.438C783.151,1237.201,780.447,1226.289,775.018,1221.326"/>
		</g>
		<g>
			<path fill="#531331" d="M777.474,1241.041c-0.145,2.248-0.288,4.496-0.433,6.745c-0.316,4.915-0.634,9.838-0.559,14.767
				c0.103,6.734,0.943,13.453,2.489,19.933"/>
		</g>
		<g>
			<path fill="#531331" d="M778.707,1281.797c1.471-8.805,4.311-17.283,8.331-24.879c2.746-5.187,6.086-10.016,10.284-13.57"/>
		</g>
		<g>
			<path fill="#531331" d="M800.172,1251.209c2.429-4.137,4.565-8.551,6.66-12.911c-2.578-0.312-5.156,0.104-7.63,1.011
				c-0.298,0.893-0.64,1.784-0.265,2.677c-0.337-0.8-0.485-1.597-0.767-2.267c-2.081,0.886-4.076,2.102-5.917,3.508
				c-2.032,1.551-3.94,3.35-5.479,5.523c-0.368,0.523-0.711,1.07-1.034,1.631c0.392,0.934,1.04,1.867,1.431,2.8
				c-0.815,0-1.632-0.339-2.447-0.779c-0.38,0.851-0.723,1.723-0.996,2.625c-1.204,3.977-2.392,10.021-2.264,14.226l0.295,0.839
				c3.077-2.034,6.168-4.079,8.941-6.628c0.105-0.097,0.204-0.199,0.309-0.298c-0.305-0.728-0.7-1.352-0.308-2.288
				c0,1.074,0.615,1.232,1.216,1.412c2.706-2.719,5.033-5.861,7.133-9.23c-0.882-0.443-1.46-1.977-2.466-1.977
				C797.78,1251.082,798.977,1250.763,800.172,1251.209z"/>
		</g>
	</g>
</g>
<g>
	<path fill="#B34070" d="M792.327,903.969c-37.129,14.509-144.097,90.401-204.212,93.75
		c-59.855,3.334-244.16-143.809-285.888-156.092c0,0,234.821,198.369,294.677,195.035c60.114-3.349,142.702-82.013,176.3-105.76
		c9.718-6.87,36.047-29.908,36.047-29.908C804.151,900.706,798.565,901.531,792.327,903.969z"/>
</g>
<g>
	<g>
		<path fill="#631F3D" d="M1055.385,738.9c8.671-12.386,25.264-37.711,25.264-50.117c0-16.793-13.613-30.407-30.407-30.407
			c-16.793,0-30.406,13.614-30.406,30.407c0,12.406,16.594,37.731,25.264,50.117H1055.385z"/>
		<rect x="1044.527" y="744.989" fill="#631F3D" width="11.032" height="7.18"/>
	</g>
	<g>
		<path fill="#812E52" d="M961.618,795.985c6.025-8.608,17.559-26.207,17.559-34.83c0-11.67-9.461-21.131-21.132-21.131
			s-21.132,9.461-21.132,21.131c0,8.623,11.532,26.222,17.558,34.83H961.618z"/>
		<rect x="954.073" y="800.217" fill="#812E52" width="7.667" height="4.989"/>
	</g>
</g>
<g>
	<g>
		<path fill="#FFFF33" d="M733.607,219.14c0.118-0.359-0.386-0.348-0.263,0.006"/>
		<g>
			<path fill="#FFFFFF" d="M735.42,219.639c0.108-0.582,0.116-1.158-0.218-1.672c-0.384-0.594-1.012-0.971-1.728-0.971
				c-1.443,0-2.204,1.353-1.942,2.649c0.203,1.005,1.377,1.57,2.312,1.313c1.038-0.286,1.516-1.309,1.312-2.312
				c-0.007-0.032-0.013-0.064-0.02-0.096c0,0.333,0,0.666,0,0.999c-0.048,0.106-0.097,0.213-0.146,0.32
				c-0.225,0.225-0.449,0.45-0.674,0.674c-0.115,0.048-0.229,0.096-0.345,0.145c-0.333,0-0.666,0-0.999,0
				c-0.114-0.05-0.229-0.1-0.344-0.149c-0.225-0.225-0.449-0.449-0.675-0.674c-0.048-0.107-0.096-0.214-0.144-0.322
				c0-0.333,0-0.666,0-0.999c-0.006,0.032-0.012,0.064-0.018,0.097c-0.188,1.006,0.264,2.023,1.312,2.312
				C734.031,221.207,735.232,220.647,735.42,219.639L735.42,219.639z"/>
		</g>
	</g>
	<g>
		<path fill="#FFFF33" d="M740.258,150.163c-0.121,0.232-0.244,0.465-0.366,0.697"/>
		<g>
			<path fill="#FFFFFF" d="M738.635,149.214c-0.121,0.232-0.244,0.465-0.366,0.697c-0.478,0.907-0.238,2.037,0.675,2.572
				c0.854,0.5,2.095,0.231,2.571-0.674c0.122-0.232,0.245-0.465,0.366-0.697c0.475-0.908,0.24-2.036-0.674-2.572
				C740.354,148.041,739.109,148.307,738.635,149.214L738.635,149.214z"/>
		</g>
	</g>
	<g>
		<path fill="#FFFF33" d="M756.015,114.596c-0.122-0.233-0.245-0.465-0.366-0.697"/>
		<g>
			<path fill="#FFFFFF" d="M757.638,113.647c-0.122-0.232-0.244-0.465-0.366-0.697c-0.475-0.907-1.719-1.174-2.572-0.674
				c-0.913,0.535-1.149,1.664-0.674,2.572c0.122,0.232,0.244,0.465,0.366,0.697c0.476,0.906,1.719,1.174,2.571,0.674
				C757.876,115.685,758.114,114.555,757.638,113.647L757.638,113.647z"/>
		</g>
	</g>
	<g>
		<path fill="#FFFF33" d="M779.467,138.309c0-0.233,0-0.465,0-0.698"/>
		<g>
			<path fill="#FFFFFF" d="M781.347,138.309c0-0.233,0-0.465,0-0.698c0-1.024-0.855-1.88-1.88-1.88s-1.88,0.855-1.88,1.88
				c0,0.233,0,0.465,0,0.698c0,1.024,0.855,1.88,1.88,1.88S781.347,139.333,781.347,138.309L781.347,138.309z"/>
		</g>
	</g>
	<g>
		<path fill="#FFFF33" d="M757.094,279.183c-0.012-0.697-0.023-1.393-0.037-2.088"/>
		<g>
			<path fill="#FFFFFF" d="M758.974,279.183c-0.012-0.696-0.023-1.392-0.037-2.088c-0.021-1.024-0.84-1.88-1.88-1.88
				c-1.01,0-1.899,0.855-1.88,1.88c0.014,0.696,0.025,1.392,0.037,2.088c0.018,1.024,0.842,1.88,1.88,1.88
				C758.105,281.062,758.99,280.208,758.974,279.183L758.974,279.183z"/>
		</g>
	</g>
	<g>
		<path fill="#FFFF33" d="M742.456,321.026c-0.121-0.233-0.244-0.466-0.366-0.699"/>
		<g>
			<path fill="#FFFFFF" d="M744.079,320.078c-0.122-0.233-0.244-0.466-0.366-0.699c-0.476-0.906-1.719-1.174-2.572-0.674
				c-0.913,0.535-1.15,1.665-0.674,2.572c0.122,0.233,0.244,0.465,0.366,0.699c0.474,0.908,1.72,1.173,2.571,0.674
				C744.319,322.114,744.553,320.986,744.079,320.078L744.079,320.078z"/>
		</g>
	</g>
	<g>
		<path fill="#FFFF33" d="M708.013,236.641C707.709,236.641,707.709,236.641,708.013,236.641"/>
		<g>
			<path fill="#FFFFFF" d="M708.013,238.521c2.425,0,2.425-3.76,0-3.76S705.588,238.521,708.013,238.521L708.013,238.521z"/>
		</g>
	</g>
	<g>
		<path fill="#FFFF33" d="M676.499,236.641c-0.122,0-0.243,0-0.367,0"/>
		<g>
			<path fill="#FFFFFF" d="M676.499,234.761c-0.122,0-0.245,0-0.367,0c-1.024,0-1.88,0.855-1.88,1.88s0.855,1.88,1.88,1.88
				c0.122,0,0.245,0,0.367,0c1.024,0,1.88-0.855,1.88-1.88S677.523,234.761,676.499,234.761L676.499,234.761z"/>
		</g>
	</g>
	<g>
		<path fill="#FFFF33" d="M675.033,297.314C675.033,296.739,675.033,296.739,675.033,297.314"/>
		<g>
			<path fill="#FFFFFF" d="M676.913,297.314c0-0.144,0-0.288,0-0.432c0-2.424-3.76-2.424-3.76,0c0,0.144,0,0.288,0,0.432
				C673.153,299.738,676.913,299.738,676.913,297.314c0-0.144,0-0.288,0-0.432c0-2.424-3.76-2.424-3.76,0c0,0.144,0,0.288,0,0.432
				C673.153,299.738,676.913,299.738,676.913,297.314L676.913,297.314z"/>
		</g>
	</g>
	<g>
		<path fill="#FFFF33" d="M631.062,259.655c0.121-0.232,0.244-0.465,0.365-0.697"/>
		<g>
			<path fill="#FFFFFF" d="M632.686,260.604c0.122-0.232,0.243-0.465,0.365-0.697c0.475-0.908,0.24-2.036-0.674-2.572
				c-0.853-0.5-2.098-0.233-2.572,0.674c-0.122,0.232-0.243,0.465-0.365,0.697c-0.475,0.908-0.24,2.036,0.674,2.572
				C630.966,261.778,632.211,261.511,632.686,260.604L632.686,260.604z"/>
		</g>
	</g>
	<g>
		<path fill="#FFFF33" d="M607.977,210.14"/>
		<g>
			<path fill="#FFFFFF" d="M607.977,212.02c2.424,0,2.424-3.76,0-3.76S605.553,212.02,607.977,212.02L607.977,212.02z"/>
		</g>
	</g>
	<g>
		<path fill="#FFFF33" d="M663.308,156.44c-0.122-0.232-0.244-0.464-0.365-0.698"/>
		<g>
			<path fill="#FFFFFF" d="M664.931,155.491c-0.122-0.232-0.244-0.465-0.365-0.698c-0.472-0.908-1.721-1.173-2.571-0.674
				c-0.916,0.537-1.147,1.663-0.675,2.572c0.121,0.233,0.243,0.465,0.365,0.698c0.477,0.906,1.718,1.174,2.571,0.674
				C665.169,157.528,665.407,156.398,664.931,155.491L664.931,155.491z"/>
		</g>
	</g>
	<g>
		<path fill="#FFFF33" d="M596.984,318.934c-0.124,0-0.245,0-0.367,0"/>
		<g>
			<path fill="#FFFFFF" d="M596.984,317.054c-0.122,0-0.245,0-0.367,0c-1.025,0-1.88,0.855-1.88,1.88s0.855,1.88,1.88,1.88
				c0.122,0,0.245,0,0.367,0c1.024,0,1.88-0.855,1.88-1.88S598.009,317.054,596.984,317.054L596.984,317.054z"/>
		</g>
	</g>
	<g>
		<path fill="#FFFF33" d="M654.879,391.463c-0.121,0-0.244,0-0.365,0"/>
		<g>
			<path fill="#FFFFFF" d="M654.879,389.583c-0.122,0-0.243,0-0.365,0c-1.024,0-1.88,0.855-1.88,1.88s0.855,1.88,1.88,1.88
				c0.122,0,0.243,0,0.365,0c1.024,0,1.88-0.855,1.88-1.88S655.903,389.583,654.879,389.583L654.879,389.583z"/>
		</g>
	</g>
	<g>
		<path fill="#FFFF33" d="M833.339,441.611c-0.24,0-0.479,0-0.719,0"/>
		<g>
			<path fill="#FFFFFF" d="M833.339,439.731c-0.239,0-0.479,0-0.719,0c-1.024,0-1.88,0.855-1.88,1.88s0.855,1.88,1.88,1.88
				c0.239,0,0.479,0,0.719,0c1.024,0,1.88-0.855,1.88-1.88S834.363,439.731,833.339,439.731L833.339,439.731z"/>
		</g>
	</g>
	<g>
		<path fill="#FFFF33" d="M907.27,351.449"/>
		<g>
			<path fill="#FFFFFF" d="M907.27,353.329c2.424,0,2.424-3.76,0-3.76S904.846,353.329,907.27,353.329L907.27,353.329z"/>
		</g>
	</g>
	<g>
		<path fill="#FFFF33" d="M985.514,360.9c-0.238-0.05-0.475-0.099-0.71-0.149"/>
		<g>
			<path fill="#FFFFFF" d="M986.014,359.088c-0.237-0.049-0.474-0.099-0.71-0.149c-1.002-0.211-2.028,0.281-2.312,1.313
				c-0.259,0.941,0.31,2.101,1.312,2.312c0.237,0.05,0.474,0.1,0.71,0.149c1.002,0.209,2.028-0.279,2.312-1.313
				C987.585,360.459,987.017,359.297,986.014,359.088L986.014,359.088z"/>
		</g>
	</g>
	<g>
		<path fill="#FFFF33" d="M826.879,213.475C826.285,213.475,826.285,213.475,826.879,213.475"/>
		<g>
			<path fill="#FFFFFF" d="M826.879,211.595c-0.148,0-0.297,0-0.445,0c-2.424,0-2.424,3.76,0,3.76c0.148,0,0.297,0,0.445,0
				C829.303,215.354,829.303,211.595,826.879,211.595c-0.148,0-0.297,0-0.445,0c-2.424,0-2.424,3.76,0,3.76c0.148,0,0.297,0,0.445,0
				C829.303,215.354,829.303,211.595,826.879,211.595L826.879,211.595z"/>
		</g>
	</g>
	<g>
		<path fill="#FFFF33" d="M882.147,191.617C881.554,191.617,881.554,191.617,882.147,191.617"/>
		<g>
			<path fill="#FFFFFF" d="M882.147,189.737c-0.148,0-0.297,0-0.445,0c-2.425,0-2.425,3.76,0,3.76c0.148,0,0.297,0,0.445,0
				C884.572,193.497,884.572,189.737,882.147,189.737c-0.148,0-0.297,0-0.445,0c-2.425,0-2.425,3.76,0,3.76c0.148,0,0.297,0,0.445,0
				C884.572,193.497,884.572,189.737,882.147,189.737L882.147,189.737z"/>
		</g>
	</g>
	<g>
		<path fill="#FFFF33" d="M810.369,65.938c-0.239-0.455-0.479-0.911-0.718-1.366"/>
		<g>
			<path fill="#FFFFFF" d="M811.992,64.989c-0.239-0.455-0.479-0.911-0.718-1.366c-0.477-0.906-1.718-1.175-2.571-0.674
				c-0.913,0.535-1.152,1.665-0.675,2.572c0.239,0.455,0.479,0.911,0.718,1.366c0.477,0.906,1.718,1.174,2.572,0.674
				C812.23,67.026,812.469,65.896,811.992,64.989L811.992,64.989z"/>
		</g>
	</g>
	<g>
		<path fill="#FFFF33" d="M837.646,55.009"/>
		<g>
			<path fill="#FFFFFF" d="M837.646,56.889c2.425,0,2.425-3.76,0-3.76S835.221,56.889,837.646,56.889L837.646,56.889z"/>
		</g>
	</g>
	<g>
		<path fill="#FFFF33" d="M783.094,72.768"/>
		<g>
			<path fill="#FFFFFF" d="M783.094,74.647c2.424,0,2.424-3.759,0-3.759S780.67,74.647,783.094,74.647L783.094,74.647z"/>
		</g>
	</g>
	<g>
		<path fill="#FFFF33" d="M799.603,0.366"/>
		<g>
			<path fill="#FFFFFF" d="M799.603,2.246c2.425,0,2.425-3.759,0-3.759S797.178,2.246,799.603,2.246L799.603,2.246z"/>
		</g>
	</g>
	<g>
		<path fill="#FFFF33" d="M833.339,26.321c-0.24,0-0.479,0-0.719,0"/>
		<g>
			<path fill="#FFFFFF" d="M833.339,24.442c-0.239,0-0.479,0-0.719,0c-1.024,0-1.88,0.854-1.88,1.879s0.855,1.879,1.88,1.879
				c0.239,0,0.479,0,0.719,0c1.024,0,1.88-0.854,1.88-1.879S834.363,24.442,833.339,24.442L833.339,24.442z"/>
		</g>
	</g>
	<g>
		<path fill="#FFFF33" d="M875.687,30.419c-0.238,0.456-0.478,0.91-0.718,1.366"/>
		<g>
			<path fill="#FFFFFF" d="M874.063,29.471c-0.238,0.456-0.478,0.911-0.718,1.366c-0.478,0.907-0.238,2.038,0.674,2.572
				c0.854,0.5,2.096,0.231,2.572-0.674c0.24-0.455,0.479-0.911,0.718-1.366c0.475-0.908,0.24-2.036-0.675-2.572
				C875.783,28.297,874.538,28.564,874.063,29.471L874.063,29.471z"/>
		</g>
	</g>
	<g>
		<path fill="#FFFF33" d="M890.042,76.867c0-0.455,0-0.912,0-1.367"/>
		<g>
			<path fill="#FFFFFF" d="M891.922,76.867c0-0.456,0-0.912,0-1.367c0-1.024-0.855-1.88-1.88-1.88s-1.88,0.855-1.88,1.88
				c0,0.456,0,0.912,0,1.367c0,1.024,0.855,1.88,1.88,1.88S891.922,77.891,891.922,76.867L891.922,76.867z"/>
		</g>
	</g>
	<g>
		<path fill="#FFFF33" d="M904.398,117.85C904.398,116.721,904.398,116.721,904.398,117.85"/>
		<g>
			<path fill="#FFFFFF" d="M906.278,117.85c0-0.282,0-0.564,0-0.847c0-2.424-3.76-2.424-3.76,0c0,0.282,0,0.564,0,0.847
				C902.519,120.274,906.278,120.274,906.278,117.85c0-0.282,0-0.564,0-0.847c0-2.424-3.76-2.424-3.76,0c0,0.282,0,0.564,0,0.847
				C902.519,120.274,906.278,120.274,906.278,117.85L906.278,117.85z"/>
		</g>
	</g>
	<g>
		<path fill="#FFFF33" d="M948.9,7.196c-0.239,0-0.479,0-0.718,0"/>
		<g>
			<path fill="#FFFFFF" d="M948.9,5.316c-0.239,0-0.479,0-0.718,0c-1.024,0-1.88,0.855-1.88,1.88s0.855,1.88,1.88,1.88
				c0.239,0,0.479,0,0.718,0c1.024,0,1.88-0.855,1.88-1.88S949.925,5.316,948.9,5.316L948.9,5.316z"/>
		</g>
	</g>
	<g>
		<g>
			<path fill="#FFFFFF" d="M982.635,0.879c2.424,0,2.424-3.759,0-3.759S980.211,0.879,982.635,0.879L982.635,0.879z"/>
		</g>
	</g>
	<g>
		<path fill="#FFFF33" d="M982.635,101.456c-0.238,0-0.478,0-0.717,0"/>
		<g>
			<path fill="#FFFFFF" d="M982.635,99.576c-0.239,0-0.478,0-0.717,0c-1.024,0-1.88,0.855-1.88,1.88s0.855,1.88,1.88,1.88
				c0.239,0,0.478,0,0.717,0c1.024,0,1.88-0.855,1.88-1.88S983.659,99.576,982.635,99.576L982.635,99.576z"/>
		</g>
	</g>
	<g>
		<path fill="#FFFF33" d="M1082.405,14.027C1081.813,14.027,1081.813,14.027,1082.405,14.027"/>
		<g>
			<path fill="#FFFFFF" d="M1082.405,12.147c-0.147,0-0.296,0-0.444,0c-2.424,0-2.424,3.76,0,3.76c0.148,0,0.297,0,0.444,0
				C1084.83,15.907,1084.83,12.147,1082.405,12.147c-0.147,0-0.296,0-0.444,0c-2.424,0-2.424,3.76,0,3.76c0.148,0,0.297,0,0.444,0
				C1084.83,15.907,1084.83,12.147,1082.405,12.147L1082.405,12.147z"/>
		</g>
	</g>
	<g>
		<path fill="#FFFF33" d="M1116.143,46.812c0-0.456,0-0.91,0-1.366"/>
		<g>
			<path fill="#FFFFFF" d="M1118.022,46.812c0-0.455,0-0.911,0-1.366c0-1.024-0.855-1.88-1.88-1.88s-1.88,0.855-1.88,1.88
				c0,0.455,0,0.911,0,1.366c0,1.025,0.855,1.879,1.88,1.879S1118.022,47.836,1118.022,46.812L1118.022,46.812z"/>
		</g>
	</g>
	<g>
		<path fill="#FFFF33" d="M1149.855,296.565c-0.351,0.118-0.325-1.28,0.02-1.115"/>
		<g>
			<path fill="#FFFFFF" d="M1149.355,294.752c-0.015,0.002-0.03,0.004-0.045,0.007c0.333,0,0.666,0,0.999,0
				c0.923,1.288,1.302,1.64,1.136,1.057c0.138,0.523,0.04,0.38,0.039,0.173c0.011-0.198-0.003-0.115-0.043,0.251
				c0.005-0.024,0.011-0.049,0.016-0.074c-0.122,0.38-0.361,0.679-0.72,0.896c-0.315,0.086-0.632,0.171-0.948,0.257
				c-0.138-0.02-0.275-0.039-0.414-0.059c0.983,0.286,2.044-0.336,2.312-1.313c0.274-0.999-0.33-2.026-1.312-2.312
				c-1.596-0.464-2.59,0.958-2.65,2.353c-0.021,0.507,0.117,1.013,0.354,1.456c0.459,0.86,1.394,1.066,2.277,0.932
				c1.014-0.155,1.56-1.413,1.312-2.312C1151.373,294.992,1150.368,294.598,1149.355,294.752L1149.355,294.752z"/>
		</g>
	</g>
	<g>
		<path fill="#FFFF33" d="M1076.677,401.986c-0.195-1.047,0.155-2.337,0.718-2.641"/>
		<g>
			<path fill="#FFFFFF" d="M1078.489,401.486c0.072,0.452,0.014-0.072,0.013-0.148c0.001-0.109,0.007-0.219,0.018-0.328
				c-0.035,0.231-0.032,0.24,0.008,0.025c0.024-0.123,0.268-0.691,0.05-0.236c0.109-0.179,0.079-0.155-0.091,0.073
				c0.143-0.144,0.096-0.112-0.143,0.095c0.861-0.55,1.207-1.662,0.674-2.572c-0.503-0.858-1.707-1.226-2.572-0.674
				c-1.587,1.012-1.854,3.051-1.581,4.763c0.161,1.014,1.408,1.562,2.312,1.313C1078.245,403.504,1078.65,402.497,1078.489,401.486
				L1078.489,401.486z"/>
		</g>
	</g>
	<g>
		<path fill="#FFFF33" d="M1128.275,482.659c-0.24-0.911-0.48-1.82-0.722-2.73"/>
		<g>
			<path fill="#FFFFFF" d="M1130.088,482.16c-0.24-0.911-0.48-1.821-0.722-2.73c-0.262-0.99-1.332-1.583-2.312-1.313
				c-0.994,0.273-1.575,1.322-1.312,2.312c0.241,0.91,0.481,1.82,0.722,2.73c0.262,0.99,1.333,1.583,2.312,1.313
				C1129.771,484.198,1130.35,483.149,1130.088,482.16L1130.088,482.16z"/>
		</g>
	</g>
	<g>
		<path fill="#FFFF33" d="M1193.661,426.584c0-0.456,0-0.911,0-1.366"/>
		<g>
			<path fill="#FFFFFF" d="M1195.541,426.584c0-0.456,0-0.911,0-1.366c0-1.024-0.855-1.88-1.88-1.88s-1.88,0.855-1.88,1.88
				c0,0.456,0,0.911,0,1.366c0,1.024,0.855,1.88,1.88,1.88S1195.541,427.609,1195.541,426.584L1195.541,426.584z"/>
		</g>
	</g>
	<g>
		<path fill="#FFFF33" d="M1194.379,553.629c0-0.455,0-0.911,0-1.366"/>
		<g>
			<path fill="#FFFFFF" d="M1196.259,553.629c0-0.456,0-0.911,0-1.366c0-1.025-0.855-1.88-1.88-1.88s-1.88,0.855-1.88,1.88
				c0,0.456,0,0.911,0,1.366c0,1.025,0.855,1.88,1.88,1.88S1196.259,554.654,1196.259,553.629L1196.259,553.629z"/>
		</g>
	</g>
	<g>
		<path fill="#FFFF33" d="M1037.903,595.979c0-0.455,0-0.911,0-1.366"/>
		<g>
			<path fill="#FFFFFF" d="M1039.783,595.979c0-0.456,0-0.911,0-1.366c0-1.025-0.855-1.88-1.88-1.88s-1.88,0.855-1.88,1.88
				c0,0.456,0,0.911,0,1.366c0,1.025,0.855,1.88,1.88,1.88S1039.783,597.003,1039.783,595.979L1039.783,595.979z"/>
		</g>
	</g>
	<g>
		<path fill="#FFFF33" d="M821.136,613.738c0-0.457,0-0.911,0-1.366"/>
		<g>
			<path fill="#FFFFFF" d="M823.016,613.738c0-0.456,0-0.911,0-1.366c0-1.024-0.855-1.88-1.88-1.88s-1.88,0.855-1.88,1.88
				c0,0.456,0,0.911,0,1.366c0,1.024,0.855,1.88,1.88,1.88S823.016,614.762,823.016,613.738L823.016,613.738z"/>
		</g>
	</g>
	<g>
		<path fill="#FFFF33" d="M683.323,529.04"/>
		<g>
			<path fill="#FFFFFF" d="M683.323,530.919c2.425,0,2.425-3.76,0-3.76S680.898,530.919,683.323,530.919L683.323,530.919z"/>
		</g>
	</g>
	<g>
		<path fill="#FFFF33" d="M593.601,493.522c0-0.456,0-0.911,0-1.366"/>
		<g>
			<path fill="#FFFFFF" d="M595.48,493.522c0-0.456,0-0.911,0-1.366c0-1.025-0.855-1.88-1.88-1.88s-1.88,0.855-1.88,1.88
				c0,0.456,0,0.911,0,1.366c0,1.025,0.855,1.88,1.88,1.88S595.48,494.547,595.48,493.522L595.48,493.522z"/>
		</g>
	</g>
	<g>
		<path fill="#FFFF33" d="M447.892,537.236"/>
		<g>
			<path fill="#FFFFFF" d="M447.892,539.116c2.424,0,2.424-3.76,0-3.76S445.468,539.116,447.892,539.116L447.892,539.116z"/>
		</g>
	</g>
	<g>
		<path fill="#FFFF33" d="M401.955,393.798c-0.239,0.455-0.479,0.91-0.718,1.366"/>
		<g>
			<path fill="#FFFFFF" d="M400.332,392.849c-0.239,0.455-0.479,0.911-0.718,1.366c-0.477,0.907-0.239,2.037,0.674,2.572
				c0.854,0.5,2.096,0.232,2.572-0.674c0.239-0.456,0.479-0.911,0.718-1.366c0.477-0.907,0.238-2.037-0.674-2.572
				C402.05,391.675,400.809,391.943,400.332,392.849L400.332,392.849z"/>
		</g>
	</g>
	<g>
		<path fill="#FFFF33" d="M409.85,313.198c-0.239,0-0.479,0-0.717,0"/>
		<g>
			<path fill="#FFFFFF" d="M409.85,311.318c-0.239,0-0.478,0-0.717,0c-1.025,0-1.88,0.855-1.88,1.88s0.855,1.88,1.88,1.88
				c0.239,0,0.478,0,0.717,0c1.024,0,1.88-0.855,1.88-1.88S410.874,311.318,409.85,311.318L409.85,311.318z"/>
		</g>
	</g>
	<g>
		<path fill="#FFFF33" d="M509.62,251.725"/>
		<g>
			<path fill="#FFFFFF" d="M509.62,253.605c2.424,0,2.424-3.76,0-3.76S507.196,253.605,509.62,253.605L509.62,253.605z"/>
		</g>
	</g>
	<g>
		<path fill="#FFFF33" d="M403.39,152c-0.239,0.456-0.478,0.911-0.717,1.366"/>
		<g>
			<path fill="#FFFFFF" d="M401.767,151.052c-0.239,0.456-0.478,0.911-0.717,1.366c-0.477,0.907-0.238,2.037,0.674,2.572
				c0.854,0.5,2.096,0.231,2.572-0.674c0.239-0.456,0.479-0.911,0.717-1.366c0.476-0.908,0.239-2.037-0.674-2.572
				C403.486,149.878,402.242,150.145,401.767,151.052L401.767,151.052z"/>
		</g>
	</g>
	<g>
		<path fill="#FFFF33" d="M399.083,78.233C398.491,78.233,398.491,78.233,399.083,78.233"/>
		<g>
			<path fill="#FFFFFF" d="M399.083,76.353c-0.148,0-0.296,0-0.444,0c-2.424,0-2.424,3.76,0,3.76c0.148,0,0.296,0,0.444,0
				C401.508,80.113,401.508,76.353,399.083,76.353c-0.148,0-0.296,0-0.444,0c-2.424,0-2.424,3.76,0,3.76c0.148,0,0.296,0,0.444,0
				C401.508,80.113,401.508,76.353,399.083,76.353L399.083,76.353z"/>
		</g>
	</g>
	<g>
		<path fill="#FFFF33" d="M280.65,101.456c-0.239,0-0.479,0-0.718,0"/>
		<g>
			<path fill="#FFFFFF" d="M280.65,99.576c-0.239,0-0.479,0-0.718,0c-1.024,0-1.88,0.855-1.88,1.88s0.855,1.88,1.88,1.88
				c0.239,0,0.479,0,0.718,0c1.024,0,1.88-0.855,1.88-1.88S281.675,99.576,280.65,99.576L280.65,99.576z"/>
		</g>
	</g>
	<g>
		<path fill="#FFFF33" d="M299.312,34.518C299.312,35.646,299.312,35.646,299.312,34.518"/>
		<g>
			<path fill="#FFFFFF" d="M297.432,34.518c0,0.282,0,0.564,0,0.846c0,2.425,3.76,2.425,3.76,0c0-0.282,0-0.563,0-0.846
				C301.192,32.094,297.432,32.094,297.432,34.518c0,0.282,0,0.564,0,0.846c0,2.425,3.76,2.425,3.76,0c0-0.282,0-0.563,0-0.846
				C301.192,32.094,297.432,32.094,297.432,34.518L297.432,34.518z"/>
		</g>
	</g>
	<g>
		<path fill="#FFFF33" d="M278.438,326.872c-0.026-0.45-0.052-0.9-0.078-1.351"/>
		<g>
			<path fill="#FFFFFF" d="M280.318,326.872c-0.026-0.45-0.052-0.9-0.078-1.351c-0.059-1.022-0.811-1.88-1.88-1.88
				c-0.98,0-1.938,0.856-1.88,1.88c0.026,0.45,0.052,0.9,0.078,1.351c0.06,1.022,0.81,1.88,1.88,1.88
				C279.418,328.752,280.378,327.896,280.318,326.872L280.318,326.872z"/>
		</g>
	</g>
	<g>
		<path fill="#FFFF33" d="M189.494,26.321c0.479,0,0.957,0,1.436,0"/>
		<g>
			<path fill="#FFFFFF" d="M189.494,28.201c0.479,0,0.957,0,1.436,0c1.025,0,1.88-0.854,1.88-1.879s-0.855-1.879-1.88-1.879
				c-0.479,0-0.957,0-1.436,0c-1.025,0-1.88,0.854-1.88,1.879S188.469,28.201,189.494,28.201L189.494,28.201z"/>
		</g>
	</g>
	<g>
		<path fill="#FFFF33" d="M77.52,71.402c0.239,0,0.479,0,0.719,0"/>
		<g>
			<path fill="#FFFFFF" d="M77.52,73.282c0.24,0,0.479,0,0.719,0c1.024,0,1.88-0.855,1.88-1.88s-0.855-1.88-1.88-1.88
				c-0.24,0-0.479,0-0.719,0c-1.024,0-1.88,0.855-1.88,1.88S76.495,73.282,77.52,73.282L77.52,73.282z"/>
		</g>
	</g>
	<g>
		<path fill="#FFFF33" d="M97.614,231.158c-0.727,0.114-0.73-2.623-0.002-2.514"/>
		<g>
			<path fill="#FFFFFF" d="M97.614,229.278c-0.017,0.001-0.033,0.002-0.049,0.003c0.44,0.007,0.813,0.155,1.117,0.444
				c0.223,0.315,0.287,0.393,0.194,0.233c0.137,0.349,0.174,0.433,0.112,0.253c-0.035-0.103-0.053-0.21-0.071-0.316
				c0.111,0.655,0.036,0.221,0.031,0.054c-0.003-0.121,0.004-0.243,0.014-0.363c-0.05,0.64-0.037,0.25,0.003,0.083
				c0.102-0.421-0.185,0.349-0.06,0.123c-0.253,0.458-0.954,0.753-1.292,0.733c1.024,0.063,1.88-0.903,1.88-1.88
				c0-1.072-0.857-1.817-1.88-1.88c-3.279-0.202-3.264,6.497,0.002,6.274c1.022-0.07,1.88-0.802,1.88-1.88
				C99.494,230.186,98.638,229.208,97.614,229.278L97.614,229.278z"/>
		</g>
	</g>
	<g>
		<path fill="#FFFF33" d="M0,363.744c0-0.456,0-0.911,0-1.366"/>
		<g>
			<path fill="#FFFFFF" d="M1.88,363.744c0-0.455,0-0.911,0-1.366c0-1.024-0.855-1.88-1.88-1.88s-1.88,0.855-1.88,1.88
				c0,0.455,0,0.911,0,1.366c0,1.025,0.855,1.88,1.88,1.88S1.88,364.769,1.88,363.744L1.88,363.744z"/>
		</g>
	</g>
	<g>
		<path fill="#FFFF33" d="M48.091,477.127c-0.239-0.455-0.479-0.91-0.718-1.365"/>
		<g>
			<path fill="#FFFFFF" d="M49.714,476.179c-0.239-0.455-0.479-0.91-0.718-1.365c-0.477-0.906-1.718-1.174-2.572-0.674
				c-0.913,0.535-1.151,1.665-0.674,2.572c0.239,0.455,0.479,0.91,0.718,1.365c0.477,0.906,1.718,1.174,2.572,0.674
				C49.953,478.216,50.191,477.085,49.714,476.179L49.714,476.179z"/>
		</g>
	</g>
	<g>
		<path fill="#FFFF33" d="M17.148,613.66c0.243-0.906,0.485-1.813,0.728-2.72"/>
		<g>
			<path fill="#FFFFFF" d="M18.961,614.159c0.243-0.906,0.485-1.813,0.728-2.72c0.265-0.989-0.321-2.039-1.313-2.312
				c-0.982-0.271-2.047,0.324-2.312,1.313c-0.243,0.906-0.485,1.813-0.728,2.72c-0.265,0.989,0.32,2.039,1.313,2.312
				C17.631,615.743,18.696,615.148,18.961,614.159L18.961,614.159z"/>
		</g>
	</g>
	<g>
		<path fill="#FFFF33" d="M106.949,732.588c-0.239-0.457-0.479-0.912-0.719-1.367"/>
		<g>
			<path fill="#FFFFFF" d="M108.572,731.639c-0.239-0.455-0.479-0.91-0.719-1.365c-0.478-0.906-1.717-1.176-2.572-0.676
				c-0.912,0.535-1.152,1.666-0.674,2.572c0.24,0.455,0.479,0.91,0.719,1.365c0.476,0.908,1.719,1.176,2.572,0.676
				C108.811,733.676,109.048,732.547,108.572,731.639L108.572,731.639z"/>
		</g>
	</g>
	<g>
		<path fill="#FFFF33" d="M205.285,515.38c0-0.455,0-0.911,0-1.366"/>
		<g>
			<path fill="#FFFFFF" d="M207.165,515.38c0-0.455,0-0.911,0-1.366c0-1.024-0.855-1.88-1.88-1.88s-1.88,0.855-1.88,1.88
				c0,0.455,0,0.911,0,1.366c0,1.025,0.855,1.88,1.88,1.88S207.165,516.405,207.165,515.38L207.165,515.38z"/>
		</g>
	</g>
	<g>
		<path fill="#FFFF33" d="M271.319,531.773"/>
		<g>
			<path fill="#FFFFFF" d="M271.319,533.653c2.424,0,2.424-3.76,0-3.76S268.895,533.653,271.319,533.653L271.319,533.653z"/>
		</g>
	</g>
	<g>
		<path fill="#FFFF33" d="M523,84.757C520.67,84.757,520.67,84.757,523,84.757"/>
		<g>
			<path fill="#FFFFFF" d="M523,82.877c-0.583,0-1.165,0-1.748,0c-2.424,0-2.424,3.76,0,3.76c0.583,0,1.165,0,1.748,0
				C525.424,86.637,525.424,82.877,523,82.877c-0.583,0-1.165,0-1.748,0c-2.424,0-2.424,3.76,0,3.76c0.583,0,1.165,0,1.748,0
				C525.424,86.637,525.424,82.877,523,82.877L523,82.877z"/>
		</g>
	</g>
	<g>
		<path fill="#FFFF33" d="M633.051,52.533c0-1.789,0-3.579,0-5.369"/>
		<g>
			<path fill="#FFFFFF" d="M634.931,52.533c0-1.79,0-3.58,0-5.369c0-2.424-3.76-2.424-3.76,0c0,1.79,0,3.58,0,5.369
				C631.171,54.957,634.931,54.957,634.931,52.533L634.931,52.533z"/>
		</g>
	</g>
	<g>
		<path fill="#FFFF33" d="M571.005,159.487c-0.922-0.248-1.844-0.497-2.767-0.744"/>
		<g>
			<path fill="#FFFFFF" d="M571.504,157.674c-0.922-0.248-1.844-0.497-2.767-0.744c-0.989-0.266-2.039,0.321-2.312,1.312
				c-0.271,0.983,0.324,2.047,1.313,2.312c0.922,0.248,1.844,0.496,2.767,0.744c0.989,0.266,2.04-0.321,2.312-1.312
				C573.088,159.003,572.494,157.94,571.504,157.674L571.504,157.674z"/>
		</g>
	</g>
	<g>
		<path fill="#FFFF33" d="M681.021,57.904c0.941-1.79,1.881-3.58,2.822-5.372"/>
		<g>
			<path fill="#FFFFFF" d="M682.645,58.853c0.941-1.79,1.882-3.581,2.822-5.372c1.126-2.144-2.118-4.044-3.246-1.897
				c-0.94,1.791-1.881,3.582-2.822,5.372C678.271,59.099,681.516,61,682.645,58.853L682.645,58.853z"/>
		</g>
	</g>
</g>
<linearGradient id="SVGID_5_" gradientUnits="userSpaceOnUse" x1="0" y1="51.6465" x2="1200" y2="51.6465">
	<stop  offset="0" style="stop-color:#7C4A74"/>
	<stop  offset="1" style="stop-color:#FA798D"/>
</linearGradient>
<rect y="-5.374" fill="url(#SVGID_5_)" width="1200" height="114.04"/>
<rect x="694.938" y="50.002" fill="none" width="494.062" height="66.007"/>
<text transform="matrix(1 0 0 1 694.9385 68.1694)" fill="#FFFFFF" font-family="'FuturaBT-BoldItalic'" font-size="24">HOME   FLIGHT   CARS   HOTEL  FOOD</text>
<g opacity="0.11">
	<g>
		<path fill="#FFFFFF" d="M908.712,475.759c-9.357-5.549-22.208-3.24-29.33,5.269c1.774-28.924-23.021-55.414-50.232-57.16
			c-27.21-1.747-53.358,18.489-63.633,45.337c-15.909-13.262-43.013-5.512-50.521,14.445c-5.16-9.084-17.899-10.4-26.621-5.241
			s-14.107,14.905-18.108,24.626l249.636,2.027C922.973,494.147,918.067,481.308,908.712,475.759z"/>
	</g>
	<g>
		<path fill="#FFFFFF" d="M821.939,313.04c-8.009-5.01-18.889-4.191-26.155,1.968c-1.745-24.791-24.393-45.724-47.726-44.112
			c-22.875,1.58-40.708,20.831-56.179,38.818c-6.532-11.377-20.621-16.064-32.954-13.672c-12.333,2.395-23.013,10.676-31.663,20.324
			c-3.834-6.07-12.721-6.178-18.483-2.186c-5.762,3.992-9.146,10.791-12.287,17.296l236.531,6.83
			C834.56,328.562,829.948,318.052,821.939,313.04z"/>
	</g>
	<g>
		<path fill="#FFFFFF" d="M1128.235,371.328c-6.152-1.624-12.735,0.964-17.71,5.142c3.663-11.911-3.407-25.597-14.025-31.036
			c-10.617-5.44-23.557-3.716-34.078,1.928c-10.523,5.645-19.007,14.776-26.68,24.288c-1.837-8.474-12.154-12.092-19.927-9.384
			c-7.771,2.709-13.45,9.659-18.722,16.308l140.939,7.737C1139.437,379.738,1134.387,372.952,1128.235,371.328z"/>
	</g>
	<g>
		<path fill="#FFFFFF" d="M1200.893,557.435c-1.018-3.684-4.414-6.932-7.959-6.206c-2.669,0.547-5.221,3.155-7.713,1.997
			c-0.018-9.908-0.95-21.629-8.963-26.688c-7.781-4.914-17.969-0.43-24.683,6.025c-5.854,5.631-10.446,12.737-13.288,20.568
			c-5.105-4.821-14.77-0.945-15.608,6.259l77.755,9.429C1201.174,565.061,1201.908,561.118,1200.893,557.435z"/>
	</g>
	<g>
		<path fill="#FFFFFF" d="M277.757,310.508c-8.604-3.438-19.398,2.5-21.727,11.952c-2.291-19.705-6.554-42.529-23.265-51.393
			c-13.764-7.3-30.987-1.444-42.649,9.221c-11.662,10.666-19.257,25.339-27.781,38.953c-0.647,1.036-1.391,2.139-2.515,2.485
			c-2.581,0.797-4.311-2.616-6.183-4.665c-4.061-4.443-11.609-2.578-15.386,2.139c-3.777,4.717-4.793,11.188-5.665,17.314
			l154.113-1.798C290.803,325.973,286.359,313.946,277.757,310.508z"/>
	</g>
	<g>
		<path fill="#FFFFFF" d="M235.583,470.93c-9.855-9.446-26.103-10.189-36.686-1.677c5.61-16.211-1.627-35.34-14.467-45.925
			c-12.838-10.584-30.041-13.647-46.218-12.06c-35.004,3.434-67.401,28.44-81.314,62.765c-9.785-9.628-25.155-12.207-37.254-6.25
			c-12.098,5.957-20.19,20.089-19.615,34.251l240.918,7.52C247.815,497.481,245.44,480.377,235.583,470.93z"/>
	</g>
</g>
<g>
	
		<ellipse fill="#FFFFFF" stroke="#000000" stroke-width="4.4347" stroke-miterlimit="10" cx="600.744" cy="57.714" rx="42.999" ry="46.088"/>
	<g>
		<path fill="#FFFFFF" d="M557.045,79.445l-18.276-20.181l10.896-3.181l16.171,11.63l55.642-16.237
			c5.773-1.686,12.059-0.191,17.172,4.151l0,0l16.531-0.529c1.734-0.072,3.375,1.379,3.895,3.491l0,0
			c0.598,2.433-0.512,4.877-2.473,5.45l-65.554,19.13L557.045,79.445z"/>
		<path d="M590.969,85.221l-33.978-3.781c-0.36-0.042-0.716-0.226-0.985-0.534l-18.279-20.182c-0.471-0.488-0.659-1.252-0.559-1.958
			c0.146-0.668,0.554-1.223,1.135-1.393l10.897-3.18c0.397-0.116,0.842-0.052,1.222,0.222l15.593,11.174l54.986-16.047
			c6.062-1.771,12.613-0.305,18.055,4.089l15.988-0.519c2.5-0.105,4.863,2.052,5.59,5.021c0.867,3.511-0.723,7.016-3.555,7.844
			l-65.554,19.129C591.344,85.161,591.188,85.157,590.969,85.221z M621.931,53.323L566.29,69.56
			c-0.397,0.117-0.843,0.054-1.222-0.223l-15.594-11.174l-7.373,2.152l15.551,17.167l33.137,3.688l65.337-19.066
			c1.121-0.328,1.754-1.719,1.41-3.113c-0.281-1.169-1.195-2.016-2.191-1.963l-16.527,0.53c-0.391,0.017-0.734-0.125-1.031-0.376
			c-4.711-3.978-10.508-5.373-15.844-3.814L621.931,53.323z"/>
	</g>
	<path d="M623.501,56.531l-3.137-3.718c-0.668-0.817-0.699-2.062-0.109-2.813c0.633-0.763,1.652-0.724,2.312,0.05l3.129,3.715
		c1.48,1.74,3.57,2.479,5.457,1.931l7.051-2.057c0.867-0.256,1.766,0.399,2.031,1.478c0.27,1.08-0.211,2.137-1.082,2.393
		l-7.043,2.057C629.091,60.444,625.81,59.28,623.501,56.531z"/>
	<path d="M608.587,62.376c-0.414-1.689,0.352-3.383,1.715-3.781l0,0c1.367-0.396,2.809,0.652,3.223,2.34l0,0
		c0.418,1.692-0.352,3.384-1.715,3.781l0,0C610.446,65.112,609.001,64.066,608.587,62.376L608.587,62.376z"/>
	<path d="M601.904,64.326c-0.42-1.688,0.355-3.383,1.722-3.78l0,0c1.359-0.398,2.801,0.649,3.215,2.338l0,0
		c0.418,1.691-0.352,3.385-1.715,3.782l0,0C603.763,67.063,602.318,66.019,601.904,64.326L601.904,64.326z"/>
	<path d="M595.186,66.287c-0.418-1.689,0.352-3.383,1.717-3.782l0,0c1.363-0.396,2.803,0.65,3.223,2.34l0,0
		c0.414,1.692-0.352,3.385-1.717,3.783l0,0C597.043,69.025,595.602,67.978,595.186,66.287L595.186,66.287z"/>
	<path fill="#B6B7B9" d="M543.931,62.531l4.986,5.395l1.516-7.291L543.931,62.531z"/>
	<path d="M531.163,68.356c-0.222-0.899,0.172-1.835,0.938-2.059l17.867-5.215c0.726-0.211,1.531,0.374,1.751,1.274
		c0.222,0.9-0.171,1.835-0.934,2.057l-17.866,5.215C532.155,69.852,531.385,69.257,531.163,68.356z"/>
	<path fill="#B6B7B9" d="M560.23,77.839l13.807,1.373l1.919-5.962L560.23,77.839z"/>
	<path d="M555.538,77.906c-0.222-0.899,0.169-1.835,0.934-2.056l17.869-5.216c0.727-0.212,1.532,0.374,1.752,1.272
		c0.221,0.9-0.171,1.834-0.935,2.057l-17.866,5.215C556.565,79.392,555.76,78.807,555.538,77.906z"/>
	<path fill="#18C1FF" d="M656.134,62.149c1.129-0.327,1.762-1.718,1.418-3.115c-0.023-0.089-0.035-0.135-0.055-0.223L583.59,80.379
		l7.246,0.827L656.134,62.149z"/>
	<path d="M587.87,77.058c-0.388-1.576,0.344-3.188,1.616-3.56l25.28-7.377c1.266-0.371,2.645,0.629,3.027,2.204
		c0.391,1.574-0.34,3.186-1.609,3.556l-25.282,7.377C589.631,79.629,588.269,78.677,587.87,77.058z"/>
	<path d="M548.938,72.598c-0.266-1.08,0.214-2.135,1.086-2.389l15.364-4.484c0.87-0.253,1.768,0.398,2.034,1.479
		c0.266,1.079-0.212,2.138-1.084,2.393l-15.364,4.483C550.104,74.332,549.204,73.677,548.938,72.598z"/>
	<path d="M537.556,92.811c-0.222-0.899,0.169-1.835,0.933-2.056l17.869-5.215c0.727-0.213,1.531,0.374,1.752,1.271
		c0.222,0.9-0.17,1.834-0.934,2.057l-17.866,5.215C538.583,94.296,537.777,93.711,537.556,92.811z"/>
	<path d="M517.629,86.431c-0.215-0.9,0.452-1.912,1.575-2.232l26.257-7.521c1.066-0.306,2.157,0.203,2.369,1.103
		c0.218,0.902-0.453,1.911-1.572,2.233l-26.255,7.521C518.936,87.839,517.846,87.333,517.629,86.431z"/>
	<path stroke="#000000" stroke-width="1.5852" stroke-miterlimit="10" d="M584.516,56.569c-1.156,0.311-2.25,0.45-3.273,0.42
		c-1.023-0.029-1.979-0.229-2.869-0.6c-0.936-0.4-1.742-0.988-2.416-1.763s-1.145-1.664-1.414-2.669
		c-0.291-1.081-0.375-2.144-0.256-3.185c0.121-1.04,0.447-2.042,0.979-3.006c0.619-1.143,1.484-2.122,2.598-2.942
		c1.113-0.816,2.395-1.42,3.848-1.81c2.434-0.652,4.57-0.552,6.406,0.3c1.838,0.853,3.023,2.283,3.562,4.291
		c0.289,1.076,0.371,2.137,0.242,3.188c-0.125,1.049-0.451,2.051-0.977,3.006c-0.643,1.17-1.508,2.16-2.596,2.967
		C587.262,55.575,585.984,56.177,584.516,56.569z M582.385,44.634c-1.32,0.354-2.312,1.076-2.977,2.168s-0.828,2.267-0.49,3.528
		c0.301,1.116,0.895,1.911,1.785,2.388s1.93,0.555,3.117,0.236c1.297-0.348,2.281-1.084,2.953-2.207
		c0.672-1.125,0.836-2.32,0.496-3.59c-0.279-1.043-0.877-1.801-1.795-2.273C584.559,44.411,583.527,44.327,582.385,44.634z"/>
	<path stroke="#000000" stroke-width="1.5852" stroke-miterlimit="10" d="M597.09,52.786l-1.014-11.66l-3.629,0.972l-0.281-3.534
		l11.44-3.064l0.281,3.533l-3.464,0.928l1.014,11.66L597.09,52.786z"/>
	<path stroke="#000000" stroke-width="1.5852" stroke-miterlimit="10" d="M607.212,50.073L605.88,34.89l9.359-2.508l0.305,3.484
		l-5.031,1.35l0.207,2.501l4.715-1.263l0.273,3.281l-4.691,1.256l0.52,5.924L607.212,50.073z"/>
</g>
<path stroke="#000000" stroke-width="1.5852" stroke-miterlimit="10" d="M564.758,49.96"/>
<g>
	<rect x="331.884" y="522.929" fill="none" width="468.963" height="145.888"/>
	<text transform="matrix(1 0 0 1 331.8843 550.1807)"><tspan x="0" y="0" fill="#FFFFFF" font-family="'FuturaBT-BoldItalic'" font-size="36">ORGANIZE.</tspan><tspan x="0" y="43.199" fill="#FFFFFF" font-family="'FuturaBT-BoldItalic'" font-size="36" letter-spacing="24">		</tspan><tspan x="72" y="43.199" fill="#FFFFFF" font-family="'FuturaBT-BoldItalic'" font-size="36">SCHEDULE.</tspan><tspan x="0" y="86.399" fill="#FFFFFF" font-family="'FuturaBT-BoldItalic'" font-size="36" letter-spacing="24">					</tspan><tspan x="180" y="86.399" fill="#FFFFFF" font-family="'FuturaBT-BoldItalic'" font-size="36">TRAVEL.</tspan></text>
</g>
<g>
	<g>
		<rect x="777.396" y="305.075" fill="none" width="220.599" height="283.211"/>
		<text transform="matrix(1 0 0 1 777.3965 328.2104)"><tspan x="0" y="0" fill="#FFFFFF" font-family="'.SFNSText-Regular'" font-size="12">El trozo de texto estndar de Lorem </tspan><tspan x="0" y="14.4" fill="#FFFFFF" font-family="'.SFNSText-Regular'" font-size="12">Ipsum usado desde el ao 1500 es </tspan><tspan x="0" y="28.8" fill="#FFFFFF" font-family="'.SFNSText-Regular'" font-size="12">reproducido debajo para aquellos </tspan><tspan x="0" y="43.2" fill="#FFFFFF" font-family="'.SFNSText-Regular'" font-size="12">interesados. Las secciones 1.10.32 y </tspan><tspan x="0" y="57.601" fill="#FFFFFF" font-family="'.SFNSText-Regular'" font-size="12">realizada en 1914 po</tspan><tspan x="116.086" y="57.601" fill="#FFFFFF" font-family="'ArialRoundedMTBold'" font-size="12">r H. Rackham.</tspan></text>
		<rect x="696.939" y="276.266" fill="none" width="375.497" height="74.327"/>
		<text transform="matrix(1 0 0 1 696.9395 303.5176)" fill="#FFFFFF" font-family="'FuturaBT-BoldItalic'" font-size="36">ADVENTURE AWAITS</text>
	</g>
	<linearGradient id="SVGID_6_" gradientUnits="userSpaceOnUse" x1="834" y1="413.667" x2="910" y2="413.667">
		<stop  offset="0" style="stop-color:#7C4A74"/>
		<stop  offset="1" style="stop-color:#FA798D"/>
	</linearGradient>
	<path fill="url(#SVGID_6_)" stroke="#FFFFFF" stroke-width="2" stroke-miterlimit="10" d="M910,415.786
		c0,4.681-2.294,8.475-5.124,8.475h-65.752c-2.829,0-5.124-3.794-5.124-8.475v-4.237c0-4.681,2.295-8.475,5.124-8.475h65.752
		c2.83,0,5.124,3.794,5.124,8.475V415.786z"/>
	<rect x="850.953" y="408.671" fill="none" width="46.031" height="18.003"/>
	<text transform="matrix(1 0 0 1 850.9541 417.7549)" fill="#FFFFFF" font-family="'FuturaBT-BoldItalic'" font-size="12">LOGIN</text>
</g>
</svg>
