<?xml version="1.0" encoding="utf-8"?>
<!-- Generator: Adobe Illustrator 16.0.0, SVG Export Plug-In . SVG Version: 6.00 Build 0)  -->
<!DOCTYPE svg PUBLIC "-//W3C//DTD SVG 1.1//EN" "http://www.w3.org/Graphics/SVG/1.1/DTD/svg11.dtd">
<svg version="1.1" id="Layer_1" xmlns="http://www.w3.org/2000/svg" xmlns:xlink="http://www.w3.org/1999/xlink" x="0px" y="0px"
	 width="1200px" height="1400px" viewBox="0 0 1200 1400" enable-background="new 0 0 1200 1400" xml:space="preserve">
<polygon opacity="0.08" fill="#E5EDD4" stroke="#000000" stroke-miterlimit="10" points="-4.219,507.805 -6.409,867.13 
	457.685,680.815 "/>
<linearGradient id="SVGID_1_" gradientUnits="userSpaceOnUse" x1="0" y1="577.3066" x2="700.8301" y2="577.3066">
	<stop  offset="0" style="stop-color:#7C4A74"/>
	<stop  offset="1" style="stop-color:#FA798D"/>
</linearGradient>
<rect y="501.799" fill="url(#SVGID_1_)" width="700.83" height="151.015"/>
<g>
	<polygon fill="#CC9933" points="145.202,671.69 193.085,671.69 193.085,745.663 154.514,745.663 	"/>
	<polygon fill="#CC9933" points="246.291,672.154 198.409,672.154 198.409,746.131 236.981,746.131 	"/>
	<ellipse fill="#00D1CF" cx="195.309" cy="516.825" rx="102.118" ry="98.579"/>
	<g>
		<path d="M170.827,690.352c-10.22,0-18.48,8.304-18.48,18.424c0,10.118,8.331,18.426,18.48,18.426
			c10.15,0,18.48-8.308,18.48-18.426C189.308,698.655,181.049,690.352,170.827,690.352z M170.827,721.685
			c-7.141,0-12.88-5.792-12.88-12.843c0-7.045,5.81-12.836,12.88-12.836s12.88,5.791,12.88,12.836
			C183.707,715.893,177.897,721.685,170.827,721.685z"/>
		<path d="M219.897,727.269c10.221,0,18.48-8.306,18.48-18.427c0-10.114-8.33-18.423-18.48-18.423
			c-10.22,0-18.48,8.309-18.48,18.423C201.417,718.963,209.678,727.269,219.897,727.269z M219.897,695.936
			c7.141,0,12.881,5.79,12.881,12.84c0,7.045-5.811,12.84-12.881,12.84c-7.14,0-12.88-5.795-12.88-12.84
			C207.018,701.726,212.828,695.936,219.897,695.936z"/>
		<path d="M299.979,521.399c4.621-0.979,8.051-5.095,8.051-9.98c0-5.581-4.549-10.187-10.221-10.187h-0.63
			c-7.35-50.178-50.681-87.654-101.782-87.654c-51.172,0-94.502,37.544-101.783,87.723c-5.318,0.349-9.52,4.745-9.52,10.118
			c0,4.886,3.431,8.932,8.051,9.98l0.631,2.232c1.049,14.935,5.39,29.309,12.53,42.153l27.579,92.955v10.327
			c0,1.537,1.261,2.793,2.801,2.793h3.43l9.311,73.971h-3.361c-1.538,0-2.799,1.257-2.799,2.795V759.3
			c0,1.537,1.261,2.791,2.799,2.791h100.732c1.542,0,2.801-1.254,2.801-2.791v-10.675c0-1.538-1.259-2.795-2.801-2.795h-3.359
			l9.312-73.971h3.429c1.54,0,2.8-1.256,2.8-2.793v-8.305c0.561-0.349,1.051-0.907,1.26-1.606l29.542-99.583
			c4.27-9.073,7.139-18.774,8.54-28.823L299.979,521.399z M278.21,567.038h-23.17c-1.541,0-2.801,1.257-2.801,2.794
			c0,1.533,1.26,2.791,2.801,2.791h19.389c-3.289,4.605-7.069,8.934-11.199,12.98c-3.711,3.558-7.63,6.838-11.69,9.769h-12.391
			l10.36-73.694h42.98c-0.139,2.654-0.42,5.235-0.77,7.885l-2.801,9.422H255.04c-1.541,0-2.801,1.258-2.801,2.791
			c0,1.538,1.26,2.794,2.801,2.794h32.199l-3.85,12.909C281.919,560.758,280.171,563.969,278.21,567.038z M198.829,655.525v-36.844
			c11.13-0.35,22.049-2.514,32.27-6.28l-6.02,43.125H198.829z M167.047,655.525l-5.95-42.566c10.221,3.626,21.07,5.582,32.199,5.791
			v36.775H167.047z M98.235,521.608h44.311l2.452,17.308h-41.862l-4.83-16.332C98.235,522.306,98.235,521.957,98.235,521.608z
			 M141.565,567.038h-29.051c-0.698-1.116-1.398-2.302-2.029-3.49l-5.671-19.051h41.022l7.141,50.806h-11.342
			c-0.629,0-1.189,0.208-1.609,0.558c-4.41-3.072-8.54-6.488-12.46-10.258c-4.131-4.046-7.911-8.375-11.2-12.98h25.27
			c1.541,0,2.801-1.257,2.801-2.791C144.437,568.294,143.106,567.038,141.565,567.038z M153.677,600.956l0.421,3.138
			c-2.101-0.976-4.13-2.023-6.16-3.138H153.677z M159.347,600.956h21.07c1.541,0,2.8-1.257,2.8-2.791c0-1.537-1.259-2.793-2.8-2.793
			h-21.84l-7.141-50.802h19.391c1.54,0,2.801-1.256,2.801-2.794c0-1.533-1.261-2.791-2.801-2.791h-20.161l-2.449-17.307h45.011
			v45.433h-28.631c-1.539,0-2.799,1.255-2.799,2.791c0,1.537,1.26,2.789,2.799,2.789h28.631v40.479
			c-11.48-0.282-22.61-2.446-33.111-6.493L159.347,600.956z M198.829,613.097v-40.475h16.869c1.539,0,2.8-1.257,2.8-2.791
			c0-1.537-1.261-2.794-2.8-2.794h-16.869v-45.429h45.009l-10.358,73.694h-10.08c-1.541,0-2.801,1.257-2.801,2.791
			c0,1.537,1.26,2.793,2.801,2.793h9.309l-0.699,5.162C221.579,610.306,210.378,612.678,198.829,613.097z M238.378,600.956h4.34
			c-1.539,0.837-3.148,1.673-4.689,2.441L238.378,600.956z M128.547,445.681h48.79c1.541,0,2.801-1.257,2.801-2.794
			c0-1.534-1.26-2.79-2.801-2.79h-42.352c16.66-13.122,37.662-20.866,60.342-20.866c22.609,0,43.682,7.745,60.342,20.866h-40.6
			c-1.542,0-2.801,1.256-2.801,2.79c0,1.538,1.259,2.794,2.801,2.794h46.059c0.281,0,0.561-0.072,0.84-0.141
			c5.462,5.095,10.291,10.816,14.421,17.028h-20.021c-1.54,0-2.799,1.257-2.799,2.79c0,1.538,1.259,2.791,2.799,2.791h23.521
			c2.871,4.958,5.25,10.262,7.21,15.702h-55.792c-1.539,0-2.8,1.257-2.8,2.794c0,1.535,1.261,2.792,2.8,2.792h57.611
			c1.12,3.837,1.961,7.817,2.59,11.794H99.215c0.631-4.051,1.47-7.957,2.591-11.794h68.881c1.539,0,2.801-1.257,2.801-2.792
			c0-1.537-1.262-2.794-2.801-2.794h-67.132c1.962-5.512,4.341-10.744,7.211-15.702h24.851c1.54,0,2.8-1.253,2.8-2.791
			c0-1.533-1.26-2.79-2.8-2.79h-21.351C118.396,456.357,123.155,450.705,128.547,445.681z M89.626,511.418
			c0-2.511,2.1-4.605,4.618-4.605h1.751H294.73h3.079c2.521,0,4.621,2.094,4.621,4.605c0,2.513-2.1,4.606-4.621,4.606h-2.379H95.294
			h-1.05C91.726,516.024,89.626,514,89.626,511.418z M123.505,589.582c9.242,9,19.952,16.051,31.503,21.004l6.299,44.939h-23.589
			l-22.121-74.528C118.047,583.996,120.706,586.859,123.505,589.582z M144.716,671.786h47.883v73.977h-38.572L144.716,671.786z
			 M242.93,756.511h-95.132v-5.097h3.709h87.642h3.71v5.097H242.93z M236.699,745.763h-38.571v-73.977h47.881L236.699,745.763z
			 M252.309,666.205h-3.081H141.565h-3.078v-5.095h113.821V666.205L252.309,666.205z M254.339,655.525h-23.59l6.369-45.568
			c11.062-4.883,21.21-11.723,30.101-20.375c3.641-3.561,7.001-7.328,10.08-11.307L254.339,655.525z"/>
		<path d="M200.366,483.851h-12.808c-1.542,0-2.802,1.257-2.802,2.794c0,1.535,1.26,2.792,2.802,2.792h12.808
			c1.541,0,2.801-1.257,2.801-2.792C203.167,485.108,201.907,483.851,200.366,483.851z"/>
		<path d="M161.026,468.149h62.373c1.539,0,2.799-1.253,2.799-2.791c0-1.533-1.26-2.79-2.799-2.79h-62.373
			c-1.539,0-2.8,1.257-2.8,2.79C158.227,466.896,159.417,468.149,161.026,468.149z"/>
		<path d="M226.198,541.706c0-1.534-1.26-2.79-2.799-2.79h-15.332c-1.539,0-2.799,1.256-2.799,2.79c0,1.535,1.26,2.791,2.799,2.791
			h15.332C224.938,544.497,226.198,543.241,226.198,541.706z"/>
	</g>
	<line fill="#0001B9" x1="94.244" y1="506.813" x2="94.244" y2="516.024"/>
	<polygon fill="#FFFFFF" points="296.886,506.847 296.886,516.126 93.265,516.077 93.315,506.897 	"/>
	<path fill="#FFFFFF" d="M296.886,506.847c0,0,5.286-0.684,5.545,4.572c0.26,5.256-5.545,4.708-5.545,4.708"/>
	<path fill="#FFFFFF" d="M94.416,506.864c0,0-5.286-0.684-5.546,4.573c-0.258,5.255,5.546,4.707,5.546,4.707"/>
	<path fill="#00C4E7" d="M183.94,708.795c0,7.165-5.824,12.972-13.011,12.972s-13.011-5.807-13.011-12.972
		c0-7.16,5.824-12.972,13.011-12.972S183.94,701.635,183.94,708.795z"/>
	<path fill="#00C4E7" d="M232.782,708.795c0,7.165-5.826,12.972-13.012,12.972c-7.187,0-13.011-5.807-13.011-12.972
		c0-7.16,5.824-12.972,13.011-12.972C226.956,695.823,232.782,701.635,232.782,708.795z"/>
	<rect x="138.487" y="661.11" fill="#CC9933" width="113.821" height="5.095"/>
	<rect x="147.798" y="751.414" fill="#CC9933" width="95.061" height="5.097"/>
</g>
<polygon opacity="0.08" fill="#E5EDD4" stroke="#000000" stroke-width="0.9728" stroke-miterlimit="10" points="1197.929,-4.001 
	1200,355.323 760.833,169.01 "/>
<g>
	<g>
		<path fill="#631F3D" d="M1055.385,734.899c8.671-12.386,25.264-37.711,25.264-50.117c0-16.793-13.613-30.407-30.407-30.407
			c-16.793,0-30.406,13.614-30.406,30.407c0,12.406,16.594,37.731,25.264,50.117H1055.385z"/>
		<rect x="1044.527" y="740.988" fill="#631F3D" width="11.032" height="7.18"/>
	</g>
	<g>
		<path fill="#812E52" d="M961.618,791.984c6.025-8.608,17.559-26.207,17.559-34.83c0-11.67-9.461-21.131-21.132-21.131
			s-21.132,9.461-21.132,21.131c0,8.623,11.532,26.222,17.558,34.83H961.618z"/>
		<rect x="954.073" y="796.216" fill="#812E52" width="7.667" height="4.989"/>
	</g>
</g>
</svg>
