<?xml version="1.0" encoding="utf-8"?>
<!-- Generator: Adobe Illustrator 16.0.0, SVG Export Plug-In . SVG Version: 6.00 Build 0)  -->
<!DOCTYPE svg PUBLIC "-//W3C//DTD SVG 1.1//EN" "http://www.w3.org/Graphics/SVG/1.1/DTD/svg11.dtd">
<svg version="1.1" id="Layer_1" xmlns="http://www.w3.org/2000/svg" xmlns:xlink="http://www.w3.org/1999/xlink" x="0px" y="0px"
	 width="1200px" height="1400px" viewBox="0 0 1200 1400" enable-background="new 0 0 1200 1400" xml:space="preserve">
<g>
	<linearGradient id="SVGID_1_" gradientUnits="userSpaceOnUse" x1="1.9023" y1="1254.3438" x2="1200" y2="1254.3438">
		<stop  offset="0" style="stop-color:#003366"/>
		<stop  offset="1" style="stop-color:#000027"/>
	</linearGradient>
	
		<rect x="1.902" y="1108.306" fill="url(#SVGID_1_)" stroke="#3399CC" stroke-width="1.2551" stroke-miterlimit="10" width="1198.098" height="292.076"/>
	<g opacity="0.75">
		<g opacity="0.75">
			<path fill="#FFFFFF" d="M553.381,1272.725c-24.229,15.441-49.277,27.084-74.732,34.743c-5.516,1.659-7.043,13.936-2.414,19.355
				c4.451,5.21,9.828,8.601,15.113,10.614c9.539,3.634,19.515,4.01,28.743,9.523c4.089,2.442,8.513,7.163,8.818,14.583
				c-31.065,20.569-64.958,24.08-97.015,39.456l341.288-0.75c-1.365-5.201-4.59-9.889-7.706-12.637
				c-30.237-26.674-69.406-7.41-98.86-36.556c17.2-7.935,34.401-15.868,51.601-23.803c3.833-1.769,8.48-5.23,8.521-12.048
				c0.044-7.222-5.062-10.676-9.183-12.102c-28.123-9.722-56.535-16.979-85.089-21.735c18.442-6.055,36.887-12.11,55.33-18.168
				c3.756-1.232,8.592-5.122,7.671-11.502c-0.708-4.904-4.323-6.239-7.251-6.733c-19.693-3.311-39.13-11.104-57.644-23.113
				c7.107-11.629,19.562-11.174,28.057-17.854c3.863-3.037,2.624-13.001-1.623-13.16c-14.643-0.546-29.285-1.091-43.927-1.639
				c-2.985-0.11-7.037-2.03-6.445-7.517c0.247-2.281,1.251-4.106,2.525-4.878c10.091-6.117,20.182-12.233,30.272-18.348
				c1.583-0.96,2.677-3.602,2.524-6.472c-0.18-3.33-1.838-4.23-3.32-4.916c-6.466-2.994-12.931-5.988-19.396-8.983
				c0.091-4.698,2.479-8.117,4.258-11.69c2.187-4.395,3.437-12.376-1.126-14.14c-0.575-0.223-1.17-0.288-1.76-0.254
				c-10.395,0.622-10.516-0.275-7.35-2.198h-26.839c-1.147,1.946-9.661,1.562-9.901,3.595c-0.474,3.963,5.697,10.673,3.309,11.724
				c-5.165,2.271-11.572,4.612-14.18,6.74c-1.037,0.846-2.131,1.78-2.72,3.468c-2.547,7.307,6.636,12.647,6.414,21.155
				c-0.149,5.768-4.335,8.083-7.662,8.881c-4.543,1.093-9.086,2.183-13.628,3.273c-4.997,1.2-11.533,5.338-9.729,15.138
				c1.097,5.958,4.655,9.348,8.257,8.484c4.725-1.129,14.028,5.241,11.268,14.809c-0.547,1.896-1.477,3.397-2.58,4.335
				c-8.857,7.531-18.533,12.205-28.375,13.719c-4.753,0.729-11.256,4.002-10.525,12.104c0.657,7.303,6.459,8.177,10.76,8.131
				c10.247-0.112,20.492,5.43,28.839,15.649c0.741,0.906,1.296,2.229,1.497,3.753
				C558.031,1269.037,555.502,1271.373,553.381,1272.725z"/>
		</g>
		<g>
			<g opacity="0.75">
				<path fill="#FFFFFF" d="M653.104,1172.695c-5.661-0.931-11.366-0.245-17.04,0.44c-0.016,0.001-0.031,0.001-0.047,0.004
					c-1.593,0.144-1.58,4.234,0.01,4.422c0.754,0.089,1.511,0.126,2.264,0.147c5.024,0.161,10.144-0.187,14.96-2.505
					c0.795-0.38,0.703-2.37-0.118-2.506C653.123,1172.697,653.113,1172.696,653.104,1172.695z"/>
			</g>
			<g opacity="0.75">
				<path fill="#FFFFFF" d="M638.579,1129.446c-0.05-0.237-0.214-0.33-0.356-0.387c-3.341-1.351-5.81-1.392-9.111-0.143
					c-1.319,0.437-2.725,1.154-3.051,2.163c-0.065,0.202-0.113,0.461-0.041,0.657c0.068,0.175,0.204,0.218,0.324,0.243
					c3.508,0.769,7.157,1.514,10.506-0.436c0.55-0.319,1.097-0.721,1.535-1.377C638.51,1129.983,638.634,1129.712,638.579,1129.446z
					"/>
			</g>
			<g opacity="0.75">
				<path fill="#FFFFFF" d="M715.436,1194.85c-1.19-1.128-2.854-2.736-4.213-2.796c-6.478-0.592-13.036,1.573-18.925,6.248
					c-0.287,0.229-0.617,0.581-0.609,1.121c0.009,0.6,0.411,0.91,0.747,1.067c5.293,2.517,10.822,3.55,16.305,3.042
					c2.516-0.232,5.177-0.896,7.105-3.68c0.422-0.608,0.824-1.408,0.823-2.356C716.667,1196.309,716.041,1195.423,715.436,1194.85z"
					/>
			</g>
			<g opacity="0.75">
				<path fill="#FFFFFF" d="M746.944,1289.26c-0.106-0.91-0.562-1.563-1.012-2.079c-2.517-2.866-5.619-3.697-8.621-4.267
					c-9.424-1.788-24.065-1.87-33.477,0.1l0.103-0.003c-0.422,0.071-0.845,0.145-1.265,0.246c-0.443,0.106-0.912,0.247-1.248,0.757
					c-0.663,1.007-0.446,2.999,0.205,4.025c0.653,1.027,1.573,1.339,2.445,1.599c13.237,3.936,26.767,4.965,40.155,3.058
					C745.505,1292.512,747.198,1291.411,746.944,1289.26z"/>
			</g>
			<g opacity="0.75">
				<path fill="#FFFFFF" d="M553.26,1138.6c-0.84-1.437-1.139-1.688-1.854-2.14c-4.036-1.503-8.243-1.628-12.306-0.364
					c-0.782,0.242-1.649,0.646-2.043,1.832c-0.425,1.28-0.075,2.999,0.576,3.958s1.525,1.328,2.37,1.587
					c4.219,1.295,8.637,0.612,12.654-1.956c0.455-0.292,0.98-0.782,0.993-1.616C553.659,1139.398,553.467,1138.954,553.26,1138.6z"
					/>
			</g>
			<g opacity="0.75">
				<path fill="#FFFFFF" d="M504.934,1235.669h0.002C504.934,1235.669,504.933,1235.669,504.934,1235.669
					c-0.049-0.013-0.096-0.023-0.143-0.021c-9.531-1.401-18.707-2.541-28.065,0.889c-0.698,0.258-1.459,0.596-1.874,1.595
					c-0.582,1.406-0.148,3.503,0.656,4.533c0.805,1.031,1.854,1.267,2.853,1.438c8.228,1.415,16.575,0.729,24.687-2.027
					c1.166-0.397,2.488-1.045,2.986-2.902C506.414,1237.753,505.688,1235.86,504.934,1235.669z"/>
			</g>
			<g opacity="0.75">
				<path fill="#FFFFFF" d="M505.656,1278.949c-0.195-0.511-0.572-0.705-0.921-0.836c-1.908-0.722-3.062-0.292-5.146-0.377
					l0.31,0.022c-2.351-0.195-4.715,0.133-7.016,0.974c-0.936,0.343-2.009,1.001-2.276,2.579c-0.397,2.352,1.292,4.099,2.691,4.56
					c3.925,1.299,8.129-0.111,11.481-3.847C505.404,1281.33,506.067,1280.015,505.656,1278.949z"/>
			</g>
			<g opacity="0.75">
				<path fill="#FFFFFF" d="M436.521,1364.499c-2.934,0.587-6.156,1.45-7.984,5.532c-0.229,0.514-0.396,1.127-0.396,1.773
					c0.001,1.842,1.156,2.498,2.112,2.747c4.993,1.306,10.089,0.345,15.086-0.927c11.751-2.989,23.353-7.695,34.642-14.052
					c0.24-0.136,0.425-0.471,0.488-0.892l0,0c0.13-0.853-0.268-1.671-0.778-1.594
					C467.742,1358.822,447.953,1362.207,436.521,1364.499z"/>
			</g>
		</g>
	</g>
	<g>
		
			<line opacity="0.42" fill="none" stroke="#FFFFFF" stroke-width="1.8339" stroke-linecap="round" stroke-miterlimit="10" x1="312.764" y1="1175.819" x2="348.385" y2="1175.819"/>
		
			<line opacity="0.42" fill="none" stroke="#FFFFFF" stroke-width="1.8339" stroke-linecap="round" stroke-miterlimit="10" x1="396.072" y1="1175.819" x2="530.971" y2="1175.819"/>
		
			<line opacity="0.42" fill="none" stroke="#FFFFFF" stroke-width="1.8339" stroke-linecap="round" stroke-miterlimit="10" x1="592.23" y1="1175.819" x2="639.768" y2="1175.819"/>
		
			<line opacity="0.42" fill="none" stroke="#FFFFFF" stroke-width="1.8339" stroke-linecap="round" stroke-miterlimit="10" x1="710.955" y1="1175.819" x2="793.443" y2="1175.819"/>
		
			<line opacity="0.42" fill="none" stroke="#FFFFFF" stroke-width="1.8339" stroke-linecap="round" stroke-miterlimit="10" x1="882.224" y1="1175.819" x2="934.11" y2="1175.819"/>
		
			<line opacity="0.42" fill="none" stroke="#FFFFFF" stroke-width="1.8339" stroke-linecap="round" stroke-miterlimit="10" x1="967.81" y1="1175.819" x2="984.031" y2="1175.819"/>
		
			<line opacity="0.42" fill="none" stroke="#FFFFFF" stroke-width="1.8339" stroke-linecap="round" stroke-miterlimit="10" x1="159.105" y1="1175.819" x2="175.326" y2="1175.819"/>
		
			<line opacity="0.42" fill="none" stroke="#FFFFFF" stroke-width="1.8339" stroke-linecap="round" stroke-miterlimit="10" x1="212.167" y1="1175.819" x2="270.441" y2="1175.819"/>
		
			<line opacity="0.42" fill="none" stroke="#FFFFFF" stroke-width="1.8339" stroke-linecap="round" stroke-miterlimit="10" x1="252.07" y1="1194.755" x2="305.52" y2="1194.755"/>
		
			<line opacity="0.42" fill="none" stroke="#FFFFFF" stroke-width="1.8339" stroke-linecap="round" stroke-miterlimit="10" x1="413.883" y1="1194.755" x2="426.35" y2="1194.755"/>
		
			<line opacity="0.42" fill="none" stroke="#FFFFFF" stroke-width="1.8339" stroke-linecap="round" stroke-miterlimit="10" x1="526.384" y1="1194.755" x2="561.688" y2="1194.755"/>
		
			<line opacity="0.42" fill="none" stroke="#FFFFFF" stroke-width="1.8339" stroke-linecap="round" stroke-miterlimit="10" x1="452.481" y1="1321.047" x2="464.947" y2="1321.047"/>
		
			<line opacity="0.42" fill="none" stroke="#FFFFFF" stroke-width="1.8339" stroke-linecap="round" stroke-miterlimit="10" x1="564.98" y1="1321.047" x2="600.286" y2="1321.047"/>
		
			<line opacity="0.42" fill="none" stroke="#FFFFFF" stroke-width="1.8339" stroke-linecap="round" stroke-miterlimit="10" x1="632.288" y1="1194.755" x2="647.249" y2="1194.755"/>
		
			<line opacity="0.42" fill="none" stroke="#FFFFFF" stroke-width="1.8339" stroke-linecap="round" stroke-miterlimit="10" x1="774.254" y1="1194.755" x2="833.388" y2="1194.755"/>
		
			<line opacity="0.42" fill="none" stroke="#FFFFFF" stroke-width="1.8339" stroke-linecap="round" stroke-miterlimit="10" x1="908.154" y1="1194.755" x2="922.727" y2="1194.755"/>
		
			<line opacity="0.42" fill="none" stroke="#FFFFFF" stroke-width="1.8339" stroke-linecap="round" stroke-miterlimit="10" x1="300.67" y1="1213.688" x2="312.764" y2="1213.688"/>
		
			<line opacity="0.42" fill="none" stroke="#FFFFFF" stroke-width="1.8339" stroke-linecap="round" stroke-miterlimit="10" x1="336.718" y1="1213.688" x2="376.152" y2="1213.688"/>
		
			<line opacity="0.42" fill="none" stroke="#FFFFFF" stroke-width="1.8339" stroke-linecap="round" stroke-miterlimit="10" x1="465.699" y1="1213.688" x2="482.243" y2="1213.688"/>
		
			<line opacity="0.42" fill="none" stroke="#FFFFFF" stroke-width="1.8339" stroke-linecap="round" stroke-miterlimit="10" x1="614.852" y1="1213.688" x2="670.689" y2="1213.688"/>
		
			<line opacity="0.42" fill="none" stroke="#FFFFFF" stroke-width="1.8339" stroke-linecap="round" stroke-miterlimit="10" x1="724.28" y1="1213.688" x2="735.867" y2="1213.688"/>
		
			<line opacity="0.42" fill="none" stroke="#FFFFFF" stroke-width="1.8339" stroke-linecap="round" stroke-miterlimit="10" x1="819.018" y1="1213.688" x2="847.76" y2="1213.688"/>
		
			<line opacity="0.42" fill="none" stroke="#FFFFFF" stroke-width="1.8339" stroke-linecap="round" stroke-miterlimit="10" x1="312.764" y1="1232.623" x2="338.793" y2="1232.623"/>
		
			<line opacity="0.42" fill="none" stroke="#FFFFFF" stroke-width="1.8339" stroke-linecap="round" stroke-miterlimit="10" x1="664.577" y1="1232.623" x2="700.688" y2="1232.623"/>
		
			<line opacity="0.42" fill="none" stroke="#FFFFFF" stroke-width="1.8339" stroke-linecap="round" stroke-miterlimit="10" x1="774.216" y1="1232.623" x2="789.255" y2="1232.623"/>
		
			<line opacity="0.42" fill="none" stroke="#FFFFFF" stroke-width="1.8339" stroke-linecap="round" stroke-miterlimit="10" x1="603.176" y1="1232.623" x2="618.216" y2="1232.623"/>
		
			<line opacity="0.42" fill="none" stroke="#FFFFFF" stroke-width="1.8339" stroke-linecap="round" stroke-miterlimit="10" x1="445.207" y1="1232.623" x2="563.57" y2="1232.623"/>
		
			<line opacity="0.42" fill="none" stroke="#FFFFFF" stroke-width="1.8339" stroke-linecap="round" stroke-miterlimit="10" x1="439.341" y1="1293.934" x2="403.229" y2="1293.934"/>
		
			<line opacity="0.42" fill="none" stroke="#FFFFFF" stroke-width="1.8339" stroke-linecap="round" stroke-miterlimit="10" x1="500.742" y1="1293.934" x2="485.701" y2="1293.934"/>
		
			<line opacity="0.42" fill="none" stroke="#FFFFFF" stroke-width="1.8339" stroke-linecap="round" stroke-miterlimit="10" x1="658.711" y1="1293.934" x2="540.347" y2="1293.934"/>
		
			<line opacity="0.42" fill="none" stroke="#FFFFFF" stroke-width="1.8339" stroke-linecap="round" stroke-miterlimit="10" x1="367.391" y1="1251.558" x2="451.775" y2="1251.558"/>
		
			<line opacity="0.42" fill="none" stroke="#FFFFFF" stroke-width="1.8339" stroke-linecap="round" stroke-miterlimit="10" x1="477.029" y1="1251.558" x2="505.135" y2="1251.558"/>
		
			<line opacity="0.42" fill="none" stroke="#FFFFFF" stroke-width="1.8339" stroke-linecap="round" stroke-miterlimit="10" x1="726.167" y1="1251.558" x2="733.011" y2="1251.558"/>
		
			<line opacity="0.42" fill="none" stroke="#FFFFFF" stroke-width="1.8339" stroke-linecap="round" stroke-miterlimit="10" x1="545.855" y1="1251.558" x2="675.535" y2="1251.558"/>
		
			<line opacity="0.42" fill="none" stroke="#FFFFFF" stroke-width="1.8339" stroke-linecap="round" stroke-miterlimit="10" x1="427.02" y1="1270.492" x2="563.57" y2="1270.492"/>
		
			<line opacity="0.42" fill="none" stroke="#FFFFFF" stroke-width="1.8339" stroke-linecap="round" stroke-miterlimit="10" x1="586.338" y1="1270.492" x2="614.852" y2="1270.492"/>
		
			<line opacity="0.42" fill="none" stroke="#FFFFFF" stroke-width="1.8339" stroke-linecap="round" stroke-miterlimit="10" x1="665.843" y1="1270.492" x2="675.535" y2="1270.492"/>
	</g>
</g>
</svg>
