<?xml version="1.0" encoding="utf-8"?>
<!-- Generator: Adobe Illustrator 16.0.0, SVG Export Plug-In . SVG Version: 6.00 Build 0)  -->
<!DOCTYPE svg PUBLIC "-//W3C//DTD SVG 1.1//EN" "http://www.w3.org/Graphics/SVG/1.1/DTD/svg11.dtd">
<svg version="1.1" id="Layer_1" xmlns="http://www.w3.org/2000/svg" xmlns:xlink="http://www.w3.org/1999/xlink" x="0px" y="0px"
	 width="1200px" height="1400px" viewBox="0 0 1200 1400" enable-background="new 0 0 1200 1400" xml:space="preserve">
<g>
	<g>
		<path fill="#531331" d="M404.756,1398.138c-29.601-27.045-59.202-68.997-88.803-96.043c-3.11-2.841-6.29-5.727-9.99-7.267
			c-3.63-1.511-7.55-1.636-11.394-1.768c-28.355-0.976-56.682-3.2-84.9-6.669c-13.464-1.654-45.562-7.776-45.562-7.776
			c-33.377-64.316-72.549-140.854-105.925-205.169c-8.527-16.432-17.474-33.387-31.018-44.029
			c-7.82-6.145-16.812-9.846-26.034-12.02v380.74H404.756z"/>
	</g>
	<path fill="#531331" d="M1173.064,1029.417c-13.545,10.643-22.489,27.598-31.016,44.029
		c-6.572,12.662-61.988,138.954-61.988,138.954s-182.164,80.917-185.796,82.428c-3.7,1.54-6.879,4.426-9.987,7.267
		c-12.65,11.557-17.718,16.275-29.962,30.486l1.693,65.557h17.771h325.317v-380.74
		C1189.876,1019.571,1180.885,1023.272,1173.064,1029.417z"/>
	<g>
		<path fill="#531331" d="M865.086,1322.843c-1.705-1.812-4.076-2.535-6.363-2.529s-4.534,0.672-6.752,1.335
			c3.673-2.151,7.61-3.664,11.648-4.476c-2.509-5.307-7.545-8.035-12.251-10.425c5.508-0.091,11.032,1.814,15.645,5.399
			c-0.856-3.674-2.172-7.195-3.892-10.414c4.718,3.559,8.684,8.511,11.443,14.285"/>
	</g>
	<g>
		<path fill="#531331" d="M887.529,1302.377c-2.919-0.257-5.389-3.621-5.208-7.097c0.179-3.476,2.975-6.455,5.899-6.285
			c-1.498-4.13-1.568-9.25,0.694-12.854c2.262-3.604,7.171-4.806,9.955-1.764c0.602-5.994,3.128-11.688,6.951-15.659
			c1.25-1.299,2.666-2.437,4.27-2.95c1.903-0.609,3.946-0.294,5.819,0.438c4.058,1.584,7.535,5.159,9.44,9.704
			c1.906,4.546,2.213,10.002,0.835,14.809c-0.43,1.501-1.03,2.96-1.94,4.12c-0.831,1.058-1.886,1.824-2.938,2.555
			c-10.373,7.209-21.791,12.285-33.598,14.936"/>
	</g>
	<g>
		<path fill="#531331" d="M332.476,1326.453c-0.105-7.812,10.123-32.664,9.016-38.899c-0.945-5.336-2.62-10.449-3.775-15.727
			c-2.235-10.199-2.503-20.84-2.758-31.375c1.248-0.264,2.498-0.527,3.746-0.791c-1.781,14.717,2.104,30.27,10.352,41.441
			c0.904-5.844,3.59-11.273,7.445-15.052c2.01-1.972,4.308-3.491,6.351-5.415c4.429-4.168,7.556-10.248,8.66-16.834
			c1.069,0.639,2.14,1.277,3.208,1.918c-4.184,7.002-6.362,15.67-11.396,21.828c-2.035,2.488-4.492,4.506-6.221,7.302
			c-2.637,4.263-14.785,40.972-16.169,54.443"/>
	</g>
	<g>
		<path fill="#812E52" d="M340.898,1246.118c-4.412,1.979-9.28,2.494-13.917,1.477c-2.574-0.565-5.139-1.639-7.117-3.678
			c-1.979-2.038-3.289-5.166-2.941-8.252c0.572-5.074,5.271-8.166,9.573-8.345c-4.053-0.707-7.284-4.573-9.144-8.915
			c-3.589-8.386-2.42-19.949,3.956-25.52c3.899-3.406,8.998-4.17,13.837-4.114c4.838,0.056,9.707,0.812,14.495-0.021
			c-0.751-3.133,0.058-6.723,2.024-8.989s5.008-3.113,7.617-2.12c-0.027-3.735,0.803-7.475,2.379-10.705
			c0.496-1.014,1.098-2.015,1.971-2.557c0.837-0.52,1.824-0.554,2.769-0.547c6.392,0.047,12.774,1.449,18.757,4.121
			c1.98,0.884,3.978,1.955,5.416,3.799c2.423,3.105,2.783,7.889,1.815,11.965s-3.063,7.621-5.122,11.077
			c3.096-0.418,6.312,1.849,7.493,5.279c1.18,3.431,0.222,7.729-2.233,10.014c5.891,4.116,11.643,9.978,12.887,17.966
			c1.469,9.446-4.4,19.105-12.035,22.24c-7.634,3.135-16.307,0.656-23.08-4.576c-7.01,7.109-17.578,8.802-25.918,4.148
			c-1.453-0.81-3.012-2.122-3.054-4.029"/>
	</g>
	<path fill="#3F0021" d="M1.13,1053.687c0,0,18.057,10.113,23.016,32.029c4.961,21.914,27.104,112.788,27.104,112.788
		l-19.352,54.782l85.518,35.961l16.4,54.339l107.838,1.989l60.972,52.562H1.13V1053.687z"/>
	<g>
		<g>
			<path fill="#3F0021" d="M219.805,1079.1c12.706,2.05,24.882,8.527,34.636,18.425c2.973,3.017,5.972,7.36,4.855,11.815
				c-0.754,3.005-3.141,4.913-5.082,7.036c-1.941,2.122-3.641,5.407-2.518,8.245c0.531,1.343,1.593,2.263,2.631,3.087
				c10.42,8.271,22.999,13.004,31.662,23.771c3.109,3.865,5.648,9.926,3.084,14.321c-0.979,1.677-2.686,3.171-2.42,5.188
				c0.119,0.899,0.633,1.649,1.171,2.295c2.966,3.552,7.108,5.255,10.681,7.898c3.573,2.644,6.866,7.112,6.24,12.062
				c-0.312,2.471-1.557,4.612-2.789,6.635c-4.052,6.647-8.406,13.147-13.829,18.227c-5.424,5.079-12.048,8.681-18.948,8.798
				c-10.682,0.181-20.074-7.683-29.82-12.883c-1.021-0.546-2.104-1.075-3.225-0.995c-1.455,0.103-2.703,1.201-3.912,2.168
				c-4.082,3.256-9.051,5.465-13.891,4.443c-4.949-1.044-8.943-5.209-13.285-8.219c-1.062-0.738-2.197-1.426-3.424-1.54
				c-1.974-0.185-3.797,1.117-5.55,2.213c-15.56,9.726-34.927,5.281-50.615-4.149c-5.028-3.023-10.138-6.89-12.458-12.999
				c-2.929-7.712,0.006-17.851,6.305-21.784c2.021-1.262,4.312-1.953,6.111-3.625c1.797-1.672,2.934-4.885,1.639-7.121
				c-0.965-1.662-3.101-2.607-3.045-4.625c0.023-0.822,0.441-1.545,0.859-2.199c11.248-17.629,31.492-22.338,47.479-33.658
				c0.659-0.467,1.368-1.035,1.548-1.922c0.322-1.588-1.158-2.75-2.262-3.722c-4.751-4.188-4.816-13.146-1.619-19.062
				c3.199-5.918,8.705-9.424,14.104-12.297c5.246-2.792,10.746-5.264,16.49-5.55"/>
		</g>
		<g>
			<path fill="#3F0021" d="M178.903,1205.931c-0.734,8.497,6.016,38.424,7.258,39.375c7.029,5.379,14.059,10.757,21.088,16.136l0,0
				c6.363-2.712,11.229-2.997,17.895-4.329c3.909-0.781,8.163-1.498,10.941-4.861c1.752-2.121,2.653-5.01,3.467-7.822
				c3.357-11.615,6.033-23.508,8.004-35.565l4.796,11.299c-2.175,9.347-4.35,18.694-6.524,28.04
				c-0.775,3.336-1.584,6.752-3.305,9.542c-3.927,6.366-11.258,7.727-17.665,9.794c-1.868,0.604-3.79,1.359-5.164,2.981
				c-1.062,1.253-1.702,2.914-2.311,4.54c-6.601,17.65-15.423,67.426-19.774,86.036l-25.801-3.195
				c6.876-19.542,21.666-67.051,26.16-87.551c0.045-0.207,0.093-0.415,0.142-0.623c-5.073-4.108-10.147-8.218-15.22-12.327
				c-1.01-0.818-2.05-1.673-2.691-2.91c-0.61-1.174-0.802-2.58-0.977-3.944c-1.955-15.169-3.589-30.396-4.9-45.663
				C176.612,1205.406,176.612,1205.406,178.903,1205.931z"/>
		</g>
		<g>
			<path fill="#3F0021" d="M297.851,1343.712c-7.691-4.428-17.463-3.172-24.182,3.108c-0.445-6.798-5.363-12.513-10.975-13.897
				c-5.613-1.384-11.589,1.097-15.937,5.539c1.161-7.532-2.886-15.322-8.596-18.859c-5.709-3.536-12.653-3.348-18.801-1.076
				s-11.657,6.448-17.001,10.719c-1.916,1.53-4.039,4.445-2.596,6.586l-2.092-0.831c-0.896,15.394,7.469,30.05,18.535,38.103
				c11.064,8.055,24.396,10.477,37.363,10.877c12.566,0.387,25.285-0.996,37.209-5.727c3.967-1.572,7.906-3.566,11.049-6.846
				c3.143-3.281,5.411-8.037,5.26-13.007C306.894,1351.978,302.714,1346.512,297.851,1343.712z"/>
		</g>
		<g>
			<path fill="#3F0021" d="M133.305,1318.989c4.262-6.113,11.427-9.646,17.856-7.507c5.026,1.673,8.89,6.346,12.443,10.894
				c-0.836-3.897,1.617-8.096,4.842-9.303s6.845,0.138,9.476,2.663c2.632,2.524,4.416,6.084,5.858,9.722l0,0
				c4.854,6.592,3.523,13.628,1.246,21.962c-2.276,8.335-8.057,15.086-14.965,18.129c-4.705,2.073-9.84,2.519-14.827,2.224
				c-3.698-0.219-7.37-0.91-10.951-2.033c-4.313-1.354-8.698-3.413-11.75-7.318c-3.536-4.524-4.825-10.963-4.961-17.139
				C127.399,1333.344,129.043,1325.103,133.305,1318.989z"/>
		</g>
		<g>
			<path fill="#531331" d="M313.181,1295.358c3.953-8.887,5.17-19.449,3.373-29.273c3.707,3.117,5.99,8.193,7.097,13.433
				s1.155,10.7,1.2,16.102c3.934-4.06,7.213-9.017,9.605-14.519c0.23,8.9-2.707,17.855-7.945,24.218
				c3.482-0.853,7.027-1.343,10.58-1.464c-3.068,2.852-6.137,5.703-9.206,8.555l-21.401-1.356c3.023-2.808,4.39-7.628,4.197-12.185
				c-0.191-4.557-1.762-8.887-3.724-12.807C309.981,1287.976,312.29,1291.425,313.181,1295.358z"/>
		</g>
		<g>
			<path fill="#531331" d="M353.402,1334.801c3.988-5.097,9.522-8.448,15.332-9.286c-2.558-2.176-5.869-2.797-9.003-2.466
				c-3.133,0.331-6.146,1.536-9.128,2.73c1.337-3.985,3.317-7.665,5.799-10.78c-4.947,1.848-9.204,6.172-11.512,11.695
				c-0.324-2.903-0.86-5.773-1.603-8.566c-0.869,3.037-1.739,6.074-2.609,9.111l5.617,16.347c0.855-2.992,3.195-5.153,5.746-6.04
				c2.55-0.887,5.288-0.65,7.891-0.017C358.192,1335.612,355.77,1334.6,353.402,1334.801z"/>
		</g>
	</g>
	<g>
		<g>
			<path fill="#531331" d="M87.472,981.558c-0.652-1.027-1.516-1.877-2.001-3.028c-0.486-1.151-0.425-2.802,0.513-3.448
				c0.695-0.48,1.772-0.369,2.093-1.248c0.13-0.357,0.074-0.769,0.007-1.15c-0.774-4.383-2.654-8.152-4.936-11.713
				c0.789-1.225,1.352-2.643,1.537-4.166c0.534-4.359-2.562-8.853-6.261-9.085c1.795-1.843,2.521-4.852,2.341-7.663
				c-0.18-2.812-1.16-5.465-2.309-7.932c-1.125-2.414-2.441-4.731-4.139-6.613c-3.043-3.375-7.166-5.152-11.307-5.63
				c-3.684-0.425-7.398,0.117-11.021,1.052c-2.154,0.405-4.285,1.004-6.371,1.762c-2.238,0.813-4.484,1.842-6.257,3.662
				c-1.772,1.821-3.013,4.575-2.729,7.341c-3.521-1.933-7.856-0.3-10.715,2.818c-1.838,2.005-3.265,4.739-3.318,7.706
				c-0.012,0.635,0.042,1.262,0.15,1.876c-1.588,0.387-3.268,0.255-4.894,0.477c-1.982,0.271-4.157,1.392-4.732,3.665
				c-0.288,1.133-0.118,2.352,0.064,3.517c0.604,3.827,1.36,7.665,2.819,11.151s3.684,6.629,6.621,8.345
				c4.549,2.655,9.916,1.552,14.981,1.675c0.532,0.013,1.087,0.047,1.552,0.352c0.605,0.395,0.953,1.167,1.309,1.873
				c1.194,2.382,2.947,4.527,5.195,5.258c2.3,0.746,4.723-0.074,7.098-0.317c0.582-0.06,1.186-0.081,1.73,0.167
				c0.878,0.396,1.438,1.395,2.002,2.287c5.012,7.926,14.071,10.694,22.405,10.438c2.672-0.082,5.521-0.506,7.558-2.565
				C89.028,989.819,89.501,984.765,87.472,981.558z"/>
		</g>
		<g>
			<path fill="#531331" d="M42.659,1014.194c0.031-0.095,12.646-30.382,12.646-30.382c0.17-2.919,0.218-6.631,0.115-10.492
				c-3.439,6.782-6.774,13.71-11.126,19.656c0.405-13.569,2.315-26.851,4.434-40.091c-3.327,4.576-8.073,20.446-14.642,56.727
				c-1.62,8.957-7.512,27.53-10.166,36.129l11.311-2.755C37.134,1033.196,39.618,1023.567,42.659,1014.194z"/>
		</g>
		<g>
			<path fill="#531331" d="M41.765,1045.551c1.954-4.687,5.334-8.507,9.367-10.591c-2.234-0.916-4.729-0.52-6.926,0.518
				c-2.195,1.037-4.149,2.672-6.08,4.292c0.245-3.21,1.008-6.364,2.234-9.238c-3.229,2.59-5.516,6.788-6.182,11.353
				c-0.756-2.008-1.66-3.938-2.697-5.76c-0.079,2.408-0.158,4.816-0.238,7.225l6.987,10.338c0.078-2.373,1.374-4.524,3.05-5.812
				c1.676-1.289,3.689-1.816,5.678-2.022C45.359,1044.915,43.433,1044.804,41.765,1045.551z"/>
		</g>
	</g>
	<g>
		<g>
			<path fill="#812E52" d="M902.959,1208.618c-3.059-4.511-8.002-7.117-12.866-6.784c1.924-1.628,3.701-3.5,5.293-5.573
				c0.543-0.706,1.087-1.502,1.159-2.453c0.106-1.416-0.851-2.603-1.764-3.518c-7.902-7.897-18.562-11.757-28.821-10.435
				c0.706-2.315-0.095-5.114-1.766-6.536c-0.845-2.726-2.588-5.187-4.685-6.736c-3.686-2.727-8.174-3.318-12.492-3.844
				c-1.574-0.191-3.188-0.38-4.719,0.094c-1.714,0.529-3.176,1.843-4.533,3.196c-3.127,3.118-5.985,6.62-8.514,10.431
				c-1.122,1.689-2.202,3.498-2.631,5.59c-0.429,2.09-0.074,4.536,1.302,5.932c1.222,1.237,3.361,2.274,2.849,4.084
				c-0.146,0.517-0.503,0.902-0.847,1.264c-4.438,4.664-8.877,9.329-13.316,13.994c-2.217,2.328-4.547,4.873-5.256,8.287
				c-0.711,3.414,1.114,7.771,4.07,7.771c-2.804,0.646-5.498,1.958-7.879,3.833c-0.736,0.579-1.464,1.239-1.891,2.156
				c-0.426,0.915-0.512,1.999-0.51,3.046c0.015,7.678,4.487,14.779,10.336,18.025c5.85,3.244,12.79,2.973,18.878,0.422
				c6.088-2.552,11.409-7.213,16.102-12.484c0.398-0.447,0.838-0.925,1.384-0.983c0.744-0.08,1.357,0.63,1.931,1.202
				c2.477,2.475,6.213,2.991,9.101,1.26s4.762-5.611,4.562-9.451c5.352,3.457,11.787,4.212,17.741,2.703
				c5.954-1.508,11.436-5.179,16.008-9.961c1.84-1.924,3.638-4.248,3.951-7.139C905.426,1213.349,904.376,1210.708,902.959,1208.618
				z"/>
		</g>
		<g>
			<path fill="#3F0021" d="M872.567,1277.203c-0.762-1.694-1.619-3.359-2.023-5.219c-0.442-2.03-0.318-4.167-0.19-6.259
				c0.765-12.415,1.631-24.821,2.6-37.217l-5.442-2.807c-1.417,11.244-2.835,22.488-4.252,33.732
				c-0.221-0.095-0.469-0.119-0.707-0.134c-5.173-0.335-10.342-0.818-15.497-1.451c-0.574-0.071-1.18-0.155-1.648-0.558
				c-0.509-0.436-0.769-1.164-1.003-1.854c-1.949-5.724-3.897-11.447-5.848-17.171l-1.874,0.101
				c1.553,8.232,3.353,16.399,5.398,24.478c0.097,0.378,0.197,0.768,0.409,1.07c0.516,0.738,1.453,0.717,2.257,0.65
				c5.916-0.489,11.888,0.012,17.691,1.467c-0.102,0.936-0.163,1.875-0.081,2.811c0.108,1.215,0.455,2.379,0.797,3.529
				c3.972,13.336,7.943,26.671,11.914,40.006c3.057-0.401,6.028-1.668,8.604-3.665c-2.559-7.476-5.12-14.95-7.681-22.427
				C874.939,1283.212,873.883,1280.131,872.567,1277.203z"/>
		</g>
	</g>
	<g>
		<g>
			<path fill="#3F0021" d="M1040.085,1060.767c-9.073-9.408-21.256-13.869-33.293-13.99c2.177-4.316,2.075-10.112-0.246-14.32
				c-2.323-4.209-6.754-6.621-10.95-5.963c6.552-5.606,7.065-17.787,2.806-25.941c-4.259-8.154-11.974-12.857-19.702-15.625
				c-9.565-3.426-20.577-4.246-28.959,2.215c-11.308,8.717-13.755,26.823-15.138,42.767c-7.967-2.483-17.135-1.231-23.314,5.245
				c-6.179,6.476-8.139,18.73-2.998,26.383c-20.35-1.297-42.029,12.761-48.058,35.917c-2.346,9.008-2.077,19.511,2.675,27.06
				c3.825,6.076,10.076,9.484,16.384,10.631c6.31,1.146,24.273-0.464,30.589-1.555c0,0,10.158,22.412,47.386,17.983
				c30.247-3.599,35.289-16.185,35.289-16.185s29.049,10.039,43.858-4.797C1043.212,1123.778,1068.677,1090.415,1040.085,1060.767z"
				/>
		</g>
		<g>
			<path fill="#3F0021" d="M1006.112,1123.606c-2.151,18.711-4.305,37.422-6.458,56.134c-0.645,5.603-1.33,11.354-3.645,16.296
				c-2.212,4.721-5.74,8.336-9.196,11.845c-7.261,7.371-14.521,14.742-21.779,22.112c-4.053-34.593-3.521-69.948,1.791-104.302
				l-7.393,9.89c-1.726,15.676-3.455,31.352-5.181,47.027c-0.354,3.219-0.706,6.441-1.022,9.669
				c-0.531-0.774-1.506-1.079-2.37-1.302c-6.117-1.568-11.984-4.513-17.198-8.632c-0.899-0.712-1.815-1.505-2.301-2.653
				c-0.451-1.072-0.471-2.32-0.481-3.521c-0.154-18.346-0.31-36.69-0.464-55.036l-11.426-10.593
				c2.325,24.433,3.338,49.04,3.031,73.626c-0.021,1.649-0.033,3.376,0.601,4.844c0.684,1.584,2.01,2.61,3.295,3.523
				c8.06,5.717,16.901,9.871,26.069,12.248c0.15-0.969,0.297-1.938,0.446-2.907c-0.273,4.262-0.424,8.53-0.352,12.806
				c0.208,12.611,2.276,25.057,4.007,37.5c3.188,22.917,5.245,46.057,6.157,69.26c8.299-0.264,16.598-0.528,24.896-0.792
				c-9.066-23.601-15.677-48.507-19.784-73.987c9.581-11.072,19.163-22.145,28.744-33.216c2.318-2.681,4.688-5.441,6.057-8.926
				c1.213-3.087,1.562-6.538,1.894-9.923c2.602-26.516,5.202-53.031,7.804-79.546L1006.112,1123.606z"/>
		</g>
	</g>
	<path fill="#3F0021" d="M1130.178,1162.076l-0.669,42.075l-94.145,73.154v32.95l-295.454,33.948c0,0-5.137,1.073-13.562,8.854
		L675.514,1400h69.891H813.9h57.906H1200v-320.032L1130.178,1162.076z"/>
	<g>
		<path fill="#531331" d="M729.441,1349.271c-0.816-4.36-2.177-8.575-4.026-12.463c3.803,2.419,7.165,5.807,9.798,9.868
			c-0.205-10.487-4.501-20.222-6.062-30.546c3.751,3.887,6.25,9.25,7.846,14.854s2.352,11.487,3.099,17.336
			c0.406-6.502,0.86-13.199,3.337-19.016c0.17,5.602,0.607,11.192,1.308,16.736c0.485-4.359,2.174-8.516,4.745-11.675
			c-0.744,6.315-1.06,12.701-0.947,19.076"/>
	</g>
	<g>
		<g>
			<path fill="#531331" d="M768.728,1328.759c-1.621-0.584-3.242-1.168-4.863-1.752c-0.382-0.138-0.78-0.288-1.055-0.631
				c-0.217-0.273-0.334-0.637-0.441-0.989c-0.602-1.96-1.207-3.919-1.81-5.878c1.339-0.26,2.637-0.816,3.808-1.631
				c-1.506-0.643-3.625-0.908-5.131-1.551c0,0-10.215-15.251-15.229-21.163c3.812,0.595,7.573,1.646,11.211,3.135
				c1.138,0.466,5.376,2.106,5.376,2.106s-0.951,2.578-1.516,3.844c0.915-0.551,1.83-1.102,2.747-1.652
				c0.294-0.177,1.01-0.656,1.01-0.656s0.685,0.723,0.983,1.073c3.541,4.158,6.088,9.337,8.595,14.449
				c0.672,1.372,1.364,3.002,0.867,4.476c0.735,0.255,1.539,0.236,2.267-0.052c1.29,4.822,1.938,9.886,1.916,14.946
				c-2.229-3.6-5.289-6.462-8.755-8.19"/>
		</g>
		<g>
			<path fill="#531331" d="M774.596,1329.618c2.829,6.24,4.777,13.046,5.735,20.045"/>
		</g>
		<g>
			<path fill="#531331" d="M776.147,1285.442c-1.108,1.9-2.188,7.012-2.611,9.27c0.656,0.6,1.27,1.266,1.831,1.988
				c-0.837,0.297-1.724,0.398-2.594,0.296c-0.103,2.315-0.202,4.63-0.304,6.945c-0.049,1.15-0.005,4.474-0.005,4.474
				s1.368,0.996,2.336,1.031c-0.636,0.377-1.271,0.754-1.907,1.131c1.077,5.489,2.848,10.785,5.232,15.656
				c1.839-3.434,3.561-11.359,3.561-11.359l0.705-3.519l-2.061-2.093h2.438C784.281,1301.317,781.577,1290.405,776.147,1285.442"/>
		</g>
		<g>
			<path fill="#531331" d="M778.604,1305.157c-0.145,2.248-0.288,4.496-0.433,6.745c-0.316,4.915-0.634,9.838-0.559,14.767
				c0.103,6.734,0.943,13.453,2.489,19.933"/>
		</g>
		<g>
			<path fill="#531331" d="M779.837,1345.913c1.471-8.805,4.311-17.283,8.331-24.879c2.746-5.187,6.086-10.016,10.284-13.57"/>
		</g>
		<g>
			<path fill="#531331" d="M801.302,1315.325c2.429-4.137,4.565-8.551,6.66-12.911c-2.578-0.312-5.156,0.104-7.63,1.011
				c-0.298,0.893-0.64,1.784-0.265,2.677c-0.337-0.8-0.485-1.597-0.767-2.267c-2.081,0.886-4.076,2.102-5.917,3.508
				c-2.032,1.551-3.94,3.35-5.479,5.523c-0.368,0.523-0.711,1.07-1.034,1.631c0.392,0.934,1.04,1.867,1.431,2.8
				c-0.815,0-1.632-0.339-2.447-0.779c-0.38,0.851-0.723,1.723-0.996,2.625c-1.204,3.977-2.392,10.021-2.264,14.226l0.295,0.839
				c3.077-2.034,6.168-4.079,8.941-6.628c0.105-0.097,0.204-0.199,0.309-0.298c-0.305-0.728-0.7-1.352-0.308-2.288
				c0,1.074,0.615,1.232,1.216,1.412c2.706-2.719,5.033-5.861,7.133-9.23c-0.882-0.443-1.46-1.977-2.466-1.977
				C798.91,1315.198,800.106,1314.879,801.302,1315.325z"/>
		</g>
	</g>
</g>
</svg>
